{
.appVersion = "1237";
copyright = "Copyright 2020 The DM Mono Project Authors (https://www.github.com/googlefonts/dm-mono)";
customParameters = (
{
name = vendorID;
value = CF;
},
{
name = Axes;
value = (
{
Name = Weight;
Tag = wght;
},
{
Name = Italic;
Tag = ital;
}
);
},
{
name = isFixedPitch;
value = 1;
},
{
name = fsType;
value = (
);
},
{
name = license;
value = "This Font Software is licensed under the SIL Open Font License, Version 1.1. This license is available with a FAQ at: http://scripts.sil.org/OFL";
},
{
name = licenseURL;
value = "http://scripts.sil.org/OFL";
},
{
name = unicodeRanges;
value = (
0,
1,
2
);
}
);
date = "2020-03-11 08:57:37 +0000";
designer = "Colophon Foundry";
designerURL = "https://www.colophon-foundry.org";
familyName = "DM Mono";
featurePrefixes = (
{
automatic = 1;
code = "languagesystem DFLT dflt;\012languagesystem latn dflt;\012languagesystem latn ROM;\012languagesystem latn MOL;\012languagesystem latn CAT;\012";
name = Languagesystems;
}
);
features = (
{
automatic = 1;
code = "feature locl;\012feature sups;\012feature frac;\012feature ordn;\012feature salt;\012feature ss01;\012feature ss02;\012feature ss03;\012feature ss04;\012feature ss05;\012";
name = aalt;
},
{
automatic = 1;
code = "lookup ccmp_Other_1 {\012	@CombiningTopAccents = [acutecomb brevecomb caroncomb circumflexcomb commaturnedabovecomb dieresiscomb dotaccentcomb gravecomb hungarumlautcomb macroncomb ringcomb tildecomb];\012	@CombiningNonTopAccents = [cedillacomb ogonekcomb];\012	sub [i]' @CombiningTopAccents by [idotless];\012	sub [i]' @CombiningNonTopAccents @CombiningTopAccents by [idotless];\012} ccmp_Other_1;\012";
name = ccmp;
},
{
automatic = 1;

glyphs = (
{
glyphname = A;
lastChange = "2020-03-04 08:54:38 +0000";
layers = (
{
anchors = (
{
name = bottom;
position = "{256, 0}";
},
{
name = ogonek;
position = "{520, 0}";
},
{
name = top;
position = "{380, 700}";
}
);
layerId = "7BD5169A-FC8C-41E9-B364-539909E84211";
paths = (
{
closed = 1;
nodes = (
"75 0 LINE",
"362 602 LINE",
"366 602 LINE",
"446 0 LINE",
"520 0 LINE",
"420 700 LINE",
"338 700 LINE",
"-8 0 LINE"
);
},
{
closed = 1;
nodes = (
"462 178 LINE",
"451 238 LINE",
"145 238 LINE",
"114 178 LINE"
);
}
);
width = 600;
},
{
anchors = (
{
name = bottom;
position = "{256, 0}";
},
{
name = ogonek;
position = "{528, 0}";
},
{
name = top;
position = "{380, 700}";
}
);
layerId = "80A0AA5A-C5CE-4148-884B-17CEBCBED218";
paths = (
{
closed = 1;
nodes = (
"105 0 LINE",
"354 550 LINE",
"359 550 LINE",
"417 0 LINE",
"528 0 LINE",
"443 700 LINE",
"315 700 LINE",
"-16 0 LINE"
);
},
{
closed = 1;
nodes = (
"482 168 LINE",
"467 253 LINE",
"134 253 LINE",
"90 168 LINE"
);
}
);
width = 600;
}
);
unicode = 0041;
},
{
glyphname = AE;
lastChange = "2020-03-04 08:54:38 +0000";
layers = (
{
anchors = (
{
name = bottom;
position = "{256, 0}";
},
{
name = top;
position = "{470, 700}";
}
);
layerId = "7BD5169A-FC8C-41E9-B364-539909E84211";
paths = (
{
closed = 1;
nodes = (
"41 0 LINE",
"359 636 LINE",
"389 636 LINE",
"401 700 LINE",
"320 700 LINE",
"-40 0 LINE"
);
},
{
closed = 1;
nodes = (
"337 178 LINE",
"326 238 LINE",
"115 238 LINE",
"84 178 LINE"
);
},
{
closed = 1;
nodes = (
"544 0 LINE",
"556 64 LINE",
"342 64 LINE",
"387 320 LINE",
"571 320 LINE",
"582 384 LINE",
"398 384 LINE",
"442 636 LINE",
"656 636 LINE",
"668 700 LINE",
"384 700 LINE",
"260 0 LINE"
);
}
);
width = 600;
},
{
anchors = (
{
name = bottom;
position = "{256, 0}";
},
{
name = top;
position = "{464, 700}";
}
);
layerId = "80A0AA5A-C5CE-4148-884B-17CEBCBED218";
paths = (
{
closed = 1;
nodes = (
"75 0 LINE",
"350 605 LINE",
"409 605 LINE",
"426 700 LINE",
"289 700 LINE",
"-44 0 LINE"
);
},
{
closed = 1;
nodes = (
"351 168 LINE",
"358 253 LINE",
"108 253 LINE",
"64 168 LINE"
);
},
{
closed = 1;
nodes = (
"550 0 LINE",
"567 95 LINE",
"379 95 LINE",
"417 307 LINE",
"574 307 LINE",
"591 401 LINE",
"433 401 LINE",
"469 605 LINE",
"657 605 LINE",
"674 700 LINE",
"380 700 LINE",
"256 0 LINE"
);
}
);
width = 600;
}
);
unicode = 00C6;
},
{
glyphname = B;
lastChange = "2020-03-04 08:54:38 +0000";
layers = (
{
anchors = (
{
name = bottom;
position = "{256, 0}";
},
{
name = top;
position = "{380, 700}";
}
);
layerId = "7BD5169A-FC8C-41E9-B364-539909E84211";
paths = (
{
closed = 1;
nodes = (
"258 0 LINE SMOOTH",
"414 0 OFFCURVE",
"521 87 OFFCURVE",
"521 212 CURVE SMOOTH",
"521 289 OFFCURVE",
"477 336 OFFCURVE",
"425 356 CURVE",
"426 362 LINE",
"508 386 OFFCURVE",
"558 455 OFFCURVE",
"558 536 CURVE SMOOTH",
"558 632 OFFCURVE",
"492 700 OFFCURVE",
"364 700 CURVE SMOOTH",
"153 700 LINE",
"29 0 LINE"
);
},
{
closed = 1;
nodes = (
"157 330 LINE",
"308 330 LINE SMOOTH",
"397 330 OFFCURVE",
"448 285 OFFCURVE",
"449 209 CURVE SMOOTH",
"449 120 OFFCURVE",
"377 64 OFFCURVE",
"265 64 CURVE SMOOTH",
"111 64 LINE"
);
},
{
closed = 1;
nodes = (
"211 636 LINE",
"352 636 LINE SMOOTH",
"441 636 OFFCURVE",
"483 594 OFFCURVE",
"483 529 CURVE SMOOTH",
"483 443 OFFCURVE",
"421 392 OFFCURVE",
"318 392 CURVE SMOOTH",
"168 392 LINE"
);
}
);
width = 600;
},
{
anchors = (
{
name = bottom;
position = "{256, 0}";
},
{
name = top;
position = "{380, 700}";
}
);
layerId = "80A0AA5A-C5CE-4148-884B-17CEBCBED218";
paths = (
{
closed = 1;
nodes = (
"270 0 LINE SMOOTH",
"434 0 OFFCURVE",
"536 79 OFFCURVE",
"536 211 CURVE SMOOTH",
"536 285 OFFCURVE",
"494 334 OFFCURVE",
"442 356 CURVE",
"443 363 LINE",
"519 390 OFFCURVE",
"572 449 OFFCURVE",
"572 535 CURVE SMOOTH",
"572 633 OFFCURVE",
"506 700 OFFCURVE",
"378 700 CURVE SMOOTH",
"136 700 LINE",
"12 0 LINE"
);
},
{
closed = 1;
nodes = (
"174 318 LINE",
"310 318 LINE SMOOTH",
"385 318 OFFCURVE",
"429 281 OFFCURVE",
"430 216 CURVE SMOOTH",
"430 140 OFFCURVE",
"369 98 OFFCURVE",
"274 98 CURVE SMOOTH",
"135 98 LINE"
);
},
{
closed = 1;
nodes = (
"225 606 LINE",
"348 606 LINE SMOOTH",
"423 606 OFFCURVE",
"460 575 OFFCURVE",
"460 519 CURVE SMOOTH",
"460 446 OFFCURVE",
"411 408 OFFCURVE",
"321 408 CURVE SMOOTH",
"190 408 LINE"
);
}
);
width = 600;
}
);
unicode = 0042;
},
{
glyphname = C;
lastChange = "2020-03-04 08:54:38 +0000";
layers = (
{
anchors = (
{
name = bottom;
position = "{262, 0}";
},
{
name = top;
position = "{386, 700}";
}
);
layerId = "7BD5169A-FC8C-41E9-B364-539909E84211";
paths = (
{
closed = 1;
nodes = (
"409 -12 OFFCURVE",
"508 62 OFFCURVE",
"545 198 CURVE",
"467 198 LINE",
"440 114 OFFCURVE",
"379 54 OFFCURVE",
"280 54 CURVE SMOOTH",
"174 54 OFFCURVE",
"116 142 OFFCURVE",
"116 295 CURVE SMOOTH",
"116 459 OFFCURVE",
"211 646 OFFCURVE",
"377 646 CURVE SMOOTH",
"473 646 OFFCURVE",
"521 582 OFFCURVE",
"520 500 CURVE",
"598 500 LINE",
"602 627 OFFCURVE",
"529 712 OFFCURVE",
"389 712 CURVE SMOOTH",
"170 712 OFFCURVE",
"43 498 OFFCURVE",
"43 286 CURVE SMOOTH",
"43 101 OFFCURVE",
"127 -12 OFFCURVE",
"273 -12 CURVE SMOOTH"
);
}
);
width = 600;
},
{
anchors = (
{
name = bottom;
position = "{260, 0}";
},
{
name = top;
position = "{382, 700}";
}
);
layerId = "80A0AA5A-C5CE-4148-884B-17CEBCBED218";
paths = (
{
closed = 1;
nodes = (
"420 -12 OFFCURVE",
"514 70 OFFCURVE",
"554 210 CURVE",
"437 210 LINE",
"413 136 OFFCURVE",
"360 88 OFFCURVE",
"282 88 CURVE SMOOTH",
"193 88 OFFCURVE",
"147 162 OFFCURVE",
"147 292 CURVE SMOOTH",
"147 448 OFFCURVE",
"232 612 OFFCURVE",
"365 612 CURVE SMOOTH",
"448 612 OFFCURVE",
"486 557 OFFCURVE",
"485 484 CURVE",
"602 484 LINE",
"608 621 OFFCURVE",
"533 712 OFFCURVE",
"384 712 CURVE SMOOTH",
"159 712 OFFCURVE",
"38 497 OFFCURVE",
"38 278 CURVE SMOOTH",
"38 100 OFFCURVE",
"118 -12 OFFCURVE",
"267 -12 CURVE SMOOTH"
);
}
);
width = 600;
}
);
unicode = 0043;
},
{
glyphname = D;
lastChange = "2020-03-04 08:54:38 +0000";
layers = (
{
anchors = (
{
name = bottom;
position = "{268, 0}";
},
{
name = center;
position = "{330, 350}";
},
{
name = top;
position = "{292, 700}";
}
);
layerId = "7BD5169A-FC8C-41E9-B364-539909E84211";
paths = (
{
closed = 1;
nodes = (
"168 0 LINE SMOOTH",
"425 0 OFFCURVE",
"572 165 OFFCURVE",
"572 404 CURVE SMOOTH",
"572 582 OFFCURVE",
"475 700 OFFCURVE",
"285 700 CURVE SMOOTH",
"152 700 LINE",
"28 0 LINE"
);
},
{
closed = 1;
nodes = (
"210 636 LINE",
"273 636 LINE SMOOTH",
"435 636 OFFCURVE",
"499 545 OFFCURVE",
"499 396 CURVE SMOOTH",
"499 198 OFFCURVE",
"390 64 OFFCURVE",
"173 64 CURVE SMOOTH",
"110 64 LINE"
);
}
);
width = 600;
},
{
anchors = (
{
name = bottom;
position = "{273, 0}";
},
{
name = center;
position = "{335, 350}";
},
{
name = top;
position = "{297, 700}";
}
);
layerId = "80A0AA5A-C5CE-4148-884B-17CEBCBED218";
paths = (
{
closed = 1;
nodes = (
"184 0 LINE SMOOTH",
"450 0 OFFCURVE",
"581 169 OFFCURVE",
"581 394 CURVE SMOOTH",
"581 581 OFFCURVE",
"479 700 OFFCURVE",
"297 700 CURVE SMOOTH",
"137 700 LINE",
"13 0 LINE"
);
},
{
closed = 1;
nodes = (
"226 602 LINE",
"280 602 LINE SMOOTH",
"413 602 OFFCURVE",
"472 519 OFFCURVE",
"472 383 CURVE SMOOTH",
"472 218 OFFCURVE",
"379 98 OFFCURVE",
"195 98 CURVE SMOOTH",
"137 98 LINE"
);
}
);
width = 600;
}
);
unicode = 0044;
},
{
glyphname = Eth;
lastChange = "2020-03-04 08:54:38 +0000";
layers = (
{
layerId = "7BD5169A-FC8C-41E9-B364-539909E84211";
paths = (
{
closed = 1;
nodes = (
"322 319 LINE",
"332 381 LINE",
"32 381 LINE",
"22 319 LINE"
);
},
{
closed = 1;
nodes = (
"163 0 LINE SMOOTH",
"420 0 OFFCURVE",
"567 165 OFFCURVE",
"567 404 CURVE SMOOTH",
"567 582 OFFCURVE",
"470 700 OFFCURVE",
"280 700 CURVE SMOOTH",
"172 700 LINE",
"48 0 LINE"
);
},
{
closed = 1;
nodes = (
"230 636 LINE",
"268 636 LINE SMOOTH",
"430 636 OFFCURVE",
"494 545 OFFCURVE",
"494 396 CURVE SMOOTH",
"494 198 OFFCURVE",
"385 64 OFFCURVE",
"168 64 CURVE SMOOTH",
"130 64 LINE"
);
}
);
width = 600;
},
{
layerId = "80A0AA5A-C5CE-4148-884B-17CEBCBED218";
paths = (
{
closed = 1;
nodes = (
"330 305 LINE",
"345 395 LINE",
"30 395 LINE",
"15 305 LINE"
);
},
{
closed = 1;
nodes = (
"182 0 LINE SMOOTH",
"448 0 OFFCURVE",
"579 169 OFFCURVE",
"579 394 CURVE SMOOTH",
"579 581 OFFCURVE",
"477 700 OFFCURVE",
"296 700 CURVE SMOOTH",
"157 700 LINE",
"33 0 LINE"
);
},
{
closed = 1;
nodes = (
"246 602 LINE",
"279 602 LINE SMOOTH",
"411 602 OFFCURVE",
"470 519 OFFCURVE",
"470 383 CURVE SMOOTH",
"470 218 OFFCURVE",
"377 98 OFFCURVE",
"193 98 CURVE SMOOTH",
"157 98 LINE"
);
}
);
width = 600;
}
);
unicode = 00D0;
},
{
glyphname = E;
lastChange = "2020-03-04 08:54:38 +0000";
layers = (
{
anchors = (
{
name = bottom;
position = "{261, 0}";
},
{
name = ogonek;
position = "{476, 0}";
},
{
name = top;
position = "{385, 700}";
},
{
name = topleft;
position = "{108, 700}";
}
);
layerId = "7BD5169A-FC8C-41E9-B364-539909E84211";
paths = (
{
closed = 1;
nodes = (
"476 0 LINE",
"488 64 LINE",
"127 64 LINE",
"172 320 LINE",
"503 320 LINE",
"514 384 LINE",
"183 384 LINE",
"227 636 LINE",
"588 636 LINE",
"600 700 LINE",
"169 700 LINE",
"45 0 LINE"
);
}
);
width = 600;
},
{
anchors = (
{
name = bottom;
position = "{260, 0}";
},
{
name = ogonek;
position = "{483, 0}";
},
{
name = top;
position = "{384, 700}";
},
{
name = topleft;
position = "{103, 700}";
}
);
layerId = "80A0AA5A-C5CE-4148-884B-17CEBCBED218";
paths = (
{
closed = 1;
nodes = (
"483 0 LINE",
"500 95 LINE",
"159 95 LINE",
"197 307 LINE",
"508 307 LINE",
"525 401 LINE",
"213 401 LINE",
"249 605 LINE",
"590 605 LINE",
"607 700 LINE",
"160 700 LINE",
"36 0 LINE"
);
}
);
width = 600;
}
);
unicode = 0045;
},
{
glyphname = F;
lastChange = "2020-03-04 08:54:38 +0000";
layers = (
{
anchors = (
{
name = bottom;
position = "{256, 0}";
},
{
name = top;
position = "{380, 700}";
}
);
layerId = "7BD5169A-FC8C-41E9-B364-539909E84211";
paths = (
{
closed = 1;
nodes = (
"122 0 LINE",
"177 309 LINE",
"487 309 LINE",
"498 373 LINE",
"188 373 LINE",
"234 636 LINE",
"592 636 LINE",
"604 700 LINE",
"176 700 LINE",
"52 0 LINE"
);
}
);
width = 600;
},
{
anchors = (
{
name = bottom;
position = "{256, 0}";
},
{
name = top;
position = "{380, 700}";
}
);
layerId = "80A0AA5A-C5CE-4148-884B-17CEBCBED218";
paths = (
{
closed = 1;
nodes = (
"146 0 LINE",
"198 294 LINE",
"486 294 LINE",
"502 387 LINE",
"214 387 LINE",
"252 601 LINE",
"595 601 LINE",
"613 700 LINE",
"164 700 LINE",
"40 0 LINE"
);
}
);
width = 600;
}
);
unicode = 0046;
},
{
glyphname = G;
lastChange = "2020-03-04 08:54:38 +0000";
layers = (
{
anchors = (
{
name = bottom;
position = "{256, 0}";
},
{
name = top;
position = "{390, 700}";
}
);
layerId = "7BD5169A-FC8C-41E9-B364-539909E84211";
paths = (
{
closed = 1;
nodes = (
"352 -12 OFFCURVE",
"414 35 OFFCURVE",
"449 100 CURVE",
"453 100 LINE",
"441 0 LINE",
"505 0 LINE",
"569 361 LINE",
"334 361 LINE",
"323 299 LINE",
"486 299 LINE",
"461 188 OFFCURVE",
"392 54 OFFCURVE",
"266 54 CURVE SMOOTH",
"178 54 OFFCURVE",
"124 137 OFFCURVE",
"124 282 CURVE SMOOTH",
"124 449 OFFCURVE",
"209 646 OFFCURVE",
"376 646 CURVE SMOOTH",
"463 646 OFFCURVE",
"503 585 OFFCURVE",
"506 500 CURVE",
"584 500 LINE",
"584 617 OFFCURVE",
"518 712 OFFCURVE",
"388 712 CURVE SMOOTH",
"173 712 OFFCURVE",
"51 489 OFFCURVE",
"51 272 CURVE SMOOTH",
"51 91 OFFCURVE",
"131 -12 OFFCURVE",
"256 -12 CURVE SMOOTH"
);
}
);
width = 600;
},
{
anchors = (
{
name = bottom;
position = "{256, 0}";
},
{
name = top;
position = "{384, 700}";
}
);
layerId = "80A0AA5A-C5CE-4148-884B-17CEBCBED218";
paths = (
{
closed = 1;
nodes = (
"336 -12 OFFCURVE",
"393 27 OFFCURVE",
"421 83 CURVE",
"426 83 LINE",
"422 0 LINE",
"515 0 LINE",
"581 376 LINE",
"327 376 LINE",
"312 288 LINE",
"459 288 LINE",
"434 189 OFFCURVE",
"376 88 OFFCURVE",
"273 88 CURVE SMOOTH",
"194 88 OFFCURVE",
"151 159 OFFCURVE",
"151 287 CURVE SMOOTH",
"151 442 OFFCURVE",
"222 612 OFFCURVE",
"364 612 CURVE SMOOTH",
"433 612 OFFCURVE",
"475 566 OFFCURVE",
"477 494 CURVE",
"593 494 LINE",
"588 629 OFFCURVE",
"516 712 OFFCURVE",
"381 712 CURVE SMOOTH",
"157 712 OFFCURVE",
"42 496 OFFCURVE",
"42 279 CURVE SMOOTH",
"42 97 OFFCURVE",
"122 -12 OFFCURVE",
"252 -12 CURVE SMOOTH"
);
}
);
width = 600;
}
);
unicode = 0047;
},
{
glyphname = H;
lastChange = "2020-03-04 08:54:38 +0000";
layers = (
{
anchors = (
{
name = bottom;
position = "{256, 0}";
},
{
name = center;
position = "{318, 350}";
},
{
name = top;
position = "{380, 700}";
},
{
name = topleft;
position = "{100, 700}";
}
);
layerId = "7BD5169A-FC8C-41E9-B364-539909E84211";
paths = (
{
closed = 1;
nodes = (
"506 0 LINE",
"630 700 LINE",
"560 700 LINE",
"436 0 LINE"
);
},
{
closed = 1;
nodes = (
"76 0 LINE",
"200 700 LINE",
"130 700 LINE",
"6 0 LINE"
);
},
{
closed = 1;
nodes = (
"514 327 LINE",
"525 391 LINE",
"129 391 LINE",
"118 327 LINE"
);
}
);
width = 600;
},
{
anchors = (
{
name = bottom;
position = "{256, 0}";
},
{
name = center;
position = "{318, 350}";
},
{
name = top;
position = "{380, 700}";
},
{
name = topleft;
position = "{100, 700}";
}
);
layerId = "80A0AA5A-C5CE-4148-884B-17CEBCBED218";
paths = (
{
closed = 1;
nodes = (
"515 0 LINE",
"639 700 LINE",
"533 700 LINE",
"409 0 LINE"
);
},
{
closed = 1;
nodes = (
"103 0 LINE",
"227 700 LINE",
"121 700 LINE",
"-3 0 LINE"
);
},
{
closed = 1;
nodes = (
"485 313 LINE",
"503 410 LINE",
"159 410 LINE",
"142 313 LINE"
);
}
);
width = 600;
}
);
unicode = 0048;
},
{
glyphname = I;
lastChange = "2020-03-04 08:54:38 +0000";
layers = (
{
anchors = (
{
name = bottom;
position = "{256, 0}";
},
{
name = ogonek;
position = "{455, 0}";
},
{
name = top;
position = "{380, 700}";
},
{
name = topleft;
position = "{100, 700}";
}
);
layerId = "7BD5169A-FC8C-41E9-B364-539909E84211";
paths = (
{
closed = 1;
nodes = (
"291 0 LINE",
"415 700 LINE",
"345 700 LINE",
"221 0 LINE"
);
},
{
closed = 1;
nodes = (
"455 0 LINE",
"466 60 LINE",
"68 60 LINE",
"57 0 LINE"
);
},
{
closed = 1;
nodes = (
"568 640 LINE",
"579 700 LINE",
"181 700 LINE",
"170 640 LINE"
);
}
);
width = 600;
},
{
anchors = (
{
name = bottom;
position = "{256, 0}";
},
{
name = ogonek;
position = "{461, 0}";
},
{
name = top;
position = "{380, 700}";
},
{
name = topleft;
position = "{100, 700}";
}
);
layerId = "80A0AA5A-C5CE-4148-884B-17CEBCBED218";
paths = (
{
closed = 1;
nodes = (
"309 0 LINE",
"433 700 LINE",
"327 700 LINE",
"203 0 LINE"
);
},
{
closed = 1;
nodes = (
"461 0 LINE",
"478 94 LINE",
"67 94 LINE",
"51 0 LINE"
);
},
{
closed = 1;
nodes = (
"566 606 LINE",
"583 700 LINE",
"177 700 LINE",
"160 606 LINE"
);
}
);
width = 600;
}
);
unicode = 0049;
},
{
glyphname = J;
lastChange = "2020-03-04 08:54:38 +0000";
layers = (
{
anchors = (
{
name = bottom;
position = "{262, 0}";
},
{
name = top;
position = "{552, 700}";
}
);
layerId = "7BD5169A-FC8C-41E9-B364-539909E84211";
paths = (
{
closed = 1;
nodes = (
"396 -12 OFFCURVE",
"474 58 OFFCURVE",
"499 202 CURVE SMOOTH",
"587 700 LINE",
"517 700 LINE",
"429 202 LINE SMOOTH",
"414 117 OFFCURVE",
"367 54 OFFCURVE",
"273 54 CURVE SMOOTH",
"179 54 OFFCURVE",
"151 122 OFFCURVE",
"164 203 CURVE",
"93 203 LINE",
"74 79 OFFCURVE",
"140 -12 OFFCURVE",
"267 -12 CURVE SMOOTH"
);
}
);
width = 600;
},
{
anchors = (
{
name = bottom;
position = "{263, 0}";
},
{
name = top;
position = "{551, 700}";
}
);
layerId = "80A0AA5A-C5CE-4148-884B-17CEBCBED218";
paths = (
{
closed = 1;
nodes = (
"408 -12 OFFCURVE",
"491 60 OFFCURVE",
"518 213 CURVE SMOOTH",
"604 700 LINE",
"498 700 LINE",
"412 213 LINE SMOOTH",
"398 139 OFFCURVE",
"357 84 OFFCURVE",
"279 84 CURVE SMOOTH",
"200 84 OFFCURVE",
"175 142 OFFCURVE",
"186 215 CURVE",
"80 215 LINE",
"63 90 OFFCURVE",
"129 -12 OFFCURVE",
"267 -12 CURVE SMOOTH"
);
}
);
width = 600;
}
);
unicode = 004A;
},
{
glyphname = K;
lastChange = "2020-03-04 08:54:38 +0000";
layers = (
{
anchors = (
{
name = bottom;
position = "{256, 0}";
},
{
name = top;
position = "{380, 700}";
}
);
background = {
anchors = (
{
name = bottom;
position = "{256, 0}";
},
{
name = top;
position = "{380, 700}";
}
);
paths = (
{
closed = 1;
nodes = (
"497 0 LINE",
"247 348 LINE",
"247 352 LINE",
"618 700 LINE",
"527 700 LINE",
"152 347 LINE",
"403 0 LINE"
);
},
{
closed = 1;
nodes = (
"111 0 LINE",
"235 700 LINE",
"165 700 LINE",
"41 0 LINE"
);
}
);
};
layerId = "7BD5169A-FC8C-41E9-B364-539909E84211";
paths = (
{
closed = 1;
nodes = (
"497 0 LINE",
"245 342 LINE",
"245 346 LINE",
"618 700 LINE",
"519 700 LINE",
"152 347 LINE",
"408 0 LINE"
);
},
{
closed = 1;
nodes = (
"111 0 LINE",
"235 700 LINE",
"165 700 LINE",
"41 0 LINE"
);
}
);
width = 600;
},
{
anchors = (
{
name = bottom;
position = "{256, 0}";
},
{
name = top;
position = "{380, 700}";
}
);
layerId = "80A0AA5A-C5CE-4148-884B-17CEBCBED218";
paths = (
{
closed = 1;
nodes = (
"523 0 LINE",
"304 340 LINE",
"305 347 LINE",
"641 700 LINE",
"503 700 LINE",
"173 347 LINE",
"398 0 LINE"
);
},
{
closed = 1;
nodes = (
"138 0 LINE",
"262 700 LINE",
"156 700 LINE",
"32 0 LINE"
);
}
);
width = 600;
}
);
unicode = 004B;
},
{
glyphname = L;
lastChange = "2020-03-04 08:54:38 +0000";
layers = (
{
anchors = (
{
name = bottom;
position = "{262, 0}";
},
{
name = center;
position = "{318, 350}";
},
{
name = top;
position = "{206, 700}";
},
{
name = topright;
position = "{358, 476}";
}
);
layerId = "7BD5169A-FC8C-41E9-B364-539909E84211";
paths = (
{
closed = 1;
nodes = (
"478 0 LINE",
"490 64 LINE",
"129 64 LINE",
"241 700 LINE",
"171 700 LINE",
"47 0 LINE"
);
}
);
width = 600;
},
{
anchors = (
{
name = bottom;
position = "{263, 0}";
},
{
name = center;
position = "{318, 350}";
},
{
name = top;
position = "{214, 700}";
},
{
name = topright;
position = "{367, 476}";
}
);
layerId = "80A0AA5A-C5CE-4148-884B-17CEBCBED218";
paths = (
{
closed = 1;
nodes = (
"488 0 LINE",
"505 95 LINE",
"160 95 LINE",
"267 700 LINE",
"161 700 LINE",
"37 0 LINE"
);
}
);
width = 600;
}
);
unicode = 004C;
},
{
glyphname = Ldot;
lastChange = "2020-03-04 08:54:38 +0000";
layers = (
{
components = (
{
name = L;
}
);
layerId = "7BD5169A-FC8C-41E9-B364-539909E84211";
paths = (
{
closed = 1;
nodes = (
"488 284 OFFCURVE",
"518 314 OFFCURVE",
"518 350 CURVE SMOOTH",
"518 386 OFFCURVE",
"488 416 OFFCURVE",
"452 416 CURVE SMOOTH",
"416 416 OFFCURVE",
"386 386 OFFCURVE",
"386 350 CURVE SMOOTH",
"386 314 OFFCURVE",
"416 284 OFFCURVE",
"452 284 CURVE SMOOTH"
);
}
);
width = 600;
},
{
components = (
{
alignment = -1;
name = L;
}
);
layerId = "80A0AA5A-C5CE-4148-884B-17CEBCBED218";
paths = (
{
closed = 1;
nodes = (
"497 269 OFFCURVE",
"533 303 OFFCURVE",
"533 348 CURVE SMOOTH",
"533 392 OFFCURVE",
"497 425 OFFCURVE",
"450 425 CURVE SMOOTH",
"404 425 OFFCURVE",
"367 392 OFFCURVE",
"367 348 CURVE SMOOTH",
"367 303 OFFCURVE",
"404 269 OFFCURVE",
"450 269 CURVE SMOOTH"
);
}
);
width = 600;
}
);
unicode = 013F;
},
{
glyphname = Lslash;
lastChange = "2020-03-04 08:54:38 +0000";
layers = (
{
background = {
paths = (
{
closed = 1;
nodes = (
"336 332 LINE",
"347 394 LINE",
"25 274 LINE",
"14 212 LINE"
);
}
);
};
components = (
{
name = L;
transform = "{1, 0, 0, 1, 26, 0}";
}
);
layerId = "7BD5169A-FC8C-41E9-B364-539909E84211";
paths = (
{
closed = 1;
nodes = (
"336 332 LINE",
"348 398 LINE",
"26 278 LINE",
"14 212 LINE"
);
}
);
width = 600;
},
{
components = (
{
alignment = -1;
name = L;
transform = "{1, 0, 0, 1, 25, 0}";
}
);
layerId = "80A0AA5A-C5CE-4148-884B-17CEBCBED218";
paths = (
{
closed = 1;
nodes = (
"355 327 LINE",
"372 424 LINE",
"29 296 LINE",
"12 199 LINE"
);
}
);
width = 600;
}
);
unicode = 0141;
},
{
glyphname = M;
lastChange = "2020-03-04 08:54:38 +0000";
layers = (
{
anchors = (
{
name = bottom;
position = "{256, 0}";
},
{
name = top;
position = "{380, 700}";
}
);
layerId = "7BD5169A-FC8C-41E9-B364-539909E84211";
paths = (
{
closed = 1;
nodes = (
"80 0 LINE",
"179 562 LINE",
"276 260 LINE",
"331 260 LINE",
"532 562 LINE",
"432 0 LINE",
"502 0 LINE",
"626 700 LINE",
"544 700 LINE",
"316 356 LINE",
"206 700 LINE",
"134 700 LINE",
"10 0 LINE"
);
}
);
width = 600;
},
{
anchors = (
{
name = bottom;
position = "{256, 0}";
},
{
name = top;
position = "{380, 700}";
}
);
layerId = "80A0AA5A-C5CE-4148-884B-17CEBCBED218";
paths = (
{
closed = 1;
nodes = (
"100 0 LINE",
"188 498 LINE",
"259 248 LINE",
"343 248 LINE",
"500 497 LINE",
"412 0 LINE",
"513 0 LINE",
"637 700 LINE",
"520 700 LINE",
"320 383 LINE",
"230 700 LINE",
"123 700 LINE",
"-1 0 LINE"
);
}
);
width = 600;
}
);
unicode = 004D;
},
{
glyphname = N;
lastChange = "2020-03-04 08:54:38 +0000";
layers = (
{
anchors = (
{
name = bottom;
position = "{256, 0}";
},
{
name = top;
position = "{380, 700}";
}
);
background = {
paths = (
{
closed = 1;
nodes = (
"86 0 LINE",
"188 579 LINE",
"420 0 LINE",
"496 0 LINE",
"620 700 LINE",
"550 700 LINE",
"448 122 LINE",
"216 700 LINE",
"140 700 LINE",
"16 0 LINE"
);
}
);
};
layerId = "7BD5169A-FC8C-41E9-B364-539909E84211";
paths = (
{
closed = 1;
nodes = (
"86 0 LINE",
"190 587 LINE",
"420 0 LINE",
"496 0 LINE",
"620 700 LINE",
"550 700 LINE",
"446 114 LINE",
"216 700 LINE",
"140 700 LINE",
"16 0 LINE"
);
}
);
width = 600;
},
{
anchors = (
{
name = bottom;
position = "{256, 0}";
},
{
name = top;
position = "{380, 700}";
}
);
layerId = "80A0AA5A-C5CE-4148-884B-17CEBCBED218";
paths = (
{
closed = 1;
nodes = (
"108 0 LINE",
"201 521 LINE",
"401 0 LINE",
"505 0 LINE",
"629 700 LINE",
"528 700 LINE",
"435 179 LINE",
"235 700 LINE",
"131 700 LINE",
"7 0 LINE"
);
}
);
width = 600;
}
);
unicode = 004E;
},
{
glyphname = O;
lastChange = "2020-03-04 08:54:38 +0000";
layers = (
{
anchors = (
{
name = bottom;
position = "{256, 0}";
},
{
name = center;
position = "{318, 350}";
},
{
name = ogonek;
position = "{336, 0}";
},
{
name = top;
position = "{380, 700}";
},
{
name = topleft;
position = "{100, 700}";
},
{
name = topright;
position = "{660, 700}";
}
);
layerId = "7BD5169A-FC8C-41E9-B364-539909E84211";
paths = (
{
closed = 1;
nodes = (
"474 -12 OFFCURVE",
"600 203 OFFCURVE",
"600 421 CURVE SMOOTH",
"600 597 OFFCURVE",
"523 712 OFFCURVE",
"374 712 CURVE SMOOTH",
"163 712 OFFCURVE",
"36 496 OFFCURVE",
"36 279 CURVE SMOOTH",
"36 102 OFFCURVE",
"113 -12 OFFCURVE",
"262 -12 CURVE SMOOTH"
);
},
{
closed = 1;
nodes = (
"168 53 OFFCURVE",
"108 138 OFFCURVE",
"108 288 CURVE SMOOTH",
"108 455 OFFCURVE",
"202 646 OFFCURVE",
"370 646 CURVE SMOOTH",
"468 646 OFFCURVE",
"528 562 OFFCURVE",
"528 412 CURVE SMOOTH",
"528 245 OFFCURVE",
"434 53 OFFCURVE",
"266 53 CURVE SMOOTH"
);
}
);
width = 600;
},
{
anchors = (
{
name = bottom;
position = "{258, 0}";
},
{
name = center;
position = "{318, 350}";
},
{
name = ogonek;
position = "{340, 0}";
},
{
name = top;
position = "{378, 700}";
},
{
name = topleft;
position = "{100, 700}";
},
{
name = topright;
position = "{660, 700}";
}
);
layerId = "80A0AA5A-C5CE-4148-884B-17CEBCBED218";
paths = (
{
closed = 1;
nodes = (
"476 -12 OFFCURVE",
"599 201 OFFCURVE",
"599 432 CURVE SMOOTH",
"599 607 OFFCURVE",
"519 712 OFFCURVE",
"374 712 CURVE SMOOTH",
"160 712 OFFCURVE",
"36 498 OFFCURVE",
"36 268 CURVE SMOOTH",
"36 93 OFFCURVE",
"117 -12 OFFCURVE",
"262 -12 CURVE SMOOTH"
);
},
{
closed = 1;
nodes = (
"190 87 OFFCURVE",
"145 157 OFFCURVE",
"145 285 CURVE SMOOTH",
"145 438 OFFCURVE",
"222 612 OFFCURVE",
"364 612 CURVE SMOOTH",
"446 612 OFFCURVE",
"490 543 OFFCURVE",
"490 414 CURVE SMOOTH",
"490 262 OFFCURVE",
"414 87 OFFCURVE",
"272 87 CURVE SMOOTH"
);
}
);
width = 600;
}
);
unicode = 004F;
},
{
glyphname = Oslash;
lastChange = "2020-03-04 08:54:38 +0000";
layers = (
{
components = (
{
name = O;
}
);
layerId = "7BD5169A-FC8C-41E9-B364-539909E84211";
paths = (
{
closed = 1;
nodes = (
"67 -20 LINE",
"649 720 LINE",
"571 720 LINE",
"-12 -20 LINE"
);
}
);
width = 600;
},
{
components = (
{
alignment = -1;
name = O;
}
);
layerId = "80A0AA5A-C5CE-4148-884B-17CEBCBED218";
paths = (
{
closed = 1;
nodes = (
"86 -20 LINE",
"657 720 LINE",
"551 720 LINE",
"-21 -20 LINE"
);
}
);
width = 600;
}
);
unicode = 00D8;
},
{
glyphname = OE;
lastChange = "2020-03-04 08:54:38 +0000";
layers = (
{
anchors = (
{
name = bottom;
position = "{256, 0}";
},
{
name = top;
position = "{380, 700}";
}
);
layerId = "7BD5169A-FC8C-41E9-B364-539909E84211";
paths = (
{
closed = 1;
nodes = (
"220 -12 OFFCURVE",
"250 15 OFFCURVE",
"281 68 CURVE",
"285 68 LINE",
"273 0 LINE",
"544 0 LINE",
"556 64 LINE",
"355 64 LINE",
"400 320 LINE",
"571 320 LINE",
"582 384 LINE",
"411 384 LINE",
"455 636 LINE",
"656 636 LINE",
"668 700 LINE",
"397 700 LINE",
"385 632 LINE",
"381 632 LINE",
"363 685 OFFCURVE",
"329 712 OFFCURVE",
"273 712 CURVE SMOOTH",
"102 712 OFFCURVE",
"24 417 OFFCURVE",
"24 212 CURVE SMOOTH",
"24 57 OFFCURVE",
"80 -12 OFFCURVE",
"155 -12 CURVE SMOOTH"
);
},
{
closed = 1;
nodes = (
"123 53 OFFCURVE",
"95 100 OFFCURVE",
"95 209 CURVE SMOOTH",
"95 384 OFFCURVE",
"153 646 OFFCURVE",
"275 646 CURVE SMOOTH",
"327 646 OFFCURVE",
"355 599 OFFCURVE",
"355 488 CURVE SMOOTH",
"355 332 OFFCURVE",
"297 53 OFFCURVE",
"171 53 CURVE SMOOTH"
);
}
);
width = 600;
},
{
anchors = (
{
name = bottom;
position = "{268, 0}";
},
{
name = top;
position = "{392, 700}";
}
);
layerId = "80A0AA5A-C5CE-4148-884B-17CEBCBED218";
paths = (
{
closed = 1;
nodes = (
"213 -12 OFFCURVE",
"241 11 OFFCURVE",
"269 52 CURVE",
"276 52 LINE",
"266 0 LINE",
"549 0 LINE",
"566 95 LINE",
"386 95 LINE",
"424 307 LINE",
"573 307 LINE",
"590 401 LINE",
"440 401 LINE",
"476 605 LINE",
"656 605 LINE",
"673 700 LINE",
"390 700 LINE",
"381 648 LINE",
"374 648 LINE",
"357 686 OFFCURVE",
"325 712 OFFCURVE",
"279 712 CURVE SMOOTH",
"98 712 OFFCURVE",
"20 431 OFFCURVE",
"20 224 CURVE SMOOTH",
"20 60 OFFCURVE",
"74 -12 OFFCURVE",
"157 -12 CURVE SMOOTH"
);
},
{
closed = 1;
nodes = (
"148 81 OFFCURVE",
"122 122 OFFCURVE",
"122 226 CURVE SMOOTH",
"122 388 OFFCURVE",
"183 619 OFFCURVE",
"279 619 CURVE SMOOTH",
"323 619 OFFCURVE",
"347 575 OFFCURVE",
"347 469 CURVE SMOOTH",
"347 320 OFFCURVE",
"289 81 OFFCURVE",
"188 81 CURVE SMOOTH"
);
}
);
width = 600;
}
);
unicode = 0152;
},
{
glyphname = P;
lastChange = "2020-03-04 08:54:38 +0000";
layers = (
{
anchors = (
{
name = bottom;
position = "{256, 0}";
},
{
name = top;
position = "{380, 700}";
}
);
layerId = "7BD5169A-FC8C-41E9-B364-539909E84211";
paths = (
{
closed = 1;
nodes = (
"102 0 LINE",
"151 278 LINE",
"311 278 LINE SMOOTH",
"481 278 OFFCURVE",
"580 374 OFFCURVE",
"580 514 CURVE SMOOTH",
"580 616 OFFCURVE",
"520 700 OFFCURVE",
"381 700 CURVE SMOOTH",
"156 700 LINE",
"32 0 LINE"
);
},
{
closed = 1;
nodes = (
"214 636 LINE",
"374 636 LINE SMOOTH",
"464 636 OFFCURVE",
"507 584 OFFCURVE",
"507 509 CURVE SMOOTH",
"507 409 OFFCURVE",
"435 342 OFFCURVE",
"323 342 CURVE SMOOTH",
"163 342 LINE"
);
}
);
width = 600;
},
{
anchors = (
{
name = bottom;
position = "{256, 0}";
},
{
name = top;
position = "{380, 700}";
}
);
layerId = "80A0AA5A-C5CE-4148-884B-17CEBCBED218";
paths = (
{
closed = 1;
nodes = (
"133 0 LINE",
"181 274 LINE",
"313 274 LINE SMOOTH",
"485 274 OFFCURVE",
"589 357 OFFCURVE",
"589 505 CURVE SMOOTH",
"589 618 OFFCURVE",
"516 700 OFFCURVE",
"378 700 CURVE SMOOTH",
"151 700 LINE",
"27 0 LINE"
);
},
{
closed = 1;
nodes = (
"240 605 LINE",
"365 605 LINE SMOOTH",
"444 605 OFFCURVE",
"479 565 OFFCURVE",
"479 501 CURVE SMOOTH",
"479 416 OFFCURVE",
"421 369 OFFCURVE",
"324 369 CURVE SMOOTH",
"198 369 LINE"
);
}
);
width = 600;
}
);
unicode = 0050;
},
{
glyphname = Thorn;
lastChange = "2020-03-04 08:54:38 +0000";
layers = (
{
anchors = (
{
name = bottom;
position = "{256, 0}";
},
{
name = top;
position = "{380, 700}";
}
);
background = {
paths = (
{
closed = 1;
nodes = (
"102 0 LINE",
"151 278 LINE",
"311 278 LINE SMOOTH",
"481 278 OFFCURVE",
"580 374 OFFCURVE",
"580 514 CURVE SMOOTH",
"580 616 OFFCURVE",
"520 700 OFFCURVE",
"381 700 CURVE SMOOTH",
"156 700 LINE",
"32 0 LINE"
);
},
{
closed = 1;
nodes = (
"214 636 LINE",
"374 636 LINE SMOOTH",
"464 636 OFFCURVE",
"507 584 OFFCURVE",
"507 509 CURVE SMOOTH",
"507 409 OFFCURVE",
"435 342 OFFCURVE",
"323 342 CURVE SMOOTH",
"163 342 LINE"
);
}
);
};
layerId = "7BD5169A-FC8C-41E9-B364-539909E84211";
paths = (
{
closed = 1;
nodes = (
"102 0 LINE",
"127 139 LINE",
"287 139 LINE SMOOTH",
"457 139 OFFCURVE",
"556 235 OFFCURVE",
"556 375 CURVE SMOOTH",
"556 477 OFFCURVE",
"496 561 OFFCURVE",
"357 561 CURVE SMOOTH",
"201 561 LINE",
"226 700 LINE",
"156 700 LINE",
"32 0 LINE"
);
},
{
closed = 1;
nodes = (
"190 497 LINE",
"350 497 LINE SMOOTH",
"440 497 OFFCURVE",
"483 445 OFFCURVE",
"483 370 CURVE SMOOTH",
"483 270 OFFCURVE",
"411 203 OFFCURVE",
"299 203 CURVE SMOOTH",
"139 203 LINE"
);
}
);
width = 600;
},
{
anchors = (
{
name = bottom;
position = "{256, 0}";
},
{
name = top;
position = "{380, 700}";
}
);
layerId = "80A0AA5A-C5CE-4148-884B-17CEBCBED218";
paths = (
{
closed = 1;
nodes = (
"133 0 LINE",
"157 137 LINE",
"289 137 LINE SMOOTH",
"461 137 OFFCURVE",
"565 220 OFFCURVE",
"565 369 CURVE SMOOTH",
"565 482 OFFCURVE",
"492 563 OFFCURVE",
"354 563 CURVE SMOOTH",
"233 563 LINE",
"257 700 LINE",
"151 700 LINE",
"27 0 LINE"
);
},
{
closed = 1;
nodes = (
"216 468 LINE",
"341 468 LINE SMOOTH",
"420 468 OFFCURVE",
"455 428 OFFCURVE",
"455 364 CURVE SMOOTH",
"455 280 OFFCURVE",
"397 232 OFFCURVE",
"300 232 CURVE SMOOTH",
"174 232 LINE"
);
}
);
width = 600;
}
);
unicode = 00DE;
},
{
glyphname = Q;
lastChange = "2020-03-04 08:54:38 +0000";
layers = (
{
anchors = (
{
name = bottom;
position = "{289, 0}";
},
{
name = top;
position = "{413, 700}";
}
);
components = (
{
alignment = -1;
name = O;
}
);
layerId = "7BD5169A-FC8C-41E9-B364-539909E84211";
paths = (
{
closed = 1;
nodes = (
"515 -147 LINE",
"360 42 LINE",
"280 33 LINE",
"428 -147 LINE"
);
}
);
width = 600;
},
{
anchors = (
{
name = bottom;
position = "{269, 0}";
},
{
name = top;
position = "{393, 700}";
}
);
components = (
{
alignment = -1;
name = O;
}
);
layerId = "80A0AA5A-C5CE-4148-884B-17CEBCBED218";
paths = (
{
closed = 1;
nodes = (
"513 -153 LINE",
"358 59 LINE",
"248 33 LINE",
"386 -153 LINE"
);
}
);
width = 600;
}
);
unicode = 0051;
},
{
glyphname = R;
lastChange = "2020-03-04 08:54:38 +0000";
layers = (
{
anchors = (
{
name = bottom;
position = "{256, 0}";
},
{
name = top;
position = "{380, 700}";
}
);
layerId = "7BD5169A-FC8C-41E9-B364-539909E84211";
paths = (
{
closed = 1;
nodes = (
"112 0 LINE",
"164 293 LINE",
"301 293 LINE SMOOTH",
"469 293 OFFCURVE",
"576 383 OFFCURVE",
"576 522 CURVE SMOOTH",
"576 628 OFFCURVE",
"503 700 OFFCURVE",
"368 700 CURVE SMOOTH",
"166 700 LINE",
"42 0 LINE"
);
},
{
closed = 1;
nodes = (
"492 0 LINE",
"381 315 LINE",
"307 315 LINE",
"415 0 LINE"
);
},
{
closed = 1;
nodes = (
"224 636 LINE",
"358 636 LINE SMOOTH",
"460 636 OFFCURVE",
"503 591 OFFCURVE",
"503 518 CURVE SMOOTH",
"503 420 OFFCURVE",
"431 358 OFFCURVE",
"310 358 CURVE SMOOTH",
"175 358 LINE"
);
}
);
width = 600;
},
{
anchors = (
{
name = bottom;
position = "{256, 0}";
},
{
name = top;
position = "{375, 700}";
}
);
layerId = "80A0AA5A-C5CE-4148-884B-17CEBCBED218";
paths = (
{
closed = 1;
nodes = (
"137 0 LINE",
"186 277 LINE",
"308 277 LINE SMOOTH",
"477 277 OFFCURVE",
"593 359 OFFCURVE",
"593 508 CURVE SMOOTH",
"593 621 OFFCURVE",
"521 700 OFFCURVE",
"380 700 CURVE SMOOTH",
"155 700 LINE",
"31 0 LINE"
);
},
{
closed = 1;
nodes = (
"509 0 LINE",
"406 311 LINE",
"295 311 LINE",
"393 0 LINE"
);
},
{
closed = 1;
nodes = (
"244 605 LINE",
"358 605 LINE SMOOTH",
"444 605 OFFCURVE",
"483 566 OFFCURVE",
"483 502 CURVE SMOOTH",
"483 422 OFFCURVE",
"421 373 OFFCURVE",
"320 373 CURVE SMOOTH",
"203 373 LINE"
);
}
);
width = 600;
}
);
unicode = 0052;
},
{
glyphname = S;
lastChange = "2020-03-04 08:54:38 +0000";
layers = (
{
anchors = (
{
name = bottom;
position = "{256, 0}";
},
{
name = top;
position = "{380, 700}";
}
);
layerId = "7BD5169A-FC8C-41E9-B364-539909E84211";
paths = (
{
closed = 1;
nodes = (
"421 -12 OFFCURVE",
"522 64 OFFCURVE",
"522 197 CURVE SMOOTH",
"522 296 OFFCURVE",
"462 350 OFFCURVE",
"355 388 CURVE SMOOTH",
"238 430 OFFCURVE",
"205 472 OFFCURVE",
"205 538 CURVE SMOOTH",
"205 605 OFFCURVE",
"271 648 OFFCURVE",
"359 648 CURVE SMOOTH",
"445 648 OFFCURVE",
"500 600 OFFCURVE",
"494 520 CURVE",
"566 520 LINE",
"573 637 OFFCURVE",
"497 712 OFFCURVE",
"368 712 CURVE SMOOTH",
"223 712 OFFCURVE",
"133 640 OFFCURVE",
"133 533 CURVE SMOOTH",
"133 437 OFFCURVE",
"185 373 OFFCURVE",
"300 335 CURVE SMOOTH",
"416 298 OFFCURVE",
"448 253 OFFCURVE",
"448 188 CURVE SMOOTH",
"448 104 OFFCURVE",
"380 52 OFFCURVE",
"278 52 CURVE SMOOTH",
"174 52 OFFCURVE",
"121 118 OFFCURVE",
"134 211 CURVE",
"61 211 LINE",
"49 92 OFFCURVE",
"121 -12 OFFCURVE",
"271 -12 CURVE SMOOTH"
);
}
);
width = 600;
},
{
anchors = (
{
name = bottom;
position = "{256, 0}";
},
{
name = top;
position = "{380, 700}";
}
);
layerId = "80A0AA5A-C5CE-4148-884B-17CEBCBED218";
paths = (
{
closed = 1;
nodes = (
"430 -12 OFFCURVE",
"534 68 OFFCURVE",
"534 208 CURVE SMOOTH",
"534 311 OFFCURVE",
"465 364 OFFCURVE",
"374 397 CURVE SMOOTH",
"271 436 OFFCURVE",
"234 465 OFFCURVE",
"234 524 CURVE SMOOTH",
"234 579 OFFCURVE",
"283 617 OFFCURVE",
"355 617 CURVE SMOOTH",
"422 617 OFFCURVE",
"467 574 OFFCURVE",
"463 514 CURVE",
"575 514 LINE",
"580 637 OFFCURVE",
"503 712 OFFCURVE",
"368 712 CURVE SMOOTH",
"222 712 OFFCURVE",
"121 641 OFFCURVE",
"121 519 CURVE SMOOTH",
"121 425 OFFCURVE",
"171 363 OFFCURVE",
"277 324 CURVE SMOOTH",
"394 282 OFFCURVE",
"419 247 OFFCURVE",
"419 195 CURVE SMOOTH",
"419 123 OFFCURVE",
"364 83 OFFCURVE",
"280 83 CURVE SMOOTH",
"198 83 OFFCURVE",
"154 138 OFFCURVE",
"163 211 CURVE",
"51 211 LINE",
"47 85 OFFCURVE",
"115 -12 OFFCURVE",
"281 -12 CURVE SMOOTH"
);
}
);
width = 600;
}
);
unicode = 0053;
},
{
glyphname = Schwa;
lastChange = "2020-03-04 08:54:38 +0000";
layers = (
{
anchors = (
{
name = bottom;
position = "{269, 0}";
},
{
name = top;
position = "{375, 700}";
}
);
layerId = "7BD5169A-FC8C-41E9-B364-539909E84211";
paths = (
{
closed = 1;
nodes = (
"464 -12 OFFCURVE",
"592 172 OFFCURVE",
"592 421 CURVE SMOOTH",
"592 590 OFFCURVE",
"513 712 OFFCURVE",
"366 712 CURVE SMOOTH",
"217 712 OFFCURVE",
"134 622 OFFCURVE",
"104 515 CURVE",
"176 515 LINE",
"204 596 OFFCURVE",
"267 646 OFFCURVE",
"358 646 CURVE SMOOTH",
"451 646 OFFCURVE",
"521 560 OFFCURVE",
"521 410 CURVE SMOOTH",
"521 196 OFFCURVE",
"410 52 OFFCURVE",
"277 52 CURVE SMOOTH",
"170 52 OFFCURVE",
"122 129 OFFCURVE",
"122 233 CURVE SMOOTH",
"122 256 OFFCURVE",
"125 281 OFFCURVE",
"130 309 CURVE",
"529 309 LINE",
"540 375 LINE",
"68 375 LINE",
"57 341 OFFCURVE",
"51 290 OFFCURVE",
"51 250 CURVE SMOOTH",
"51 104 OFFCURVE",
"117 -12 OFFCURVE",
"272 -12 CURVE SMOOTH"
);
}
);
width = 600;
},
{
anchors = (
{
name = bottom;
position = "{265, 0}";
},
{
name = top;
position = "{382, 700}";
}
);
layerId = "80A0AA5A-C5CE-4148-884B-17CEBCBED218";
paths = (
{
closed = 1;
nodes = (
"481 -12 OFFCURVE",
"599 186 OFFCURVE",
"599 417 CURVE SMOOTH",
"599 601 OFFCURVE",
"509 712 OFFCURVE",
"364 712 CURVE SMOOTH",
"207 712 OFFCURVE",
"120 617 OFFCURVE",
"92 498 CURVE",
"201 498 LINE",
"224 570 OFFCURVE",
"278 612 OFFCURVE",
"351 612 CURVE SMOOTH",
"434 612 OFFCURVE",
"491 535 OFFCURVE",
"491 408 CURVE SMOOTH",
"491 213 OFFCURVE",
"403 87 OFFCURVE",
"278 87 CURVE SMOOTH",
"194 87 OFFCURVE",
"151 146 OFFCURVE",
"151 235 CURVE SMOOTH",
"151 254 OFFCURVE",
"153 274 OFFCURVE",
"157 296 CURVE",
"508 296 LINE",
"523 384 LINE",
"65 384 LINE",
"53 347 OFFCURVE",
"44 297 OFFCURVE",
"44 249 CURVE SMOOTH",
"44 93 OFFCURVE",
"120 -12 OFFCURVE",
"265 -12 CURVE SMOOTH"
);
}
);
width = 600;
}
);
unicode = 018F;
},
{
glyphname = T;
lastChange = "2020-03-04 08:54:38 +0000";
layers = (
{
anchors = (
{
name = bottom;
position = "{256, 0}";
},
{
name = center;
position = "{318, 350}";
},
{
name = top;
position = "{380, 700}";
}
);
layerId = "7BD5169A-FC8C-41E9-B364-539909E84211";
paths = (
{
closed = 1;
nodes = (
"291 0 LINE",
"415 700 LINE",
"345 700 LINE",
"221 0 LINE"
);
},
{
closed = 1;
nodes = (
"591 636 LINE",
"603 700 LINE",
"157 700 LINE",
"145 636 LINE"
);
}
);
width = 600;
},
{
anchors = (
{
name = bottom;
position = "{256, 0}";
},
{
name = center;
position = "{318, 350}";
},
{
name = top;
position = "{380, 700}";
}
);
layerId = "80A0AA5A-C5CE-4148-884B-17CEBCBED218";
paths = (
{
closed = 1;
nodes = (
"309 0 LINE",
"433 700 LINE",
"327 700 LINE",
"203 0 LINE"
);
},
{
closed = 1;
nodes = (
"604 605 LINE",
"621 700 LINE",
"139 700 LINE",
"122 605 LINE"
);
}
);
width = 600;
}
);
unicode = 0054;
},
{
glyphname = U;
lastChange = "2020-03-04 08:54:38 +0000";
layers = (
{
anchors = (
{
name = bottom;
position = "{256, 0}";
},
{
name = ogonek;
position = "{338, 0}";
},
{
name = top;
position = "{380, 700}";
},
{
name = topright;
position = "{660, 700}";
}
);
layerId = "7BD5169A-FC8C-41E9-B364-539909E84211";
paths = (
{
closed = 1;
nodes = (
"410 -12 OFFCURVE",
"508 70 OFFCURVE",
"541 255 CURVE SMOOTH",
"620 700 LINE",
"550 700 LINE",
"471 254 LINE SMOOTH",
"447 119 OFFCURVE",
"373 52 OFFCURVE",
"267 52 CURVE SMOOTH",
"166 52 OFFCURVE",
"108 124 OFFCURVE",
"131 254 CURVE SMOOTH",
"210 700 LINE",
"140 700 LINE",
"61 255 LINE SMOOTH",
"31 85 OFFCURVE",
"132 -12 OFFCURVE",
"257 -12 CURVE SMOOTH"
);
}
);
width = 600;
},
{
anchors = (
{
name = bottom;
position = "{256, 0}";
},
{
name = ogonek;
position = "{340, 0}";
},
{
name = top;
position = "{380, 700}";
},
{
name = topright;
position = "{660, 700}";
}
);
layerId = "80A0AA5A-C5CE-4148-884B-17CEBCBED218";
paths = (
{
closed = 1;
nodes = (
"408 -12 OFFCURVE",
"515 62 OFFCURVE",
"548 251 CURVE SMOOTH",
"628 700 LINE",
"522 700 LINE",
"442 250 LINE SMOOTH",
"423 137 OFFCURVE",
"361 83 OFFCURVE",
"271 83 CURVE SMOOTH",
"186 83 OFFCURVE",
"140 143 OFFCURVE",
"158 250 CURVE SMOOTH",
"238 700 LINE",
"132 700 LINE",
"53 256 LINE SMOOTH",
"24 94 OFFCURVE",
"120 -12 OFFCURVE",
"261 -12 CURVE SMOOTH"
);
}
);
width = 600;
}
);
unicode = 0055;
},
{
glyphname = V;
lastChange = "2020-03-04 08:54:38 +0000";
layers = (
{
anchors = (
{
name = bottom;
position = "{256, 0}";
},
{
name = top;
position = "{380, 700}";
}
);
layerId = "7BD5169A-FC8C-41E9-B364-539909E84211";
paths = (
{
closed = 1;
nodes = (
"298 0 LINE",
"650 700 LINE",
"568 700 LINE",
"268 87 LINE",
"184 700 LINE",
"110 700 LINE",
"214 0 LINE"
);
}
);
width = 600;
},
{
anchors = (
{
name = bottom;
position = "{256, 0}";
},
{
name = top;
position = "{380, 700}";
}
);
layerId = "80A0AA5A-C5CE-4148-884B-17CEBCBED218";
paths = (
{
closed = 1;
nodes = (
"322 0 LINE",
"659 700 LINE",
"539 700 LINE",
"277 139 LINE",
"213 700 LINE",
"101 700 LINE",
"193 0 LINE"
);
}
);
width = 600;
}
);
unicode = 0056;
},
{
glyphname = W;
lastChange = "2020-03-04 08:54:38 +0000";
layers = (
{
anchors = (
{
name = bottom;
position = "{256, 0}";
},
{
name = top;
position = "{380, 700}";
}
);
layerId = "7BD5169A-FC8C-41E9-B364-539909E84211";
paths = (
{
closed = 1;
nodes = (
"153 0 LINE",
"357 570 LINE",
"361 0 LINE",
"442 0 LINE",
"677 700 LINE",
"604 700 LINE",
"425 140 LINE",
"415 700 LINE",
"339 700 LINE",
"137 144 LINE",
"154 700 LINE",
"83 700 LINE",
"72 0 LINE"
);
}
);
width = 600;
},
{
anchors = (
{
name = bottom;
position = "{256, 0}";
},
{
name = top;
position = "{380, 700}";
}
);
layerId = "80A0AA5A-C5CE-4148-884B-17CEBCBED218";
paths = (
{
closed = 1;
nodes = (
"177 0 LINE",
"346 495 LINE",
"336 0 LINE",
"462 0 LINE",
"679 700 LINE",
"576 700 LINE",
"428 189 LINE",
"429 700 LINE",
"327 700 LINE",
"152 192 LINE",
"183 700 LINE",
"81 700 LINE",
"55 0 LINE"
);
}
);
width = 600;
}
);
unicode = 0057;
},
{
glyphname = X;
lastChange = "2020-03-04 08:54:38 +0000";
layers = (
{
anchors = (
{
name = bottom;
position = "{256, 0}";
},
{
name = top;
position = "{380, 700}";
}
);
layerId = "7BD5169A-FC8C-41E9-B364-539909E84211";
paths = (
{
closed = 1;
nodes = (
"507 0 LINE",
"204 700 LINE",
"128 700 LINE",
"432 0 LINE"
);
},
{
closed = 1;
nodes = (
"91 0 LINE",
"325 313 LINE",
"288 371 LINE",
"4 0 LINE"
);
},
{
closed = 1;
nodes = (
"632 700 LINE",
"549 700 LINE",
"306 385 LINE",
"344 330 LINE"
);
}
);
width = 600;
},
{
anchors = (
{
name = bottom;
position = "{256, 0}";
},
{
name = top;
position = "{380, 700}";
}
);
layerId = "80A0AA5A-C5CE-4148-884B-17CEBCBED218";
paths = (
{
closed = 1;
nodes = (
"527 0 LINE",
"228 700 LINE",
"109 700 LINE",
"410 0 LINE"
);
},
{
closed = 1;
nodes = (
"115 0 LINE",
"328 291 LINE",
"276 382 LINE",
"-13 0 LINE"
);
},
{
closed = 1;
nodes = (
"649 700 LINE",
"522 700 LINE",
"306 410 LINE",
"357 320 LINE"
);
}
);
width = 600;
}
);
unicode = 0058;
},
{
glyphname = Y;
lastChange = "2020-03-04 08:54:38 +0000";
layers = (
{
anchors = (
{
name = bottom;
position = "{256, 0}";
},
{
name = top;
position = "{380, 700}";
},
{
name = topleft;
position = "{100, 700}";
}
);
layerId = "7BD5169A-FC8C-41E9-B364-539909E84211";
paths = (
{
closed = 1;
nodes = (
"291 0 LINE",
"341 280 LINE",
"640 700 LINE",
"555 700 LINE",
"317 355 LINE",
"195 700 LINE",
"120 700 LINE",
"271 280 LINE",
"221 0 LINE"
);
}
);
width = 600;
},
{
anchors = (
{
name = bottom;
position = "{256, 0}";
},
{
name = top;
position = "{380, 700}";
},
{
name = topleft;
position = "{100, 700}";
}
);
layerId = "80A0AA5A-C5CE-4148-884B-17CEBCBED218";
paths = (
{
closed = 1;
nodes = (
"309 0 LINE",
"357 266 LINE",
"664 700 LINE",
"537 700 LINE",
"319 384 LINE",
"211 700 LINE",
"96 700 LINE",
"251 266 LINE",
"203 0 LINE"
);
}
);
width = 600;
}
);
unicode = 0059;
},
{
glyphname = Z;
lastChange = "2020-03-04 08:54:38 +0000";
layers = (
{
anchors = (
{
name = bottom;
position = "{256, 0}";
},
{
name = center;
position = "{318, 350}";
},
{
name = top;
position = "{380, 700}";
}
);
layerId = "7BD5169A-FC8C-41E9-B364-539909E84211";
paths = (
{
closed = 1;
nodes = (
"484 0 LINE",
"496 64 LINE",
"127 64 LINE",
"592 642 LINE",
"603 700 LINE",
"159 700 LINE",
"147 636 LINE",
"505 636 LINE",
"40 58 LINE",
"29 0 LINE"
);
}
);
width = 600;
},
{
anchors = (
{
name = bottom;
position = "{256, 0}";
},
{
name = center;
position = "{318, 350}";
},
{
name = top;
position = "{380, 700}";
}
);
layerId = "80A0AA5A-C5CE-4148-884B-17CEBCBED218";
paths = (
{
closed = 1;
nodes = (
"495 0 LINE",
"512 95 LINE",
"166 95 LINE",
"599 613 LINE",
"615 700 LINE",
"147 700 LINE",
"130 605 LINE",
"467 605 LINE",
"34 87 LINE",
"18 0 LINE"
);
}
);
width = 600;
}
);
unicode = 005A;
},
{
glyphname = a;
lastChange = "2020-03-04 08:54:38 +0000";
layers = (
{
anchors = (
{
name = bottom;
position = "{256, 0}";
},
{
name = ogonek;
position = "{532, 0}";
},
{
name = top;
position = "{321, 496}";
}
);
layerId = "7BD5169A-FC8C-41E9-B364-539909E84211";
paths = (
{
closed = 1;
nodes = (
"312 -12 OFFCURVE",
"364 23 OFFCURVE",
"399 79 CURVE",
"405 79 LINE",
"405 53 LINE SMOOTH",
"405 16 OFFCURVE",
"424 0 OFFCURVE",
"455 0 CURVE SMOOTH",
"532 0 LINE",
"543 60 LINE",
"491 60 LINE SMOOTH",
"475 60 OFFCURVE",
"467 68 OFFCURVE",
"470 85 CURVE SMOOTH",
"543 496 LINE",
"472 496 LINE",
"459 420 LINE",
"443 465 OFFCURVE",
"393 508 OFFCURVE",
"316 508 CURVE SMOOTH",
"141 508 OFFCURVE",
"45 370 OFFCURVE",
"45 214 CURVE SMOOTH",
"45 71 OFFCURVE",
"125 -12 OFFCURVE",
"231 -12 CURVE SMOOTH"
);
},
{
closed = 1;
nodes = (
"166 54 OFFCURVE",
"117 115 OFFCURVE",
"117 224 CURVE SMOOTH",
"117 335 OFFCURVE",
"187 442 OFFCURVE",
"310 442 CURVE SMOOTH",
"385 442 OFFCURVE",
"433 391 OFFCURVE",
"433 286 CURVE SMOOTH",
"433 169 OFFCURVE",
"367 54 OFFCURVE",
"246 54 CURVE SMOOTH"
);
}
);
width = 600;
},
{
anchors = (
{
name = bottom;
position = "{256, 0}";
},
{
name = ogonek;
position = "{544, 0}";
},
{
name = top;
position = "{330, 496}";
}
);
layerId = "80A0AA5A-C5CE-4148-884B-17CEBCBED218";
paths = (
{
closed = 1;
nodes = (
"301 -12 OFFCURVE",
"349 22 OFFCURVE",
"377 75 CURVE",
"383 75 LINE",
"383 65 LINE",
"383 28 OFFCURVE",
"407 0 OFFCURVE",
"451 0 CURVE SMOOTH",
"544 0 LINE",
"561 92 LINE",
"519 92 LINE SMOOTH",
"497 92 OFFCURVE",
"486 102 OFFCURVE",
"490 127 CURVE",
"556 496 LINE",
"449 496 LINE",
"438 432 LINE",
"421 473 OFFCURVE",
"374 508 OFFCURVE",
"300 508 CURVE SMOOTH",
"124 508 OFFCURVE",
"32 367 OFFCURVE",
"32 216 CURVE SMOOTH",
"32 67 OFFCURVE",
"116 -12 OFFCURVE",
"222 -12 CURVE SMOOTH"
);
},
{
closed = 1;
nodes = (
"190 89 OFFCURVE",
"142 139 OFFCURVE",
"142 226 CURVE SMOOTH",
"142 321 OFFCURVE",
"200 407 OFFCURVE",
"303 407 CURVE SMOOTH",
"368 407 OFFCURVE",
"413 362 OFFCURVE",
"413 279 CURVE SMOOTH",
"413 181 OFFCURVE",
"360 89 OFFCURVE",
"256 89 CURVE SMOOTH"
);
}
);
width = 600;
}
);
unicode = 0061;
},
{
glyphname = ae;
lastChange = "2020-03-04 08:54:38 +0000";
layers = (
{
anchors = (
{
name = bottom;
position = "{256, 0}";
},
{
name = top;
position = "{344, 496}";
}
);
layerId = "7BD5169A-FC8C-41E9-B364-539909E84211";
paths = (
{
closed = 1;
nodes = (
"180 -12 OFFCURVE",
"208 4 OFFCURVE",
"235 42 CURVE",
"228 0 LINE",
"293 0 LINE",
"300 42 LINE",
"314 4 OFFCURVE",
"349 -12 OFFCURVE",
"387 -12 CURVE SMOOTH",
"475 -12 OFFCURVE",
"528 59 OFFCURVE",
"549 149 CURVE",
"481 149 LINE",
"461 85 OFFCURVE",
"436 54 OFFCURVE",
"394 54 CURVE SMOOTH",
"355 54 OFFCURVE",
"331 89 OFFCURVE",
"331 162 CURVE SMOOTH",
"331 183 OFFCURVE",
"333 206 OFFCURVE",
"337 233 CURVE",
"570 233 LINE",
"579 270 OFFCURVE",
"589 328 OFFCURVE",
"589 366 CURVE SMOOTH",
"589 456 OFFCURVE",
"551 508 OFFCURVE",
"480 508 CURVE SMOOTH",
"438 508 OFFCURVE",
"399 490 OFFCURVE",
"372 448 CURVE",
"381 496 LINE",
"316 496 LINE",
"309 456 LINE",
"291 492 OFFCURVE",
"261 508 OFFCURVE",
"224 508 CURVE SMOOTH",
"85 508 OFFCURVE",
"16 342 OFFCURVE",
"16 175 CURVE SMOOTH",
"16 59 OFFCURVE",
"65 -12 OFFCURVE",
"137 -12 CURVE SMOOTH"
);
},
{
closed = 1;
nodes = (
"114 54 OFFCURVE",
"88 93 OFFCURVE",
"88 177 CURVE SMOOTH",
"88 310 OFFCURVE",
"132 442 OFFCURVE",
"218 442 CURVE SMOOTH",
"258 442 OFFCURVE",
"280 406 OFFCURVE",
"280 329 CURVE SMOOTH",
"280 200 OFFCURVE",
"235 54 OFFCURVE",
"152 54 CURVE SMOOTH"
);
},
{
closed = 1;
nodes = (
"369 392 OFFCURVE",
"416 444 OFFCURVE",
"462 444 CURVE SMOOTH",
"498 444 OFFCURVE",
"519 410 OFFCURVE",
"519 348 CURVE SMOOTH",
"519 333 OFFCURVE",
"518 316 OFFCURVE",
"515 297 CURVE",
"350 297 LINE"
);
}
);
width = 600;
},
{
anchors = (
{
name = bottom;
position = "{264, 0}";
},
{
name = top;
position = "{352, 496}";
}
);
layerId = "80A0AA5A-C5CE-4148-884B-17CEBCBED218";
paths = (
{
closed = 1;
nodes = (
"171 -12 OFFCURVE",
"198 2 OFFCURVE",
"224 33 CURVE",
"218 0 LINE",
"310 0 LINE",
"316 33 LINE",
"329 3 OFFCURVE",
"362 -12 OFFCURVE",
"396 -12 CURVE SMOOTH",
"481 -12 OFFCURVE",
"530 53 OFFCURVE",
"553 156 CURVE",
"458 156 LINE",
"445 109 OFFCURVE",
"427 83 OFFCURVE",
"395 83 CURVE SMOOTH",
"367 83 OFFCURVE",
"348 111 OFFCURVE",
"348 164 CURVE SMOOTH",
"348 182 OFFCURVE",
"350 201 OFFCURVE",
"354 223 CURVE",
"575 223 LINE",
"585 267 OFFCURVE",
"595 322 OFFCURVE",
"595 365 CURVE SMOOTH",
"595 452 OFFCURVE",
"562 508 OFFCURVE",
"488 508 CURVE SMOOTH",
"450 508 OFFCURVE",
"414 491 OFFCURVE",
"391 459 CURVE",
"398 496 LINE",
"306 496 LINE",
"300 462 LINE",
"284 493 OFFCURVE",
"259 508 OFFCURVE",
"220 508 CURVE SMOOTH",
"81 508 OFFCURVE",
"10 333 OFFCURVE",
"10 179 CURVE SMOOTH",
"10 61 OFFCURVE",
"56 -12 OFFCURVE",
"131 -12 CURVE SMOOTH"
);
},
{
closed = 1;
nodes = (
"131 84 OFFCURVE",
"112 116 OFFCURVE",
"112 186 CURVE SMOOTH",
"112 288 OFFCURVE",
"152 412 OFFCURVE",
"220 412 CURVE SMOOTH",
"253 412 OFFCURVE",
"270 382 OFFCURVE",
"270 314 CURVE SMOOTH",
"270 216 OFFCURVE",
"229 84 OFFCURVE",
"163 84 CURVE SMOOTH"
);
},
{
closed = 1;
nodes = (
"388 376 OFFCURVE",
"420 416 OFFCURVE",
"455 416 CURVE SMOOTH",
"480 416 OFFCURVE",
"497 394 OFFCURVE",
"497 346 CURVE SMOOTH",
"497 334 OFFCURVE",
"496 320 OFFCURVE",
"494 304 CURVE",
"370 304 LINE"
);
}
);
width = 600;
}
);
unicode = 00E6;
},
{
glyphname = b;
lastChange = "2020-03-04 08:54:38 +0000";
layers = (
{
anchors = (
{
name = bottom;
position = "{258, 0}";
},
{
name = top;
position = "{203, 720}";
}
);
layerId = "7BD5169A-FC8C-41E9-B364-539909E84211";
paths = (
{
closed = 1;
nodes = (
"439 -12 OFFCURVE",
"537 129 OFFCURVE",
"537 288 CURVE SMOOTH",
"537 421 OFFCURVE",
"468 508 OFFCURVE",
"358 508 CURVE SMOOTH",
"283 508 OFFCURVE",
"220 475 OFFCURVE",
"186 428 CURVE",
"238 720 LINE",
"168 720 LINE",
"41 0 LINE",
"95 0 LINE",
"120 87 LINE",
"126 87 LINE",
"144 32 OFFCURVE",
"194 -12 OFFCURVE",
"273 -12 CURVE SMOOTH"
);
},
{
closed = 1;
nodes = (
"203 54 OFFCURVE",
"149 105 OFFCURVE",
"149 211 CURVE SMOOTH",
"149 327 OFFCURVE",
"214 442 OFFCURVE",
"340 442 CURVE SMOOTH",
"419 442 OFFCURVE",
"465 385 OFFCURVE",
"465 282 CURVE SMOOTH",
"465 159 OFFCURVE",
"404 54 OFFCURVE",
"278 54 CURVE SMOOTH"
);
}
);
width = 600;
},
{
anchors = (
{
name = bottom;
position = "{258, 0}";
},
{
name = top;
position = "{203, 720}";
}
);
associatedMasterId = "7BD5169A-FC8C-41E9-B364-539909E84211";
layerId = "0F1F6A6F-36E6-45B1-9925-F1AE1CE1C5AC";
name = "Mar 2 20, 13:48";
paths = (
{
closed = 1;
nodes = (
"449 -12 OFFCURVE",
"547 129 OFFCURVE",
"547 288 CURVE SMOOTH",
"547 421 OFFCURVE",
"478 508 OFFCURVE",
"368 508 CURVE SMOOTH",
"293 508 OFFCURVE",
"230 475 OFFCURVE",
"196 428 CURVE",
"234 638 LINE SMOOTH",
"244 695 OFFCURVE",
"223 720 OFFCURVE",
"171 720 CURVE SMOOTH",
"91 720 LINE",
"81 660 LINE",
"148 660 LINE SMOOTH",
"161 660 OFFCURVE",
"166 653 OFFCURVE",
"164 640 CURVE SMOOTH",
"51 0 LINE",
"105 0 LINE",
"130 87 LINE",
"136 87 LINE",
"154 32 OFFCURVE",
"204 -12 OFFCURVE",
"283 -12 CURVE SMOOTH"
);
},
{
closed = 1;
nodes = (
"213 54 OFFCURVE",
"159 105 OFFCURVE",
"159 211 CURVE SMOOTH",
"159 327 OFFCURVE",
"224 442 OFFCURVE",
"350 442 CURVE SMOOTH",
"429 442 OFFCURVE",
"475 385 OFFCURVE",
"475 282 CURVE SMOOTH",
"475 159 OFFCURVE",
"414 54 OFFCURVE",
"288 54 CURVE SMOOTH"
);
}
);
width = 600;
},
{
anchors = (
{
name = bottom;
position = "{257, 0}";
},
{
name = top;
position = "{207, 720}";
}
);
layerId = "80A0AA5A-C5CE-4148-884B-17CEBCBED218";
paths = (
{
closed = 1;
nodes = (
"450 -12 OFFCURVE",
"550 124 OFFCURVE",
"550 284 CURVE SMOOTH",
"550 424 OFFCURVE",
"470 508 OFFCURVE",
"365 508 CURVE SMOOTH",
"294 508 OFFCURVE",
"240 478 OFFCURVE",
"211 442 CURVE",
"260 720 LINE",
"154 720 LINE",
"27 0 LINE",
"119 0 LINE",
"140 76 LINE",
"146 76 LINE",
"169 23 OFFCURVE",
"213 -12 OFFCURVE",
"289 -12 CURVE SMOOTH"
);
},
{
closed = 1;
nodes = (
"215 89 OFFCURVE",
"169 133 OFFCURVE",
"169 220 CURVE SMOOTH",
"169 318 OFFCURVE",
"227 407 OFFCURVE",
"331 407 CURVE SMOOTH",
"397 407 OFFCURVE",
"440 361 OFFCURVE",
"440 277 CURVE SMOOTH",
"440 177 OFFCURVE",
"385 89 OFFCURVE",
"279 89 CURVE SMOOTH"
);
}
);
width = 600;
}
);
unicode = 0062;
},
{
glyphname = c;
lastChange = "2020-03-04 08:54:38 +0000";
layers = (
{
anchors = (
{
name = bottom;
position = "{264, 0}";
},
{
name = top;
position = "{352, 496}";
}
);
layerId = "7BD5169A-FC8C-41E9-B364-539909E84211";
paths = (
{
closed = 1;
nodes = (
"388 -12 OFFCURVE",
"460 31 OFFCURVE",
"502 152 CURVE",
"429 152 LINE",
"405 89 OFFCURVE",
"360 53 OFFCURVE",
"282 53 CURVE SMOOTH",
"205 53 OFFCURVE",
"145 111 OFFCURVE",
"145 224 CURVE SMOOTH",
"145 331 OFFCURVE",
"219 442 OFFCURVE",
"338 442 CURVE SMOOTH",
"411 442 OFFCURVE",
"459 404 OFFCURVE",
"466 344 CURVE",
"536 344 LINE",
"529 439 OFFCURVE",
"460 508 OFFCURVE",
"348 508 CURVE SMOOTH",
"176 508 OFFCURVE",
"72 369 OFFCURVE",
"72 216 CURVE SMOOTH",
"72 76 OFFCURVE",
"158 -12 OFFCURVE",
"275 -12 CURVE SMOOTH"
);
}
);
width = 600;
},
{
anchors = (
{
name = bottom;
position = "{263, 0}";
},
{
name = top;
position = "{351, 496}";
}
);
layerId = "80A0AA5A-C5CE-4148-884B-17CEBCBED218";
paths = (
{
closed = 1;
nodes = (
"407 -12 OFFCURVE",
"485 47 OFFCURVE",
"521 166 CURVE",
"409 166 LINE",
"387 118 OFFCURVE",
"348 87 OFFCURVE",
"285 87 CURVE SMOOTH",
"222 87 OFFCURVE",
"171 135 OFFCURVE",
"171 225 CURVE SMOOTH",
"171 324 OFFCURVE",
"236 408 OFFCURVE",
"332 408 CURVE SMOOTH",
"394 408 OFFCURVE",
"433 378 OFFCURVE",
"439 330 CURVE",
"550 330 LINE",
"543 438 OFFCURVE",
"469 508 OFFCURVE",
"343 508 CURVE SMOOTH",
"177 508 OFFCURVE",
"63 385 OFFCURVE",
"63 218 CURVE SMOOTH",
"63 78 OFFCURVE",
"149 -12 OFFCURVE",
"282 -12 CURVE SMOOTH"
);
}
);
width = 600;
}
);
unicode = 0063;
},
{
glyphname = d;
lastChange = "2020-03-04 08:54:38 +0000";
layers = (
{
anchors = (
{
name = bottom;
position = "{256, 0}";
},
{
name = center;
position = "{300, 248}";
},
{
name = top;
position = "{547, 720}";
},
{
name = topright;
position = "{543, 496}";
}
);
layerId = "7BD5169A-FC8C-41E9-B364-539909E84211";
paths = (
{
closed = 1;
nodes = (
"312 -12 OFFCURVE",
"364 23 OFFCURVE",
"399 79 CURVE",
"405 79 LINE",
"405 53 LINE SMOOTH",
"405 16 OFFCURVE",
"424 0 OFFCURVE",
"455 0 CURVE SMOOTH",
"532 0 LINE",
"543 60 LINE",
"491 60 LINE SMOOTH",
"475 60 OFFCURVE",
"467 68 OFFCURVE",
"470 85 CURVE SMOOTH",
"582 720 LINE",
"512 720 LINE",
"459 420 LINE",
"443 465 OFFCURVE",
"393 508 OFFCURVE",
"316 508 CURVE SMOOTH",
"141 508 OFFCURVE",
"45 370 OFFCURVE",
"45 214 CURVE SMOOTH",
"45 71 OFFCURVE",
"125 -12 OFFCURVE",
"231 -12 CURVE SMOOTH"
);
},
{
closed = 1;
nodes = (
"166 54 OFFCURVE",
"117 115 OFFCURVE",
"117 224 CURVE SMOOTH",
"117 335 OFFCURVE",
"187 442 OFFCURVE",
"310 442 CURVE SMOOTH",
"385 442 OFFCURVE",
"433 391 OFFCURVE",
"433 286 CURVE SMOOTH",
"433 169 OFFCURVE",
"367 54 OFFCURVE",
"246 54 CURVE SMOOTH"
);
}
);
width = 600;
},
{
anchors = (
{
name = bottom;
position = "{245, 0}";
},
{
name = center;
position = "{289, 248}";
},
{
name = top;
position = "{542, 720}";
},
{
name = topright;
position = "{555, 496}";
}
);
layerId = "80A0AA5A-C5CE-4148-884B-17CEBCBED218";
paths = (
{
closed = 1;
nodes = (
"301 -12 OFFCURVE",
"349 22 OFFCURVE",
"377 75 CURVE",
"383 75 LINE",
"383 65 LINE",
"383 28 OFFCURVE",
"407 0 OFFCURVE",
"451 0 CURVE SMOOTH",
"544 0 LINE",
"561 92 LINE",
"519 92 LINE SMOOTH",
"497 92 OFFCURVE",
"486 102 OFFCURVE",
"490 127 CURVE",
"595 720 LINE",
"489 720 LINE",
"438 432 LINE",
"421 473 OFFCURVE",
"374 508 OFFCURVE",
"300 508 CURVE SMOOTH",
"124 508 OFFCURVE",
"32 367 OFFCURVE",
"32 216 CURVE SMOOTH",
"32 67 OFFCURVE",
"116 -12 OFFCURVE",
"222 -12 CURVE SMOOTH"
);
},
{
closed = 1;
nodes = (
"190 89 OFFCURVE",
"142 139 OFFCURVE",
"142 226 CURVE SMOOTH",
"142 321 OFFCURVE",
"200 407 OFFCURVE",
"303 407 CURVE SMOOTH",
"368 407 OFFCURVE",
"413 362 OFFCURVE",
"413 279 CURVE SMOOTH",
"413 181 OFFCURVE",
"360 89 OFFCURVE",
"256 89 CURVE SMOOTH"
);
}
);
width = 600;
}
);
unicode = 0064;
},
{
glyphname = eth;
lastChange = "2020-03-04 08:54:38 +0000";
layers = (
{
layerId = "7BD5169A-FC8C-41E9-B364-539909E84211";
paths = (
{
closed = 1;
nodes = (
"468 -12 OFFCURVE",
"566 160 OFFCURVE",
"566 338 CURVE SMOOTH",
"566 521 OFFCURVE",
"502 646 OFFCURVE",
"405 720 CURVE",
"315 720 LINE",
"438 609 OFFCURVE",
"473 537 OFFCURVE",
"501 419 CURVE",
"497 419 LINE",
"471 474 OFFCURVE",
"405 508 OFFCURVE",
"335 508 CURVE SMOOTH",
"154 508 OFFCURVE",
"60 364 OFFCURVE",
"60 213 CURVE SMOOTH",
"60 81 OFFCURVE",
"144 -12 OFFCURVE",
"277 -12 CURVE SMOOTH"
);
},
{
closed = 1;
nodes = (
"192 52 OFFCURVE",
"132 117 OFFCURVE",
"132 225 CURVE SMOOTH",
"132 337 OFFCURVE",
"212 444 OFFCURVE",
"334 444 CURVE SMOOTH",
"422 444 OFFCURVE",
"486 378 OFFCURVE",
"486 281 CURVE SMOOTH",
"486 156 OFFCURVE",
"397 52 OFFCURVE",
"282 52 CURVE SMOOTH"
);
},
{
closed = 1;
nodes = (
"586 648 LINE",
"596 708 LINE",
"267 606 LINE",
"257 546 LINE"
);
}
);
width = 600;
},
{
layerId = "80A0AA5A-C5CE-4148-884B-17CEBCBED218";
paths = (
{
closed = 1;
nodes = (
"480 -12 OFFCURVE",
"580 153 OFFCURVE",
"580 356 CURVE SMOOTH",
"580 520 OFFCURVE",
"524 639 OFFCURVE",
"436 720 CURVE",
"314 720 LINE",
"408 634 OFFCURVE",
"462 544 OFFCURVE",
"485 431 CURVE",
"478 431 LINE",
"447 480 OFFCURVE",
"387 505 OFFCURVE",
"320 505 CURVE SMOOTH",
"147 505 OFFCURVE",
"52 365 OFFCURVE",
"52 217 CURVE SMOOTH",
"52 83 OFFCURVE",
"138 -12 OFFCURVE",
"281 -12 CURVE SMOOTH"
);
},
{
closed = 1;
nodes = (
"212 88 OFFCURVE",
"161 141 OFFCURVE",
"161 227 CURVE SMOOTH",
"161 321 OFFCURVE",
"227 405 OFFCURVE",
"331 405 CURVE SMOOTH",
"405 405 OFFCURVE",
"459 354 OFFCURVE",
"459 271 CURVE SMOOTH",
"459 171 OFFCURVE",
"388 88 OFFCURVE",
"287 88 CURVE SMOOTH"
);
},
{
closed = 1;
nodes = (
"592 634 LINE",
"605 710 LINE",
"289 613 LINE",
"276 537 LINE"
);
}
);
width = 600;
}
);
unicode = 00F0;
},
{
glyphname = dcroat;
lastChange = "2020-03-04 08:54:38 +0000";
layers = (
{
components = (
{
name = d;
}
);
layerId = "7BD5169A-FC8C-41E9-B364-539909E84211";
paths = (
{
closed = 1;
nodes = (
"644 594 LINE",
"654 654 LINE",
"343 654 LINE",
"333 594 LINE"
);
}
);
width = 600;
},
{
components = (
{
alignment = -1;
name = d;
}
);
layerId = "80A0AA5A-C5CE-4148-884B-17CEBCBED218";
paths = (
{
closed = 1;
nodes = (
"646 575 LINE",
"661 660 LINE",
"335 660 LINE",
"320 575 LINE"
);
}
);
width = 600;
}
);
unicode = 0111;
},
{
glyphname = e;
lastChange = "2020-03-04 08:54:38 +0000";
layers = (
{
anchors = (
{
name = bottom;
position = "{268, 0}";
},
{
name = ogonek;
position = "{354, 0}";
},
{
name = top;
position = "{344, 496}";
}
);
layerId = "7BD5169A-FC8C-41E9-B364-539909E84211";
paths = (
{
closed = 1;
nodes = (
"395 -12 OFFCURVE",
"466 54 OFFCURVE",
"500 149 CURVE",
"432 149 LINE",
"404 90 OFFCURVE",
"352 54 OFFCURVE",
"277 54 CURVE SMOOTH",
"196 54 OFFCURVE",
"133 110 OFFCURVE",
"133 227 CURVE SMOOTH",
"133 348 OFFCURVE",
"210 444 OFFCURVE",
"333 444 CURVE SMOOTH",
"419 444 OFFCURVE",
"473 399 OFFCURVE",
"473 321 CURVE SMOOTH",
"473 313 OFFCURVE",
"473 305 OFFCURVE",
"472 297 CURVE",
"132 297 LINE",
"120 233 LINE",
"527 233 LINE",
"533 253 OFFCURVE",
"539 291 OFFCURVE",
"539 314 CURVE SMOOTH",
"539 420 OFFCURVE",
"477 508 OFFCURVE",
"340 508 CURVE SMOOTH",
"181 508 OFFCURVE",
"63 385 OFFCURVE",
"63 222 CURVE SMOOTH",
"63 75 OFFCURVE",
"148 -12 OFFCURVE",
"269 -12 CURVE SMOOTH"
);
}
);
width = 600;
},
{
anchors = (
{
name = bottom;
position = "{264, 0}";
},
{
name = ogonek;
position = "{360, 0}";
},
{
name = top;
position = "{347, 496}";
}
);
layerId = "80A0AA5A-C5CE-4148-884B-17CEBCBED218";
paths = (
{
closed = 1;
nodes = (
"404 -12 OFFCURVE",
"472 54 OFFCURVE",
"511 156 CURVE",
"404 156 LINE",
"382 110 OFFCURVE",
"343 83 OFFCURVE",
"282 83 CURVE SMOOTH",
"210 83 OFFCURVE",
"160 135 OFFCURVE",
"160 227 CURVE SMOOTH",
"160 328 OFFCURVE",
"219 416 OFFCURVE",
"330 416 CURVE SMOOTH",
"400 416 OFFCURVE",
"444 379 OFFCURVE",
"444 314 CURVE",
"444 311 OFFCURVE",
"444 307 OFFCURVE",
"444 304 CURVE",
"149 304 LINE",
"135 223 LINE",
"534 223 LINE",
"542 252 OFFCURVE",
"548 284 OFFCURVE",
"548 313 CURVE SMOOTH",
"548 424 OFFCURVE",
"474 508 OFFCURVE",
"343 508 CURVE SMOOTH",
"168 508 OFFCURVE",
"56 378 OFFCURVE",
"56 221 CURVE SMOOTH",
"56 78 OFFCURVE",
"142 -12 OFFCURVE",
"274 -12 CURVE SMOOTH"
);
}
);
width = 600;
}
);
unicode = 0065;
},
{
glyphname = schwa;
lastChange = "2020-03-04 08:54:38 +0000";
layers = (
{
layerId = "7BD5169A-FC8C-41E9-B364-539909E84211";
paths = (
{
closed = 1;
nodes = (
"411 -12 OFFCURVE",
"529 111 OFFCURVE",
"529 274 CURVE SMOOTH",
"529 419 OFFCURVE",
"445 508 OFFCURVE",
"323 508 CURVE SMOOTH",
"198 508 OFFCURVE",
"118 442 OFFCURVE",
"92 347 CURVE",
"160 347 LINE",
"183 404 OFFCURVE",
"237 442 OFFCURVE",
"314 442 CURVE SMOOTH",
"395 442 OFFCURVE",
"459 386 OFFCURVE",
"459 269 CURVE SMOOTH",
"459 148 OFFCURVE",
"382 52 OFFCURVE",
"266 52 CURVE SMOOTH",
"176 52 OFFCURVE",
"119 100 OFFCURVE",
"119 175 CURVE SMOOTH",
"119 183 OFFCURVE",
"119 191 OFFCURVE",
"120 199 CURVE",
"460 199 LINE",
"472 263 LINE",
"65 263 LINE",
"59 243 OFFCURVE",
"53 213 OFFCURVE",
"53 185 CURVE SMOOTH",
"53 73 OFFCURVE",
"122 -12 OFFCURVE",
"259 -12 CURVE SMOOTH"
);
}
);
width = 600;
},
{
layerId = "80A0AA5A-C5CE-4148-884B-17CEBCBED218";
paths = (
{
closed = 1;
nodes = (
"435 -12 OFFCURVE",
"541 118 OFFCURVE",
"541 275 CURVE SMOOTH",
"541 417 OFFCURVE",
"455 508 OFFCURVE",
"323 508 CURVE SMOOTH",
"196 508 OFFCURVE",
"114 440 OFFCURVE",
"86 340 CURVE",
"193 340 LINE",
"211 385 OFFCURVE",
"254 413 OFFCURVE",
"315 413 CURVE SMOOTH",
"386 413 OFFCURVE",
"437 361 OFFCURVE",
"437 269 CURVE SMOOTH",
"437 168 OFFCURVE",
"378 80 OFFCURVE",
"270 80 CURVE SMOOTH",
"200 80 OFFCURVE",
"153 122 OFFCURVE",
"153 182 CURVE",
"153 185 OFFCURVE",
"153 189 OFFCURVE",
"153 192 CURVE",
"448 192 LINE",
"462 273 LINE",
"63 273 LINE",
"57 252 OFFCURVE",
"51 220 OFFCURVE",
"51 186 CURVE SMOOTH",
"51 75 OFFCURVE",
"130 -12 OFFCURVE",
"261 -12 CURVE SMOOTH"
);
}
);
width = 600;
}
);
unicode = 0259;
},
{
glyphname = f;
lastChange = "2020-03-04 08:54:38 +0000";
layers = (
{
anchors = (
{
name = bottom;
position = "{217, -220}";
},
{
name = top;
position = "{383, 720}";
}
);
layerId = "7BD5169A-FC8C-41E9-B364-539909E84211";
paths = (
{
closed = 1;
nodes = (
"73 -220 LINE SMOOTH",
"179 -220 OFFCURVE",
"222 -179 OFFCURVE",
"239 -82 CURVE SMOOTH",
"357 582 LINE SMOOTH",
"366 635 OFFCURVE",
"390 654 OFFCURVE",
"442 654 CURVE SMOOTH",
"560 654 LINE",
"572 720 LINE",
"453 720 LINE SMOOTH",
"350 720 OFFCURVE",
"304 679 OFFCURVE",
"287 582 CURVE SMOOTH",
"169 -82 LINE SMOOTH",
"160 -135 OFFCURVE",
"136 -154 OFFCURVE",
"84 -154 CURVE SMOOTH",
"36 -154 LINE",
"24 -220 LINE"
);
},
{
closed = 1;
nodes = (
"522 436 LINE",
"532 496 LINE",
"150 496 LINE",
"140 436 LINE"
);
}
);
width = 600;
},
{
anchors = (
{
name = bottom;
position = "{241, -83}";
},
{
name = top;
position = "{383, 720}";
}
);
layerId = "80A0AA5A-C5CE-4148-884B-17CEBCBED218";
paths = (
{
closed = 1;
nodes = (
"80 -220 LINE SMOOTH",
"200 -220 OFFCURVE",
"246 -176 OFFCURVE",
"266 -65 CURVE SMOOTH",
"377 564 LINE SMOOTH",
"385 610 OFFCURVE",
"406 627 OFFCURVE",
"453 627 CURVE SMOOTH",
"561 627 LINE",
"578 720 LINE",
"457 720 LINE SMOOTH",
"347 720 OFFCURVE",
"291 676 OFFCURVE",
"271 565 CURVE SMOOTH",
"160 -64 LINE SMOOTH",
"152 -110 OFFCURVE",
"131 -127 OFFCURVE",
"84 -127 CURVE SMOOTH",
"3 -127 LINE",
"-14 -220 LINE"
);
},
{
closed = 1;
nodes = (
"522 406 LINE",
"538 496 LINE",
"133 496 LINE",
"118 406 LINE"
);
}
);
width = 600;
}
);
unicode = 0066;
},
{
glyphname = g;
lastChange = "2020-03-04 08:54:38 +0000";
layers = (
{
anchors = (
{
name = bottom;
position = "{217, -220}";
},
{
name = top;
position = "{351, 496}";
}
);
layerId = "7BD5169A-FC8C-41E9-B364-539909E84211";
paths = (
{
closed = 1;
nodes = (
"396 -232 OFFCURVE",
"479 -148 OFFCURVE",
"479 -54 CURVE SMOOTH",
"479 34 OFFCURVE",
"410 76 OFFCURVE",
"299 76 CURVE SMOOTH",
"168 76 LINE SMOOTH",
"149 76 OFFCURVE",
"140 85 OFFCURVE",
"140 96 CURVE SMOOTH",
"140 104 OFFCURVE",
"144 113 OFFCURVE",
"152 121 CURVE SMOOTH",
"217 184 LINE",
"163 213 LINE",
"102 154 LINE SMOOTH",
"79 131 OFFCURVE",
"71 107 OFFCURVE",
"71 84 CURVE SMOOTH",
"71 45 OFFCURVE",
"99 14 OFFCURVE",
"144 14 CURVE SMOOTH",
"277 14 LINE SMOOTH",
"376 14 OFFCURVE",
"405 -20 OFFCURVE",
"405 -62 CURVE SMOOTH",
"405 -130 OFFCURVE",
"331 -168 OFFCURVE",
"240 -168 CURVE SMOOTH",
"155 -168 OFFCURVE",
"100 -139 OFFCURVE",
"100 -82 CURVE SMOOTH",
"100 -32 OFFCURVE",
"140 10 OFFCURVE",
"201 31 CURVE",
"147 55 LINE",
"74 23 OFFCURVE",
"28 -22 OFFCURVE",
"28 -91 CURVE SMOOTH",
"28 -184 OFFCURVE",
"110 -232 OFFCURVE",
"229 -232 CURVE SMOOTH"
);
},
{
closed = 1;
nodes = (
"428 148 OFFCURVE",
"520 237 OFFCURVE",
"520 354 CURVE SMOOTH",
"520 435 OFFCURVE",
"459 508 OFFCURVE",
"351 508 CURVE SMOOTH",
"220 508 OFFCURVE",
"131 420 OFFCURVE",
"131 300 CURVE SMOOTH",
"131 220 OFFCURVE",
"190 148 OFFCURVE",
"298 148 CURVE SMOOTH"
);
},
{
closed = 1;
nodes = (
"244 212 OFFCURVE",
"202 250 OFFCURVE",
"202 308 CURVE SMOOTH",
"202 386 OFFCURVE",
"258 444 OFFCURVE",
"344 444 CURVE SMOOTH",
"406 444 OFFCURVE",
"448 405 OFFCURVE",
"448 347 CURVE SMOOTH",
"448 269 OFFCURVE",
"390 212 OFFCURVE",
"305 212 CURVE SMOOTH"
);
},
{
closed = 1;
nodes = (
"505 435 LINE",
"604 438 LINE",
"614 496 LINE",
"409 496 LINE",
"503 419 LINE"
);
}
);
width = 600;
},
{
anchors = (
{
name = bottom;
position = "{222, -220}";
},
{
name = top;
position = "{351, 496}";
}
);
layerId = "80A0AA5A-C5CE-4148-884B-17CEBCBED218";
paths = (
{
closed = 1;
nodes = (
"394 -232 OFFCURVE",
"492 -162 OFFCURVE",
"492 -47 CURVE SMOOTH",
"492 40 OFFCURVE",
"426 86 OFFCURVE",
"321 86 CURVE SMOOTH",
"190 86 LINE SMOOTH",
"173 86 OFFCURVE",
"165 94 OFFCURVE",
"165 104 CURVE SMOOTH",
"165 111 OFFCURVE",
"169 120 OFFCURVE",
"177 128 CURVE SMOOTH",
"238 186 LINE",
"162 219 LINE",
"95 158 LINE SMOOTH",
"72 137 OFFCURVE",
"60 113 OFFCURVE",
"60 85 CURVE SMOOTH",
"60 43 OFFCURVE",
"88 5 OFFCURVE",
"145 5 CURVE SMOOTH",
"287 5 LINE SMOOTH",
"362 5 OFFCURVE",
"389 -19 OFFCURVE",
"389 -56 CURVE SMOOTH",
"389 -112 OFFCURVE",
"329 -144 OFFCURVE",
"241 -144 CURVE SMOOTH",
"166 -144 OFFCURVE",
"119 -119 OFFCURVE",
"119 -71 CURVE SMOOTH",
"119 -31 OFFCURVE",
"153 5 OFFCURVE",
"213 28 CURVE",
"166 63 LINE",
"78 34 OFFCURVE",
"16 -8 OFFCURVE",
"16 -89 CURVE SMOOTH",
"16 -178 OFFCURVE",
"98 -232 OFFCURVE",
"233 -232 CURVE SMOOTH"
);
},
{
closed = 1;
nodes = (
"435 143 OFFCURVE",
"522 230 OFFCURVE",
"522 350 CURVE SMOOTH",
"522 435 OFFCURVE",
"458 508 OFFCURVE",
"349 508 CURVE SMOOTH",
"211 508 OFFCURVE",
"120 422 OFFCURVE",
"120 302 CURVE SMOOTH",
"120 218 OFFCURVE",
"179 143 OFFCURVE",
"296 143 CURVE SMOOTH"
);
},
{
closed = 1;
nodes = (
"253 228 OFFCURVE",
"218 259 OFFCURVE",
"218 312 CURVE SMOOTH",
"218 375 OFFCURVE",
"265 422 OFFCURVE",
"335 422 CURVE SMOOTH",
"388 422 OFFCURVE",
"426 389 OFFCURVE",
"426 342 CURVE SMOOTH",
"426 279 OFFCURVE",
"377 228 OFFCURVE",
"306 228 CURVE SMOOTH"
);
},
{
closed = 1;
nodes = (
"514 421 LINE",
"603 426 LINE",
"615 496 LINE",
"408 496 LINE",
"511 401 LINE"
);
}
);
width = 600;
}
);
unicode = 0067;
},
{
glyphname = h;
lastChange = "2020-03-04 08:54:38 +0000";
layers = (
{
anchors = (
{
name = bottom;
position = "{266, 0}";
},
{
name = center;
position = "{329, 360}";
},
{
name = top;
position = "{215, 720}";
}
);
background = {
paths = (
{
closed = 1;
nodes = (
"127 0 LINE",
"175 277 LINE SMOOTH",
"194 384 OFFCURVE",
"270 442 OFFCURVE",
"353 442 CURVE SMOOTH",
"435 442 OFFCURVE",
"479 387 OFFCURVE",
"463 295 CURVE SMOOTH",
"411 0 LINE",
"481 0 LINE",
"532 292 LINE SMOOTH",
"555 425 OFFCURVE",
"491 508 OFFCURVE",
"370 508 CURVE SMOOTH",
"295 508 OFFCURVE",
"235 471 OFFCURVE",
"201 421 CURVE",
"239 646 LINE SMOOTH",
"247 692 OFFCURVE",
"225 720 OFFCURVE",
"183 720 CURVE SMOOTH",
"106 720 LINE",
"95 660 LINE",
"147 660 LINE SMOOTH",
"163 660 OFFCURVE",
"171 650 OFFCURVE",
"168 635 CURVE SMOOTH",
"57 0 LINE"
);
}
);
};
layerId = "7BD5169A-FC8C-41E9-B364-539909E84211";
paths = (
{
closed = 1;
nodes = (
"127 0 LINE",
"175 277 LINE SMOOTH",
"194 384 OFFCURVE",
"270 442 OFFCURVE",
"353 442 CURVE SMOOTH",
"435 442 OFFCURVE",
"479 387 OFFCURVE",
"463 295 CURVE SMOOTH",
"411 0 LINE",
"481 0 LINE",
"532 292 LINE SMOOTH",
"555 425 OFFCURVE",
"491 508 OFFCURVE",
"370 508 CURVE SMOOTH",
"295 508 OFFCURVE",
"235 471 OFFCURVE",
"201 421 CURVE",
"252 720 LINE",
"182 720 LINE",
"57 0 LINE"
);
}
);
width = 600;
},
{
anchors = (
{
name = bottom;
position = "{261, 0}";
},
{
name = center;
position = "{324, 360}";
},
{
name = top;
position = "{211, 720}";
}
);
layerId = "80A0AA5A-C5CE-4148-884B-17CEBCBED218";
paths = (
{
closed = 1;
nodes = (
"139 0 LINE",
"186 264 LINE SMOOTH",
"202 357 OFFCURVE",
"263 408 OFFCURVE",
"337 408 CURVE SMOOTH",
"410 408 OFFCURVE",
"448 358 OFFCURVE",
"434 278 CURVE SMOOTH",
"385 0 LINE",
"491 0 LINE",
"540 283 LINE SMOOTH",
"564 421 OFFCURVE",
"498 508 OFFCURVE",
"374 508 CURVE SMOOTH",
"302 508 OFFCURVE",
"244 475 OFFCURVE",
"215 432 CURVE",
"265 720 LINE",
"159 720 LINE",
"33 0 LINE"
);
}
);
width = 600;
}
);
unicode = 0068;
},
{
glyphname = i;
lastChange = "2020-03-04 08:54:38 +0000";
layers = (
{
layerId = "7BD5169A-FC8C-41E9-B364-539909E84211";
paths = (
{
closed = 1;
nodes = (
"473 0 LINE",
"483 60 LINE",
"323 60 LINE SMOOTH",
"310 60 OFFCURVE",
"305 67 OFFCURVE",
"307 80 CURVE SMOOTH",
"367 414 LINE SMOOTH",
"377 471 OFFCURVE",
"356 496 OFFCURVE",
"304 496 CURVE SMOOTH",
"151 496 LINE",
"141 436 LINE",
"281 436 LINE SMOOTH",
"294 436 OFFCURVE",
"299 429 OFFCURVE",
"297 416 CURVE SMOOTH",
"237 80 LINE SMOOTH",
"228 32 OFFCURVE",
"254 0 OFFCURVE",
"303 0 CURVE SMOOTH"
);
},
{
closed = 1;
nodes = (
"404 592 OFFCURVE",
"432 620 OFFCURVE",
"432 654 CURVE SMOOTH",
"432 688 OFFCURVE",
"404 716 OFFCURVE",
"370 716 CURVE SMOOTH",
"336 716 OFFCURVE",
"308 688 OFFCURVE",
"308 654 CURVE SMOOTH",
"308 620 OFFCURVE",
"336 592 OFFCURVE",
"370 592 CURVE SMOOTH"
);
}
);
width = 600;
},
{
layerId = "80A0AA5A-C5CE-4148-884B-17CEBCBED218";
paths = (
{
closed = 1;
nodes = (
"484 0 LINE",
"500 92 LINE",
"359 92 LINE SMOOTH",
"338 92 OFFCURVE",
"329 105 OFFCURVE",
"332 125 CURVE SMOOTH",
"376 372 LINE SMOOTH",
"391 457 OFFCURVE",
"364 496 OFFCURVE",
"279 496 CURVE SMOOTH",
"140 496 LINE",
"124 404 LINE",
"244 404 LINE SMOOTH",
"265 404 OFFCURVE",
"274 394 OFFCURVE",
"270 371 CURVE SMOOTH",
"226 123 LINE SMOOTH",
"213 48 OFFCURVE",
"250 0 OFFCURVE",
"321 0 CURVE SMOOTH"
);
},
{
closed = 1;
nodes = (
"410 572 OFFCURVE",
"445 606 OFFCURVE",
"445 650 CURVE SMOOTH",
"445 694 OFFCURVE",
"410 727 OFFCURVE",
"363 727 CURVE SMOOTH",
"316 727 OFFCURVE",
"280 694 OFFCURVE",
"280 650 CURVE SMOOTH",
"280 606 OFFCURVE",
"316 572 OFFCURVE",
"363 572 CURVE SMOOTH"
);
}
);
width = 600;
}
);
unicode = 0069;
},
{
glyphname = idotless;
lastChange = "2020-03-04 08:54:38 +0000";
layers = (
{
anchors = (
{
name = bottom;
position = "{256, 0}";
},
{
name = ogonek;
position = "{473, 0}";
},
{
name = top;
position = "{344, 496}";
}
);
layerId = "7BD5169A-FC8C-41E9-B364-539909E84211";
paths = (
{
closed = 1;
nodes = (
"473 0 LINE",
"483 60 LINE",
"323 60 LINE SMOOTH",
"310 60 OFFCURVE",
"305 67 OFFCURVE",
"307 80 CURVE SMOOTH",
"367 414 LINE SMOOTH",
"377 471 OFFCURVE",
"356 496 OFFCURVE",
"304 496 CURVE SMOOTH",
"151 496 LINE",
"141 436 LINE",
"281 436 LINE SMOOTH",
"294 436 OFFCURVE",
"299 429 OFFCURVE",
"297 416 CURVE SMOOTH",
"237 80 LINE SMOOTH",
"228 32 OFFCURVE",
"254 0 OFFCURVE",
"303 0 CURVE SMOOTH"
);
}
);
width = 600;
},
{
anchors = (
{
name = bottom;
position = "{256, 0}";
},
{
name = ogonek;
position = "{484, 0}";
},
{
name = top;
position = "{344, 496}";
}
);
layerId = "80A0AA5A-C5CE-4148-884B-17CEBCBED218";
paths = (
{
closed = 1;
nodes = (
"484 0 LINE",
"500 92 LINE",
"359 92 LINE SMOOTH",
"338 92 OFFCURVE",
"329 105 OFFCURVE",
"332 125 CURVE SMOOTH",
"376 372 LINE SMOOTH",
"391 457 OFFCURVE",
"364 496 OFFCURVE",
"279 496 CURVE SMOOTH",
"140 496 LINE",
"124 404 LINE",
"244 404 LINE SMOOTH",
"265 404 OFFCURVE",
"274 394 OFFCURVE",
"270 371 CURVE SMOOTH",
"226 123 LINE SMOOTH",
"213 48 OFFCURVE",
"250 0 OFFCURVE",
"321 0 CURVE SMOOTH"
);
}
);
width = 600;
}
);
unicode = 0131;
},
{
glyphname = j;
lastChange = "2020-03-04 08:54:38 +0000";
layers = (
{
layerId = "7BD5169A-FC8C-41E9-B364-539909E84211";
paths = (
{
closed = 1;
nodes = (
"231 -220 LINE SMOOTH",
"287 -220 OFFCURVE",
"314 -198 OFFCURVE",
"324 -140 CURVE SMOOTH",
"421 416 LINE SMOOTH",
"430 469 OFFCURVE",
"411 496 OFFCURVE",
"356 496 CURVE SMOOTH",
"196 496 LINE",
"185 436 LINE",
"335 436 LINE SMOOTH",
"348 436 OFFCURVE",
"354 429 OFFCURVE",
"352 416 CURVE SMOOTH",
"254 -140 LINE SMOOTH",
"252 -153 OFFCURVE",
"243 -160 OFFCURVE",
"230 -160 CURVE SMOOTH",
"0 -160 LINE",
"-11 -220 LINE"
);
},
{
closed = 1;
nodes = (
"459 592 OFFCURVE",
"487 620 OFFCURVE",
"487 654 CURVE SMOOTH",
"487 688 OFFCURVE",
"459 716 OFFCURVE",
"425 716 CURVE SMOOTH",
"391 716 OFFCURVE",
"363 688 OFFCURVE",
"363 654 CURVE SMOOTH",
"363 620 OFFCURVE",
"391 592 OFFCURVE",
"425 592 CURVE SMOOTH"
);
}
);
width = 600;
},
{
layerId = "80A0AA5A-C5CE-4148-884B-17CEBCBED218";
paths = (
{
closed = 1;
nodes = (
"207 -220 LINE SMOOTH",
"294 -220 OFFCURVE",
"336 -185 OFFCURVE",
"351 -97 CURVE SMOOTH",
"434 373 LINE SMOOTH",
"449 457 OFFCURVE",
"420 496 OFFCURVE",
"333 496 CURVE SMOOTH",
"181 496 LINE",
"165 404 LINE",
"301 404 LINE SMOOTH",
"322 404 OFFCURVE",
"332 392 OFFCURVE",
"328 371 CURVE SMOOTH",
"246 -95 LINE SMOOTH",
"242 -116 OFFCURVE",
"229 -128 OFFCURVE",
"208 -128 CURVE SMOOTH",
"-6 -128 LINE",
"-23 -220 LINE"
);
},
{
closed = 1;
nodes = (
"468 572 OFFCURVE",
"503 606 OFFCURVE",
"503 650 CURVE SMOOTH",
"503 694 OFFCURVE",
"468 727 OFFCURVE",
"421 727 CURVE SMOOTH",
"374 727 OFFCURVE",
"338 694 OFFCURVE",
"338 650 CURVE SMOOTH",
"338 606 OFFCURVE",
"374 572 OFFCURVE",
"421 572 CURVE SMOOTH"
);
}
);
width = 600;
}
);
unicode = 006A;
},
{
glyphname = k;
lastChange = "2020-03-04 08:54:38 +0000";
layers = (
{
anchors = (
{
name = bottom;
position = "{237, 0}";
},
{
name = top;
position = "{218, 720}";
}
);
layerId = "7BD5169A-FC8C-41E9-B364-539909E84211";
paths = (
{
closed = 1;
nodes = (
"461 0 LINE",
"249 265 LINE",
"250 271 LINE",
"521 496 LINE",
"426 496 LINE",
"163 273 LINE",
"378 0 LINE"
);
},
{
closed = 1;
nodes = (
"127 0 LINE",
"254 720 LINE",
"184 720 LINE",
"57 0 LINE"
);
}
);
width = 600;
},
{
anchors = (
{
name = bottom;
position = "{277, 0}";
},
{
name = top;
position = "{258, 720}";
}
);
associatedMasterId = "7BD5169A-FC8C-41E9-B364-539909E84211";
layerId = "015A1BA1-0133-4A39-9C50-A17D06D5D97E";
name = "Mar 2 20, 13:49";
paths = (
{
closed = 1;
nodes = (
"501 0 LINE",
"289 265 LINE",
"290 271 LINE",
"561 496 LINE",
"466 496 LINE",
"203 273 LINE",
"418 0 LINE"
);
},
{
closed = 1;
nodes = (
"167 0 LINE",
"279 638 LINE",
"289 695 OFFCURVE",
"268 720 OFFCURVE",
"216 720 CURVE SMOOTH",
"113 720 LINE",
"103 660 LINE",
"193 660 LINE SMOOTH",
"206 660 OFFCURVE",
"211 653 OFFCURVE",
"209 640 CURVE",
"97 0 LINE"
);
}
);
width = 600;
},
{
anchors = (
{
name = bottom;
position = "{257, 0}";
},
{
name = top;
position = "{227, 720}";
}
);
layerId = "80A0AA5A-C5CE-4148-884B-17CEBCBED218";
paths = (
{
closed = 1;
nodes = (
"504 0 LINE",
"315 263 LINE",
"316 270 LINE",
"563 496 LINE",
"425 496 LINE",
"185 274 LINE",
"381 0 LINE"
);
},
{
closed = 1;
nodes = (
"154 0 LINE",
"280 720 LINE",
"174 720 LINE",
"48 0 LINE"
);
}
);
width = 600;
}
);
unicode = 006B;
},
{
glyphname = l;
lastChange = "2020-03-04 08:54:38 +0000";
layers = (
{
anchors = (
{
name = bottom;
position = "{354, 0}";
},
{
name = center;
position = "{320, 360}";
},
{
name = top;
position = "{384, 720}";
},
{
name = topright;
position = "{417, 496}";
}
);
background = {
paths = (
{
closed = 1;
nodes = (
"473 0 LINE",
"483 60 LINE",
"323 60 LINE SMOOTH",
"310 60 OFFCURVE",
"305 67 OFFCURVE",
"307 80 CURVE SMOOTH",
"367 414 LINE SMOOTH",
"377 471 OFFCURVE",
"356 496 OFFCURVE",
"304 496 CURVE SMOOTH",
"151 496 LINE",
"141 436 LINE",
"281 436 LINE SMOOTH",
"294 436 OFFCURVE",
"299 429 OFFCURVE",
"297 416 CURVE SMOOTH",
"237 80 LINE SMOOTH",
"228 32 OFFCURVE",
"254 0 OFFCURVE",
"303 0 CURVE SMOOTH"
);
}
);
};
layerId = "7BD5169A-FC8C-41E9-B364-539909E84211";
paths = (
{
closed = 1;
nodes = (
"473 0 LINE",
"483 60 LINE",
"323 60 LINE SMOOTH",
"310 60 OFFCURVE",
"305 67 OFFCURVE",
"307 80 CURVE SMOOTH",
"407 638 LINE SMOOTH",
"417 695 OFFCURVE",
"396 720 OFFCURVE",
"344 720 CURVE SMOOTH",
"191 720 LINE",
"181 660 LINE",
"321 660 LINE SMOOTH",
"334 660 OFFCURVE",
"339 653 OFFCURVE",
"337 640 CURVE SMOOTH",
"237 80 LINE SMOOTH",
"228 32 OFFCURVE",
"254 0 OFFCURVE",
"303 0 CURVE SMOOTH"
);
}
);
width = 600;
},
{
anchors = (
{
name = bottom;
position = "{335, 0}";
},
{
name = center;
position = "{324, 360}";
},
{
name = top;
position = "{387, 720}";
},
{
name = topright;
position = "{426, 491}";
}
);
layerId = "80A0AA5A-C5CE-4148-884B-17CEBCBED218";
paths = (
{
closed = 1;
nodes = (
"484 0 LINE",
"500 92 LINE",
"359 92 LINE SMOOTH",
"338 92 OFFCURVE",
"329 105 OFFCURVE",
"332 125 CURVE SMOOTH",
"416 596 LINE SMOOTH",
"431 681 OFFCURVE",
"404 720 OFFCURVE",
"319 720 CURVE SMOOTH",
"180 720 LINE",
"164 628 LINE",
"284 628 LINE SMOOTH",
"305 628 OFFCURVE",
"314 618 OFFCURVE",
"310 595 CURVE SMOOTH",
"226 123 LINE SMOOTH",
"213 48 OFFCURVE",
"250 0 OFFCURVE",
"321 0 CURVE SMOOTH"
);
}
);
width = 600;
}
);
unicode = 006C;
},
{
glyphname = lslash;
lastChange = "2020-03-04 08:54:38 +0000";
layers = (
{
background = {
paths = (
{
closed = 1;
nodes = (
"472 399 LINE",
"483 461 LINE",
"181 339 LINE",
"170 277 LINE"
);
}
);
};
components = (
{
name = l;
}
);
layerId = "7BD5169A-FC8C-41E9-B364-539909E84211";
paths = (
{
closed = 1;
nodes = (
"472 399 LINE",
"484 465 LINE",
"182 343 LINE",
"170 277 LINE"
);
}
);
width = 600;
},
{
components = (
{
alignment = -1;
name = l;
}
);
layerId = "80A0AA5A-C5CE-4148-884B-17CEBCBED218";
paths = (
{
closed = 1;
nodes = (
"487 393 LINE",
"504 490 LINE",
"162 354 LINE",
"145 257 LINE"
);
}
);
width = 600;
}
);
unicode = 0142;
},
{
glyphname = m;
lastChange = "2020-03-04 08:54:38 +0000";
layers = (
{
anchors = (
{
name = bottom;
position = "{272, 0}";
},
{
name = top;
position = "{360, 496}";
}
);
layerId = "7BD5169A-FC8C-41E9-B364-539909E84211";
paths = (
{
closed = 1;
nodes = (
"88 0 LINE",
"148 337 LINE SMOOTH",
"160 405 OFFCURVE",
"196 442 OFFCURVE",
"244 442 CURVE SMOOTH",
"288 442 OFFCURVE",
"310 407 OFFCURVE",
"301 357 CURVE SMOOTH",
"238 0 LINE",
"308 0 LINE",
"368 337 LINE SMOOTH",
"380 405 OFFCURVE",
"417 442 OFFCURVE",
"465 442 CURVE SMOOTH",
"509 442 OFFCURVE",
"530 407 OFFCURVE",
"521 357 CURVE SMOOTH",
"458 0 LINE",
"528 0 LINE",
"593 365 LINE SMOOTH",
"608 448 OFFCURVE",
"564 508 OFFCURVE",
"489 508 CURVE SMOOTH",
"432 508 OFFCURVE",
"391 481 OFFCURVE",
"371 441 CURVE",
"368 441 LINE",
"357 484 OFFCURVE",
"326 508 OFFCURVE",
"273 508 CURVE SMOOTH",
"222 508 OFFCURVE",
"186 485 OFFCURVE",
"165 442 CURVE",
"161 442 LINE",
"161 445 LINE SMOOTH",
"161 478 OFFCURVE",
"141 496 OFFCURVE",
"108 496 CURVE SMOOTH",
"62 496 LINE",
"51 436 LINE",
"70 436 LINE SMOOTH",
"85 436 OFFCURVE",
"93 427 OFFCURVE",
"91 414 CURVE",
"18 0 LINE"
);
}
);
width = 600;
},
{
anchors = (
{
name = bottom;
position = "{275, 0}";
},
{
name = top;
position = "{363, 496}";
}
);
layerId = "80A0AA5A-C5CE-4148-884B-17CEBCBED218";
paths = (
{
closed = 1;
nodes = (
"112 0 LINE",
"172 335 LINE SMOOTH",
"180 385 OFFCURVE",
"207 415 OFFCURVE",
"243 415 CURVE SMOOTH",
"277 415 OFFCURVE",
"293 389 OFFCURVE",
"285 350 CURVE SMOOTH",
"224 0 LINE",
"324 0 LINE",
"384 335 LINE SMOOTH",
"392 385 OFFCURVE",
"419 415 OFFCURVE",
"455 415 CURVE SMOOTH",
"490 415 OFFCURVE",
"505 389 OFFCURVE",
"497 350 CURVE SMOOTH",
"436 0 LINE",
"536 0 LINE",
"602 371 LINE SMOOTH",
"616 450 OFFCURVE",
"576 508 OFFCURVE",
"503 508 CURVE SMOOTH",
"448 508 OFFCURVE",
"410 479 OFFCURVE",
"394 439 CURVE",
"390 439 LINE",
"381 483 OFFCURVE",
"345 508 OFFCURVE",
"296 508 CURVE SMOOTH",
"244 508 OFFCURVE",
"209 483 OFFCURVE",
"189 440 CURVE",
"184 440 LINE",
"184 441 LINE",
"184 474 OFFCURVE",
"161 496 OFFCURVE",
"123 496 CURVE SMOOTH",
"51 496 LINE",
"34 404 LINE",
"49 404 LINE SMOOTH",
"71 404 OFFCURVE",
"81 393 OFFCURVE",
"77 371 CURVE SMOOTH",
"12 0 LINE"
);
}
);
width = 600;
}
);
unicode = 006D;
},
{
glyphname = n;
lastChange = "2020-03-04 08:54:38 +0000";
layers = (
{
anchors = (
{
name = bottom;
position = "{272, 0}";
},
{
name = top;
position = "{355, 496}";
}
);
layerId = "7BD5169A-FC8C-41E9-B364-539909E84211";
paths = (
{
closed = 1;
nodes = (
"134 0 LINE",
"183 277 LINE SMOOTH",
"202 384 OFFCURVE",
"272 447 OFFCURVE",
"357 447 CURVE SMOOTH",
"444 447 OFFCURVE",
"477 380 OFFCURVE",
"462 295 CURVE SMOOTH",
"410 0 LINE",
"480 0 LINE",
"534 303 LINE SMOOTH",
"554 414 OFFCURVE",
"504 508 OFFCURVE",
"377 508 CURVE SMOOTH",
"296 508 OFFCURVE",
"240 472 OFFCURVE",
"209 431 CURVE",
"205 431 LINE",
"205 445 LINE SMOOTH",
"205 478 OFFCURVE",
"185 496 OFFCURVE",
"152 496 CURVE SMOOTH",
"75 496 LINE",
"64 436 LINE",
"116 436 LINE SMOOTH",
"132 436 OFFCURVE",
"140 426 OFFCURVE",
"137 411 CURVE SMOOTH",
"64 0 LINE"
);
}
);
width = 600;
},
{
anchors = (
{
name = bottom;
position = "{276, 0}";
},
{
name = top;
position = "{362, 496}";
}
);
layerId = "80A0AA5A-C5CE-4148-884B-17CEBCBED218";
paths = (
{
closed = 1;
nodes = (
"158 0 LINE",
"204 264 LINE SMOOTH",
"221 357 OFFCURVE",
"276 410 OFFCURVE",
"350 410 CURVE SMOOTH",
"424 410 OFFCURVE",
"457 357 OFFCURVE",
"443 278 CURVE SMOOTH",
"394 0 LINE",
"500 0 LINE",
"550 285 LINE SMOOTH",
"573 411 OFFCURVE",
"517 508 OFFCURVE",
"394 508 CURVE SMOOTH",
"319 508 OFFCURVE",
"265 476 OFFCURVE",
"233 426 CURVE",
"227 426 LINE",
"227 431 LINE",
"227 470 OFFCURVE",
"202 496 OFFCURVE",
"153 496 CURVE SMOOTH",
"63 496 LINE",
"47 404 LINE",
"89 404 LINE SMOOTH",
"111 404 OFFCURVE",
"121 393 OFFCURVE",
"117 369 CURVE SMOOTH",
"52 0 LINE"
);
}
);
width = 600;
}
);
unicode = 006E;
},
{
glyphname = o;
lastChange = "2020-03-04 08:54:38 +0000";
layers = (
{
anchors = (
{
name = bottom;
position = "{256, 0}";
},
{
name = center;
position = "{300, 248}";
},
{
name = ogonek;
position = "{351, 0}";
},
{
name = top;
position = "{341, 496}";
},
{
name = topright;
position = "{624, 496}";
}
);
layerId = "7BD5169A-FC8C-41E9-B364-539909E84211";
paths = (
{
closed = 1;
nodes = (
"427 -12 OFFCURVE",
"540 117 OFFCURVE",
"540 279 CURVE SMOOTH",
"540 421 OFFCURVE",
"454 508 OFFCURVE",
"328 508 CURVE SMOOTH",
"172 508 OFFCURVE",
"60 379 OFFCURVE",
"60 217 CURVE SMOOTH",
"60 75 OFFCURVE",
"146 -12 OFFCURVE",
"272 -12 CURVE SMOOTH"
);
},
{
closed = 1;
nodes = (
"188 54 OFFCURVE",
"132 108 OFFCURVE",
"132 225 CURVE SMOOTH",
"132 344 OFFCURVE",
"204 442 OFFCURVE",
"328 442 CURVE SMOOTH",
"412 442 OFFCURVE",
"468 387 OFFCURVE",
"468 271 CURVE SMOOTH",
"468 152 OFFCURVE",
"396 54 OFFCURVE",
"272 54 CURVE SMOOTH"
);
}
);
width = 600;
},
{
anchors = (
{
name = bottom;
position = "{256, 0}";
},
{
name = center;
position = "{300, 248}";
},
{
name = ogonek;
position = "{357, 0}";
},
{
name = top;
position = "{343, 496}";
},
{
name = topright;
position = "{624, 496}";
}
);
layerId = "80A0AA5A-C5CE-4148-884B-17CEBCBED218";
paths = (
{
closed = 1;
nodes = (
"443 -12 OFFCURVE",
"552 120 OFFCURVE",
"552 277 CURVE SMOOTH",
"552 415 OFFCURVE",
"465 508 OFFCURVE",
"330 508 CURVE SMOOTH",
"158 508 OFFCURVE",
"48 376 OFFCURVE",
"48 219 CURVE SMOOTH",
"48 81 OFFCURVE",
"134 -12 OFFCURVE",
"272 -12 CURVE SMOOTH"
);
},
{
closed = 1;
nodes = (
"207 89 OFFCURVE",
"156 135 OFFCURVE",
"156 228 CURVE SMOOTH",
"156 327 OFFCURVE",
"219 407 OFFCURVE",
"323 407 CURVE SMOOTH",
"393 407 OFFCURVE",
"444 358 OFFCURVE",
"444 268 CURVE SMOOTH",
"444 168 OFFCURVE",
"381 89 OFFCURVE",
"277 89 CURVE SMOOTH"
);
}
);
width = 600;
}
);
unicode = 006F;
},
{
glyphname = oslash;
lastChange = "2020-03-04 08:54:38 +0000";
layers = (
{
components = (
{
name = o;
}
);
layerId = "7BD5169A-FC8C-41E9-B364-539909E84211";
paths = (
{
closed = 1;
nodes = (
"86 -20 LINE",
"599 516 LINE",
"515 516 LINE",
"1 -20 LINE"
);
}
);
width = 600;
},
{
components = (
{
alignment = -1;
name = o;
}
);
layerId = "80A0AA5A-C5CE-4148-884B-17CEBCBED218";
paths = (
{
closed = 1;
nodes = (
"93 -20 LINE",
"606 516 LINE",
"507 516 LINE",
"-6 -20 LINE"
);
}
);
width = 600;
}
);
unicode = 00F8;
},
{
glyphname = oe;
lastChange = "2020-03-04 08:54:38 +0000";
layers = (
{
anchors = (
{
name = bottom;
position = "{256, 0}";
},
{
name = top;
position = "{344, 496}";
}
);
layerId = "7BD5169A-FC8C-41E9-B364-539909E84211";
paths = (
{
closed = 1;
nodes = (
"201 -12 OFFCURVE",
"244 21 OFFCURVE",
"278 82 CURVE",
"289 28 OFFCURVE",
"327 -12 OFFCURVE",
"385 -12 CURVE SMOOTH",
"474 -12 OFFCURVE",
"521 54 OFFCURVE",
"549 149 CURVE",
"481 149 LINE",
"460 88 OFFCURVE",
"434 54 OFFCURVE",
"394 54 CURVE SMOOTH",
"355 54 OFFCURVE",
"331 89 OFFCURVE",
"331 161 CURVE SMOOTH",
"331 260 OFFCURVE",
"374 444 OFFCURVE",
"462 444 CURVE SMOOTH",
"498 444 OFFCURVE",
"519 410 OFFCURVE",
"519 348 CURVE SMOOTH",
"519 333 OFFCURVE",
"518 316 OFFCURVE",
"515 297 CURVE",
"335 297 LINE",
"323 233 LINE",
"570 233 LINE",
"579 270 OFFCURVE",
"589 328 OFFCURVE",
"589 366 CURVE SMOOTH",
"589 456 OFFCURVE",
"544 508 OFFCURVE",
"473 508 CURVE SMOOTH",
"411 508 OFFCURVE",
"363 471 OFFCURVE",
"334 412 CURVE",
"325 479 OFFCURVE",
"278 508 OFFCURVE",
"224 508 CURVE SMOOTH",
"90 508 OFFCURVE",
"16 322 OFFCURVE",
"16 175 CURVE SMOOTH",
"16 59 OFFCURVE",
"57 -12 OFFCURVE",
"140 -12 CURVE SMOOTH"
);
},
{
closed = 1;
nodes = (
"113 54 OFFCURVE",
"88 93 OFFCURVE",
"88 177 CURVE SMOOTH",
"88 306 OFFCURVE",
"142 442 OFFCURVE",
"218 442 CURVE SMOOTH",
"258 442 OFFCURVE",
"280 400 OFFCURVE",
"280 309 CURVE SMOOTH",
"280 193 OFFCURVE",
"229 54 OFFCURVE",
"150 54 CURVE SMOOTH"
);
}
);
width = 600;
},
{
anchors = (
{
name = bottom;
position = "{256, 0}";
},
{
name = top;
position = "{344, 496}";
}
);
layerId = "80A0AA5A-C5CE-4148-884B-17CEBCBED218";
paths = (
{
closed = 1;
nodes = (
"200 -12 OFFCURVE",
"242 15 OFFCURVE",
"274 70 CURVE",
"287 24 OFFCURVE",
"328 -12 OFFCURVE",
"381 -12 CURVE SMOOTH",
"478 -12 OFFCURVE",
"528 50 OFFCURVE",
"553 156 CURVE",
"458 156 LINE",
"444 110 OFFCURVE",
"426 83 OFFCURVE",
"395 83 CURVE SMOOTH",
"366 83 OFFCURVE",
"349 115 OFFCURVE",
"349 169 CURVE SMOOTH",
"349 253 OFFCURVE",
"384 416 OFFCURVE",
"455 416 CURVE SMOOTH",
"480 416 OFFCURVE",
"497 392 OFFCURVE",
"497 343 CURVE SMOOTH",
"497 331 OFFCURVE",
"496 320 OFFCURVE",
"494 304 CURVE",
"325 304 LINE",
"311 223 LINE",
"575 223 LINE",
"585 267 OFFCURVE",
"594 318 OFFCURVE",
"594 362 CURVE SMOOTH",
"594 451 OFFCURVE",
"555 508 OFFCURVE",
"471 508 CURVE SMOOTH",
"412 508 OFFCURVE",
"362 473 OFFCURVE",
"338 426 CURVE",
"323 479 OFFCURVE",
"283 508 OFFCURVE",
"227 508 CURVE SMOOTH",
"86 508 OFFCURVE",
"10 332 OFFCURVE",
"10 181 CURVE SMOOTH",
"10 68 OFFCURVE",
"53 -12 OFFCURVE",
"141 -12 CURVE SMOOTH"
);
},
{
closed = 1;
nodes = (
"130 84 OFFCURVE",
"112 121 OFFCURVE",
"112 183 CURVE SMOOTH",
"112 285 OFFCURVE",
"156 412 OFFCURVE",
"220 412 CURVE SMOOTH",
"253 412 OFFCURVE",
"270 375 OFFCURVE",
"270 310 CURVE SMOOTH",
"270 211 OFFCURVE",
"226 84 OFFCURVE",
"162 84 CURVE SMOOTH"
);
}
);
width = 600;
}
);
unicode = 0153;
},
{
glyphname = p;
lastChange = "2020-03-04 08:54:38 +0000";
layers = (
{
layerId = "7BD5169A-FC8C-41E9-B364-539909E84211";
paths = (
{
closed = 1;
nodes = (
"71 -220 LINE",
"124 80 LINE",
"145 35 OFFCURVE",
"198 -12 OFFCURVE",
"280 -12 CURVE SMOOTH",
"442 -12 OFFCURVE",
"536 127 OFFCURVE",
"536 283 CURVE SMOOTH",
"536 422 OFFCURVE",
"465 508 OFFCURVE",
"352 508 CURVE SMOOTH",
"276 508 OFFCURVE",
"221 474 OFFCURVE",
"187 429 CURVE",
"181 429 LINE",
"181 445 LINE SMOOTH",
"181 478 OFFCURVE",
"161 496 OFFCURVE",
"128 496 CURVE SMOOTH",
"51 496 LINE",
"40 436 LINE",
"92 436 LINE SMOOTH",
"108 436 OFFCURVE",
"115 426 OFFCURVE",
"112 411 CURVE SMOOTH",
"1 -220 LINE"
);
},
{
closed = 1;
nodes = (
"210 54 OFFCURVE",
"148 110 OFFCURVE",
"148 216 CURVE SMOOTH",
"148 332 OFFCURVE",
"215 442 OFFCURVE",
"336 442 CURVE SMOOTH",
"411 442 OFFCURVE",
"464 390 OFFCURVE",
"464 278 CURVE SMOOTH",
"464 166 OFFCURVE",
"398 54 OFFCURVE",
"279 54 CURVE SMOOTH"
);
}
);
width = 600;
},
{
layerId = "80A0AA5A-C5CE-4148-884B-17CEBCBED218";
paths = (
{
closed = 1;
nodes = (
"103 -220 LINE",
"153 66 LINE",
"172 26 OFFCURVE",
"222 -12 OFFCURVE",
"297 -12 CURVE SMOOTH",
"469 -12 OFFCURVE",
"558 127 OFFCURVE",
"558 277 CURVE SMOOTH",
"558 426 OFFCURVE",
"478 508 OFFCURVE",
"369 508 CURVE SMOOTH",
"292 508 OFFCURVE",
"241 474 OFFCURVE",
"213 425 CURVE",
"207 425 LINE",
"207 431 LINE",
"207 467 OFFCURVE",
"183 496 OFFCURVE",
"138 496 CURVE SMOOTH",
"47 496 LINE",
"30 404 LINE",
"72 404 LINE SMOOTH",
"94 404 OFFCURVE",
"104 393 OFFCURVE",
"100 369 CURVE SMOOTH",
"-3 -220 LINE"
);
},
{
closed = 1;
nodes = (
"229 89 OFFCURVE",
"178 135 OFFCURVE",
"178 220 CURVE SMOOTH",
"178 317 OFFCURVE",
"231 407 OFFCURVE",
"335 407 CURVE SMOOTH",
"399 407 OFFCURVE",
"448 360 OFFCURVE",
"448 272 CURVE SMOOTH",
"448 177 OFFCURVE",
"393 89 OFFCURVE",
"291 89 CURVE SMOOTH"
);
}
);
width = 600;
}
);
unicode = 0070;
},
{
glyphname = thorn;
lastChange = "2020-03-04 08:54:38 +0000";
layers = (
{
anchors = (
{
name = bottom;
position = "{256, 0}";
},
{
name = top;
position = "{344, 496}";
}
);
layerId = "7BD5169A-FC8C-41E9-B364-539909E84211";
paths = (
{
closed = 1;
nodes = (
"71 -220 LINE",
"124 80 LINE",
"145 35 OFFCURVE",
"198 -12 OFFCURVE",
"280 -12 CURVE SMOOTH",
"442 -12 OFFCURVE",
"536 127 OFFCURVE",
"536 283 CURVE SMOOTH",
"536 422 OFFCURVE",
"465 508 OFFCURVE",
"352 508 CURVE SMOOTH",
"276 508 OFFCURVE",
"221 474 OFFCURVE",
"186 429 CURVE",
"238 720 LINE",
"168 720 LINE",
"1 -220 LINE"
);
},
{
closed = 1;
nodes = (
"210 54 OFFCURVE",
"148 110 OFFCURVE",
"148 216 CURVE SMOOTH",
"148 332 OFFCURVE",
"215 442 OFFCURVE",
"336 442 CURVE SMOOTH",
"411 442 OFFCURVE",
"464 390 OFFCURVE",
"464 278 CURVE SMOOTH",
"464 166 OFFCURVE",
"398 54 OFFCURVE",
"279 54 CURVE SMOOTH"
);
}
);
width = 600;
},
{
anchors = (
{
name = bottom;
position = "{256, 0}";
},
{
name = top;
position = "{344, 496}";
}
);
layerId = "80A0AA5A-C5CE-4148-884B-17CEBCBED218";
paths = (
{
closed = 1;
nodes = (
"103 -220 LINE",
"153 66 LINE",
"172 26 OFFCURVE",
"222 -12 OFFCURVE",
"297 -12 CURVE SMOOTH",
"469 -12 OFFCURVE",
"558 127 OFFCURVE",
"558 277 CURVE SMOOTH",
"558 426 OFFCURVE",
"478 508 OFFCURVE",
"369 508 CURVE SMOOTH",
"299 508 OFFCURVE",
"248 476 OFFCURVE",
"218 435 CURVE",
"269 720 LINE",
"163 720 LINE",
"-3 -220 LINE"
);
},
{
closed = 1;
nodes = (
"229 89 OFFCURVE",
"178 135 OFFCURVE",
"178 220 CURVE SMOOTH",
"178 317 OFFCURVE",
"231 407 OFFCURVE",
"335 407 CURVE SMOOTH",
"399 407 OFFCURVE",
"448 360 OFFCURVE",
"448 272 CURVE SMOOTH",
"448 177 OFFCURVE",
"393 89 OFFCURVE",
"291 89 CURVE SMOOTH"
);
}
);
width = 600;
}
);
unicode = 00FE;
},
{
glyphname = q;
lastChange = "2020-03-04 08:54:38 +0000";
layers = (
{
layerId = "7BD5169A-FC8C-41E9-B364-539909E84211";
paths = (
{
closed = 1;
nodes = (
"512 -220 LINE",
"523 -160 LINE",
"471 -160 LINE SMOOTH",
"455 -160 OFFCURVE",
"447 -150 OFFCURVE",
"450 -135 CURVE SMOOTH",
"561 496 LINE",
"507 496 LINE",
"483 416 LINE",
"477 416 LINE",
"456 469 OFFCURVE",
"403 508 OFFCURVE",
"328 508 CURVE SMOOTH",
"166 508 OFFCURVE",
"64 371 OFFCURVE",
"64 207 CURVE SMOOTH",
"64 66 OFFCURVE",
"144 -12 OFFCURVE",
"250 -12 CURVE SMOOTH",
"334 -12 OFFCURVE",
"388 26 OFFCURVE",
"417 74 CURVE",
"378 -147 LINE SMOOTH",
"369 -196 OFFCURVE",
"395 -220 OFFCURVE",
"433 -220 CURVE SMOOTH"
);
},
{
closed = 1;
nodes = (
"189 54 OFFCURVE",
"136 108 OFFCURVE",
"136 214 CURVE SMOOTH",
"136 330 OFFCURVE",
"199 442 OFFCURVE",
"325 442 CURVE SMOOTH",
"400 442 OFFCURVE",
"452 391 OFFCURVE",
"452 286 CURVE SMOOTH",
"452 169 OFFCURVE",
"386 54 OFFCURVE",
"265 54 CURVE SMOOTH"
);
}
);
width = 600;
},
{
layerId = "80A0AA5A-C5CE-4148-884B-17CEBCBED218";
paths = (
{
closed = 1;
nodes = (
"514 -220 LINE",
"531 -128 LINE",
"494 -128 LINE SMOOTH",
"472 -128 OFFCURVE",
"462 -113 OFFCURVE",
"466 -93 CURVE SMOOTH",
"570 496 LINE",
"478 496 LINE",
"457 422 LINE",
"451 422 LINE",
"427 475 OFFCURVE",
"382 508 OFFCURVE",
"308 508 CURVE SMOOTH",
"150 508 OFFCURVE",
"47 378 OFFCURVE",
"47 213 CURVE SMOOTH",
"47 68 OFFCURVE",
"130 -12 OFFCURVE",
"234 -12 CURVE SMOOTH",
"312 -12 OFFCURVE",
"359 20 OFFCURVE",
"387 57 CURVE",
"359 -100 LINE SMOOTH",
"345 -176 OFFCURVE",
"382 -220 OFFCURVE",
"449 -220 CURVE SMOOTH"
);
},
{
closed = 1;
nodes = (
"205 89 OFFCURVE",
"156 135 OFFCURVE",
"156 220 CURVE SMOOTH",
"156 318 OFFCURVE",
"211 407 OFFCURVE",
"317 407 CURVE SMOOTH",
"381 407 OFFCURVE",
"428 363 OFFCURVE",
"428 276 CURVE SMOOTH",
"428 178 OFFCURVE",
"372 89 OFFCURVE",
"270 89 CURVE SMOOTH"
);
}
);
width = 600;
}
);
unicode = 0071;
},
{
glyphname = r;
lastChange = "2020-03-04 08:54:38 +0000";
layers = (
{
anchors = (
{
name = bottom;
position = "{210, 0}";
},
{
name = top;
position = "{394, 496}";
}
);
layerId = "7BD5169A-FC8C-41E9-B364-539909E84211";
paths = (
{
closed = 1;
nodes = (
"245 0 LINE",
"303 327 LINE SMOOTH",
"315 393 OFFCURVE",
"371 434 OFFCURVE",
"430 434 CURVE SMOOTH",
"550 434 LINE",
"563 508 LINE",
"466 508 LINE SMOOTH",
"408 508 OFFCURVE",
"351 491 OFFCURVE",
"321 429 CURVE",
"317 429 LINE",
"318 437 LINE SMOOTH",
"324 472 OFFCURVE",
"302 496 OFFCURVE",
"268 496 CURVE SMOOTH",
"131 496 LINE",
"120 436 LINE",
"232 436 LINE SMOOTH",
"243 436 OFFCURVE",
"251 427 OFFCURVE",
"249 416 CURVE SMOOTH",
"175 0 LINE"
);
}
);
width = 600;
},
{
anchors = (
{
name = bottom;
position = "{206, 0}";
},
{
name = top;
position = "{400, 496}";
}
);
layerId = "80A0AA5A-C5CE-4148-884B-17CEBCBED218";
paths = (
{
closed = 1;
nodes = (
"259 0 LINE",
"309 277 LINE SMOOTH",
"322 353 OFFCURVE",
"373 396 OFFCURVE",
"442 396 CURVE SMOOTH",
"560 396 LINE",
"580 508 LINE",
"499 508 LINE SMOOTH",
"415 508 OFFCURVE",
"362 482 OFFCURVE",
"333 415 CURVE",
"328 415 LINE",
"328 418 LINE",
"330 467 OFFCURVE",
"310 496 OFFCURVE",
"257 496 CURVE SMOOTH",
"120 496 LINE",
"104 404 LINE",
"192 404 LINE SMOOTH",
"213 404 OFFCURVE",
"223 392 OFFCURVE",
"219 371 CURVE SMOOTH",
"153 0 LINE"
);
}
);
width = 600;
}
);
unicode = 0072;
},
{
glyphname = s;
lastChange = "2020-03-04 08:54:38 +0000";
layers = (
{
anchors = (
{
name = bottom;
position = "{256, 0}";
},
{
name = top;
position = "{344, 496}";
}
);
layerId = "7BD5169A-FC8C-41E9-B364-539909E84211";
paths = (
{
closed = 1;
nodes = (
"393 -12 OFFCURVE",
"482 49 OFFCURVE",
"482 151 CURVE SMOOTH",
"482 248 OFFCURVE",
"411 278 OFFCURVE",
"318 289 CURVE SMOOTH",
"235 297 OFFCURVE",
"198 325 OFFCURVE",
"198 365 CURVE SMOOTH",
"198 420 OFFCURVE",
"253 444 OFFCURVE",
"322 444 CURVE SMOOTH",
"386 444 OFFCURVE",
"433 409 OFFCURVE",
"431 357 CURVE",
"502 357 LINE",
"509 452 OFFCURVE",
"438 508 OFFCURVE",
"332 508 CURVE SMOOTH",
"198 508 OFFCURVE",
"124 447 OFFCURVE",
"124 363 CURVE SMOOTH",
"124 283 OFFCURVE",
"189 237 OFFCURVE",
"284 226 CURVE SMOOTH",
"378 215 OFFCURVE",
"410 197 OFFCURVE",
"410 147 CURVE SMOOTH",
"410 88 OFFCURVE",
"353 52 OFFCURVE",
"273 52 CURVE SMOOTH",
"187 52 OFFCURVE",
"144 95 OFFCURVE",
"144 154 CURVE",
"71 154 LINE",
"71 56 OFFCURVE",
"135 -12 OFFCURVE",
"267 -12 CURVE SMOOTH"
);
}
);
width = 600;
},
{
anchors = (
{
name = bottom;
position = "{255, 0}";
},
{
name = top;
position = "{343, 496}";
}
);
layerId = "80A0AA5A-C5CE-4148-884B-17CEBCBED218";
paths = (
{
closed = 1;
nodes = (
"403 -12 OFFCURVE",
"492 52 OFFCURVE",
"492 157 CURVE SMOOTH",
"492 247 OFFCURVE",
"427 282 OFFCURVE",
"329 296 CURVE SMOOTH",
"252 306 OFFCURVE",
"222 327 OFFCURVE",
"222 360 CURVE SMOOTH",
"222 398 OFFCURVE",
"262 420 OFFCURVE",
"319 420 CURVE SMOOTH",
"370 420 OFFCURVE",
"408 394 OFFCURVE",
"409 355 CURVE",
"511 355 LINE",
"514 449 OFFCURVE",
"442 508 OFFCURVE",
"327 508 CURVE SMOOTH",
"196 508 OFFCURVE",
"118 449 OFFCURVE",
"118 359 CURVE SMOOTH",
"118 276 OFFCURVE",
"184 230 OFFCURVE",
"275 217 CURVE SMOOTH",
"349 206 OFFCURVE",
"382 190 OFFCURVE",
"382 148 CURVE SMOOTH",
"382 102 OFFCURVE",
"337 77 OFFCURVE",
"274 77 CURVE SMOOTH",
"207 77 OFFCURVE",
"176 111 OFFCURVE",
"174 156 CURVE",
"65 156 LINE",
"66 58 OFFCURVE",
"133 -12 OFFCURVE",
"266 -12 CURVE SMOOTH"
);
}
);
width = 600;
}
);
unicode = 0073;
},
{
glyphname = germandbls;
lastChange = "2020-03-04 08:54:38 +0000";
layers = (
{
layerId = "7BD5169A-FC8C-41E9-B364-539909E84211";
paths = (
{
closed = 1;
nodes = (
"-60 -220 LINE SMOOTH",
"46 -220 OFFCURVE",
"89 -179 OFFCURVE",
"106 -82 CURVE SMOOTH",
"208 504 LINE SMOOTH",
"223 598 OFFCURVE",
"267 656 OFFCURVE",
"351 656 CURVE SMOOTH",
"409 656 OFFCURVE",
"448 626 OFFCURVE",
"448 581 CURVE SMOOTH",
"448 485 OFFCURVE",
"297 498 OFFCURVE",
"297 379 CURVE SMOOTH",
"297 329 OFFCURVE",
"339 289 OFFCURVE",
"402 262 CURVE SMOOTH",
"455 239 OFFCURVE",
"479 211 OFFCURVE",
"479 156 CURVE SMOOTH",
"479 95 OFFCURVE",
"436 52 OFFCURVE",
"370 52 CURVE SMOOTH",
"298 52 OFFCURVE",
"269 103 OFFCURVE",
"278 167 CURVE",
"203 167 LINE",
"193 75 OFFCURVE",
"246 -12 OFFCURVE",
"361 -12 CURVE SMOOTH",
"483 -12 OFFCURVE",
"551 61 OFFCURVE",
"551 171 CURVE SMOOTH",
"551 243 OFFCURVE",
"504 282 OFFCURVE",
"456 306 CURVE SMOOTH",
"389 340 OFFCURVE",
"369 356 OFFCURVE",
"369 386 CURVE SMOOTH",
"369 458 OFFCURVE",
"519 451 OFFCURVE",
"519 584 CURVE SMOOTH",
"519 665 OFFCURVE",
"463 720 OFFCURVE",
"364 720 CURVE SMOOTH",
"228 720 OFFCURVE",
"160 631 OFFCURVE",
"140 512 CURVE SMOOTH",
"36 -82 LINE SMOOTH",
"27 -135 OFFCURVE",
"3 -154 OFFCURVE",
"-49 -154 CURVE SMOOTH",
"-77 -154 LINE",
"-89 -220 LINE"
);
}
);
width = 600;
},
{
layerId = "80A0AA5A-C5CE-4148-884B-17CEBCBED218";
paths = (
{
closed = 1;
nodes = (
"-64 -220 LINE SMOOTH",
"56 -220 OFFCURVE",
"102 -176 OFFCURVE",
"122 -65 CURVE SMOOTH",
"221 503 LINE SMOOTH",
"234 581 OFFCURVE",
"276 625 OFFCURVE",
"344 625 CURVE SMOOTH",
"392 625 OFFCURVE",
"426 601 OFFCURVE",
"426 563 CURVE SMOOTH",
"426 492 OFFCURVE",
"282 486 OFFCURVE",
"282 373 CURVE SMOOTH",
"282 319 OFFCURVE",
"322 283 OFFCURVE",
"385 254 CURVE SMOOTH",
"435 231 OFFCURVE",
"459 204 OFFCURVE",
"459 163 CURVE SMOOTH",
"459 114 OFFCURVE",
"427 81 OFFCURVE",
"374 81 CURVE SMOOTH",
"318 81 OFFCURVE",
"294 122 OFFCURVE",
"303 172 CURVE",
"201 172 LINE",
"188 66 OFFCURVE",
"249 -12 OFFCURVE",
"363 -12 CURVE SMOOTH",
"497 -12 OFFCURVE",
"566 63 OFFCURVE",
"566 179 CURVE SMOOTH",
"566 242 OFFCURVE",
"529 286 OFFCURVE",
"475 314 CURVE SMOOTH",
"415 346 OFFCURVE",
"395 360 OFFCURVE",
"395 384 CURVE SMOOTH",
"395 443 OFFCURVE",
"534 450 OFFCURVE",
"534 573 CURVE SMOOTH",
"534 662 OFFCURVE",
"465 720 OFFCURVE",
"354 720 CURVE SMOOTH",
"211 720 OFFCURVE",
"136 625 OFFCURVE",
"116 509 CURVE SMOOTH",
"15 -70 LINE SMOOTH",
"8 -110 OFFCURVE",
"-10 -127 OFFCURVE",
"-51 -127 CURVE SMOOTH",
"-81 -127 LINE",
"-98 -220 LINE"
);
}
);
width = 600;
}
);
unicode = 00DF;
},
{
glyphname = t;
lastChange = "2020-03-04 08:54:38 +0000";
layers = (
{
anchors = (
{
name = bottom;
position = "{289, 0}";
},
{
name = center;
position = "{300, 248}";
},
{
name = top;
position = "{344, 496}";
},
{
name = topright;
position = "{362, 596}";
}
);
layerId = "7BD5169A-FC8C-41E9-B364-539909E84211";
paths = (
{
closed = 1;
nodes = (
"439 0 LINE",
"451 64 LINE",
"343 64 LINE SMOOTH",
"279 64 OFFCURVE",
"255 89 OFFCURVE",
"265 145 CURVE SMOOTH",
"316 436 LINE",
"516 436 LINE",
"527 496 LINE",
"327 496 LINE",
"349 621 LINE",
"299 621 LINE",
"274 546 LINE SMOOTH",
"263 512 OFFCURVE",
"239 496 OFFCURVE",
"206 496 CURVE SMOOTH",
"131 496 LINE",
"120 436 LINE",
"246 436 LINE",
"195 145 LINE SMOOTH",
"179 51 OFFCURVE",
"230 0 OFFCURVE",
"316 0 CURVE SMOOTH"
);
}
);
width = 600;
},
{
anchors = (
{
name = bottom;
position = "{289, 0}";
},
{
name = center;
position = "{300, 248}";
},
{
name = top;
position = "{344, 496}";
},
{
name = topright;
position = "{417, 596}";
}
);
layerId = "80A0AA5A-C5CE-4148-884B-17CEBCBED218";
paths = (
{
closed = 1;
nodes = (
"452 0 LINE",
"468 94 LINE",
"350 94 LINE SMOOTH",
"297 94 OFFCURVE",
"279 121 OFFCURVE",
"286 164 CURVE SMOOTH",
"329 406 LINE",
"525 406 LINE",
"541 496 LINE",
"345 496 LINE",
"368 626 LINE",
"286 626 LINE",
"257 546 LINE SMOOTH",
"245 512 OFFCURVE",
"222 496 OFFCURVE",
"188 496 CURVE SMOOTH",
"114 496 LINE",
"98 406 LINE",
"223 406 LINE",
"180 162 LINE SMOOTH",
"162 57 OFFCURVE",
"217 0 OFFCURVE",
"314 0 CURVE SMOOTH"
);
}
);
width = 600;
}
);
unicode = 0074;
},
{
glyphname = u;
lastChange = "2020-03-04 08:54:38 +0000";
layers = (
{
anchors = (
{
name = bottom;
position = "{256, 0}";
},
{
name = ogonek;
position = "{514, 0}";
},
{
name = top;
position = "{317, 496}";
},
{
name = topright;
position = "{624, 496}";
}
);
layerId = "7BD5169A-FC8C-41E9-B364-539909E84211";
paths = (
{
closed = 1;
nodes = (
"291 -12 OFFCURVE",
"339 19 OFFCURVE",
"377 71 CURVE",
"381 71 LINE",
"381 48 LINE SMOOTH",
"381 15 OFFCURVE",
"401 0 OFFCURVE",
"434 0 CURVE SMOOTH",
"514 0 LINE",
"525 60 LINE",
"473 60 LINE SMOOTH",
"457 60 OFFCURVE",
"449 70 OFFCURVE",
"452 85 CURVE SMOOTH",
"525 496 LINE",
"455 496 LINE",
"409 237 LINE SMOOTH",
"388 121 OFFCURVE",
"310 54 OFFCURVE",
"227 54 CURVE SMOOTH",
"142 54 OFFCURVE",
"111 109 OFFCURVE",
"127 201 CURVE SMOOTH",
"179 496 LINE",
"109 496 LINE",
"55 193 LINE SMOOTH",
"33 69 OFFCURVE",
"103 -12 OFFCURVE",
"207 -12 CURVE SMOOTH"
);
}
);
width = 600;
},
{
anchors = (
{
name = bottom;
position = "{256, 0}";
},
{
name = ogonek;
position = "{533, 0}";
},
{
name = top;
position = "{320, 496}";
},
{
name = topright;
position = "{624, 496}";
}
);
layerId = "80A0AA5A-C5CE-4148-884B-17CEBCBED218";
paths = (
{
closed = 1;
nodes = (
"276 -12 OFFCURVE",
"327 18 OFFCURVE",
"362 72 CURVE",
"367 72 LINE",
"367 64 LINE",
"367 25 OFFCURVE",
"392 0 OFFCURVE",
"441 0 CURVE SMOOTH",
"533 0 LINE",
"549 92 LINE",
"507 92 LINE SMOOTH",
"485 92 OFFCURVE",
"474 103 OFFCURVE",
"479 127 CURVE SMOOTH",
"544 496 LINE",
"438 496 LINE",
"393 239 LINE SMOOTH",
"376 142 OFFCURVE",
"317 88 OFFCURVE",
"244 88 CURVE SMOOTH",
"171 88 OFFCURVE",
"139 136 OFFCURVE",
"153 218 CURVE SMOOTH",
"202 496 LINE",
"96 496 LINE",
"46 211 LINE SMOOTH",
"22 80 OFFCURVE",
"86 -12 OFFCURVE",
"200 -12 CURVE SMOOTH"
);
}
);
width = 600;
}
);
unicode = 0075;
},
{
glyphname = v;
lastChange = "2020-03-04 08:54:38 +0000";
layers = (
{
associatedMasterId = "7BD5169A-FC8C-41E9-B364-539909E84211";
background = {
paths = (
{
closed = 1;
nodes = (
"296 0 LINE",
"604 496 LINE",
"518 496 LINE",
"266 80 LINE",
"162 496 LINE",
"84 496 LINE",
"216 0 LINE"
);
}
);
};
layerId = "725EB19C-031E-466A-B0A9-31774FCE3A47";
name = "Mar 2 20, 14:16";
paths = (
{
closed = 1;
nodes = (
"296 0 LINE",
"604 496 LINE",
"518 496 LINE",
"266 80 LINE",
"162 496 LINE",
"84 496 LINE",
"216 0 LINE"
);
}
);
width = 600;
},
{
anchors = (
{
name = bottom;
position = "{256, 0}";
},
{
name = top;
position = "{332, 496}";
}
);
background = {
paths = (
{
closed = 1;
nodes = (
"296 0 LINE",
"604 496 LINE",
"518 496 LINE",
"266 80 LINE",
"162 496 LINE",
"84 496 LINE",
"216 0 LINE"
);
}
);
};
layerId = "7BD5169A-FC8C-41E9-B364-539909E84211";
paths = (
{
closed = 1;
nodes = (
"296 0 LINE",
"503 335 LINE SMOOTH",
"524 368 OFFCURVE",
"534 395 OFFCURVE",
"541 434 CURVE SMOOTH",
"552 496 LINE",
"480 496 LINE",
"468 429 LINE SMOOTH",
"465 413 OFFCURVE",
"460 402 OFFCURVE",
"452 388 CURVE SMOOTH",
"266 80 LINE",
"162 496 LINE",
"84 496 LINE",
"216 0 LINE"
);
}
);
width = 600;
},
{
anchors = (
{
name = bottom;
position = "{256, 0}";
},
{
name = top;
position = "{332, 496}";
}
);
layerId = "80A0AA5A-C5CE-4148-884B-17CEBCBED218";
paths = (
{
closed = 1;
nodes = (
"321 0 LINE",
"499 282 LINE SMOOTH",
"525 323 OFFCURVE",
"536 352 OFFCURVE",
"546 407 CURVE SMOOTH",
"562 496 LINE",
"453 496 LINE",
"438 407 LINE SMOOTH",
"433 379 OFFCURVE",
"425 359 OFFCURVE",
"409 332 CURVE SMOOTH",
"273 110 LINE",
"181 496 LINE",
"65 496 LINE",
"192 0 LINE"
);
}
);
width = 600;
}
);
unicode = 0076;
},
{
glyphname = w;
lastChange = "2020-03-04 08:54:38 +0000";
layers = (
{
anchors = (
{
name = bottom;
position = "{256, 0}";
},
{
name = top;
position = "{344, 496}";
}
);
layerId = "7BD5169A-FC8C-41E9-B364-539909E84211";
paths = (
{
closed = 1;
nodes = (
"158 0 LINE",
"324 396 LINE",
"356 0 LINE",
"429 0 LINE",
"564 326 LINE SMOOTH",
"583 372 OFFCURVE",
"588 393 OFFCURVE",
"595 432 CURVE SMOOTH",
"607 496 LINE",
"540 496 LINE",
"529 437 LINE SMOOTH",
"523 406 OFFCURVE",
"517 387 OFFCURVE",
"503 352 CURVE SMOOTH",
"407 110 LINE",
"380 496 LINE",
"300 496 LINE",
"141 116 LINE",
"129 496 LINE",
"61 496 LINE",
"85 0 LINE"
);
}
);
width = 600;
},
{
anchors = (
{
name = bottom;
position = "{256, 0}";
},
{
name = top;
position = "{344, 496}";
}
);
associatedMasterId = "7BD5169A-FC8C-41E9-B364-539909E84211";
layerId = "12213B33-5E0A-4D19-900E-B5ED52B5A544";
name = "Mar 2 20, 14:17";
paths = (
{
closed = 1;
nodes = (
"158 0 LINE",
"343 438 LINE",
"322 438 LINE",
"356 0 LINE",
"429 0 LINE",
"627 496 LINE",
"553 496 LINE",
"392 71 LINE",
"410 71 LINE",
"381 496 LINE",
"301 496 LINE",
"122 71 LINE",
"142 71 LINE",
"129 496 LINE",
"61 496 LINE",
"85 0 LINE"
);
}
);
width = 600;
},
{
anchors = (
{
name = bottom;
position = "{256, 0}";
},
{
name = top;
position = "{344, 496}";
}
);
layerId = "80A0AA5A-C5CE-4148-884B-17CEBCBED218";
paths = (
{
closed = 1;
nodes = (
"185 0 LINE",
"320 358 LINE",
"332 0 LINE",
"442 0 LINE",
"566 294 LINE SMOOTH",
"587 342 OFFCURVE",
"595 371 OFFCURVE",
"604 424 CURVE SMOOTH",
"617 496 LINE",
"522 496 LINE",
"509 422 LINE SMOOTH",
"504 394 OFFCURVE",
"499 369 OFFCURVE",
"484 333 CURVE SMOOTH",
"409 142 LINE",
"397 496 LINE",
"285 496 LINE",
"153 148 LINE",
"151 496 LINE",
"52 496 LINE",
"72 0 LINE"
);
}
);
width = 600;
}
);
unicode = 0077;
},
{
glyphname = x;
lastChange = "2020-03-04 08:54:38 +0000";
layers = (
{
anchors = (
{
name = bottom;
position = "{256, 0}";
},
{
name = top;
position = "{344, 496}";
}
);
associatedMasterId = "7BD5169A-FC8C-41E9-B364-539909E84211";
background = {
anchors = (
{
name = bottom;
position = "{256, 0}";
},
{
name = top;
position = "{344, 496}";
}
);
paths = (
{
closed = 1;
nodes = (
"114 0 LINE",
"293 211 LINE",
"398 0 LINE",
"475 0 LINE",
"350 248 LINE",
"566 496 LINE",
"488 496 LINE",
"307 286 LINE",
"200 496 LINE",
"122 496 LINE",
"250 248 LINE",
"37 0 LINE"
);
}
);
};
layerId = "3EE9BB73-4F2D-4734-B6BD-F813C7F6CC5B";
name = "Mar 2 20, 14:28";
paths = (
{
closed = 1;
nodes = (
"122 0 LINE",
"294 204 LINE",
"400 0 LINE",
"475 0 LINE",
"349 245 LINE",
"566 496 LINE",
"482 496 LINE",
"305 292 LINE",
"197 496 LINE",
"122 496 LINE",
"253 251 LINE",
"37 0 LINE"
);
}
);
width = 600;
},
{
anchors = (
{
name = bottom;
position = "{256, 0}";
},
{
name = top;
position = "{344, 496}";
}
);
background = {
anchors = (
{
name = bottom;
position = "{256, 0}";
},
{
name = top;
position = "{344, 496}";
}
);
paths = (
{
closed = 1;
nodes = (
"114 0 LINE",
"293 211 LINE",
"398 0 LINE",
"475 0 LINE",
"350 248 LINE",
"566 496 LINE",
"488 496 LINE",
"307 286 LINE",
"200 496 LINE",
"122 496 LINE",
"250 248 LINE",
"37 0 LINE"
);
}
);
};
layerId = "7BD5169A-FC8C-41E9-B364-539909E84211";
paths = (
{
closed = 1;
nodes = (
"122 0 LINE",
"294 204 LINE",
"378 42 LINE SMOOTH",
"393 14 OFFCURVE",
"412 0 OFFCURVE",
"447 0 CURVE SMOOTH",
"520 0 LINE",
"531 60 LINE",
"464 60 LINE SMOOTH",
"450 60 OFFCURVE",
"441 66 OFFCURVE",
"435 78 CURVE SMOOTH",
"349 245 LINE",
"566 496 LINE",
"482 496 LINE",
"305 294 LINE",
"219 455 LINE SMOOTH",
"204 484 OFFCURVE",
"182 496 OFFCURVE",
"150 496 CURVE SMOOTH",
"81 496 LINE",
"70 436 LINE",
"134 436 LINE SMOOTH",
"148 436 OFFCURVE",
"157 430 OFFCURVE",
"163 418 CURVE SMOOTH",
"253 251 LINE",
"37 0 LINE"
);
}
);
width = 600;
},
{
anchors = (
{
name = bottom;
position = "{256, 0}";
},
{
name = top;
position = "{344, 496}";
}
);
layerId = "80A0AA5A-C5CE-4148-884B-17CEBCBED218";
paths = (
{
closed = 1;
nodes = (
"142 0 LINE",
"290 175 LINE",
"352 58 LINE SMOOTH",
"374 18 OFFCURVE",
"403 0 OFFCURVE",
"449 0 CURVE SMOOTH",
"526 0 LINE",
"543 92 LINE",
"471 92 LINE SMOOTH",
"455 92 OFFCURVE",
"443 99 OFFCURVE",
"436 113 CURVE SMOOTH",
"368 243 LINE",
"590 496 LINE",
"461 496 LINE",
"308 320 LINE",
"244 438 LINE SMOOTH",
"223 478 OFFCURVE",
"193 496 OFFCURVE",
"147 496 CURVE SMOOTH",
"78 496 LINE",
"61 404 LINE",
"127 404 LINE SMOOTH",
"142 404 OFFCURVE",
"153 398 OFFCURVE",
"161 383 CURVE SMOOTH",
"233 254 LINE",
"16 0 LINE"
);
}
);
width = 600;
}
);
unicode = 0078;
},
{
glyphname = y;
lastChange = "2020-03-04 08:54:38 +0000";
layers = (
{
anchors = (
{
name = bottom;
position = "{257, 0}";
},
{
name = top;
position = "{344, 496}";
}
);
layerId = "7BD5169A-FC8C-41E9-B364-539909E84211";
paths = (
{
closed = 1;
nodes = (
"147 -220 LINE",
"498 304 LINE SMOOTH",
"529 350 OFFCURVE",
"542 389 OFFCURVE",
"551 443 CURVE SMOOTH",
"560 496 LINE",
"490 496 LINE",
"477 428 LINE SMOOTH",
"471 396 OFFCURVE",
"463 376 OFFCURVE",
"446 348 CURVE",
"70 -220 LINE"
);
},
{
closed = 1;
nodes = (
"284 53 LINE",
"160 496 LINE",
"86 496 LINE",
"215 53 LINE"
);
}
);
width = 600;
},
{
anchors = (
{
name = bottom;
position = "{255, 0}";
},
{
name = top;
position = "{342, 496}";
}
);
layerId = "80A0AA5A-C5CE-4148-884B-17CEBCBED218";
paths = (
{
closed = 1;
nodes = (
"174 -220 LINE",
"503 270 LINE SMOOTH",
"538 323 OFFCURVE",
"554 365 OFFCURVE",
"565 426 CURVE SMOOTH",
"577 496 LINE",
"468 496 LINE",
"452 408 LINE SMOOTH",
"446 372 OFFCURVE",
"436 349 OFFCURVE",
"416 318 CURVE SMOOTH",
"53 -220 LINE"
);
},
{
closed = 1;
nodes = (
"305 41 LINE",
"176 496 LINE",
"67 496 LINE",
"201 41 LINE"
);
}
);
width = 600;
}
);
unicode = 0079;
},
{
glyphname = z;
lastChange = "2020-03-04 08:54:38 +0000";
layers = (
{
anchors = (
{
name = bottom;
position = "{256, 0}";
},
{
name = center;
position = "{300, 248}";
},
{
name = top;
position = "{344, 496}";
}
);
layerId = "7BD5169A-FC8C-41E9-B364-539909E84211";
paths = (
{
closed = 1;
nodes = (
"449 0 LINE",
"461 66 LINE",
"163 66 LINE",
"520 430 LINE",
"532 496 LINE",
"156 496 LINE",
"144 430 LINE",
"432 430 LINE",
"75 66 LINE",
"63 0 LINE"
);
}
);
width = 600;
},
{
anchors = (
{
name = bottom;
position = "{256, 0}";
},
{
name = center;
position = "{300, 248}";
},
{
name = top;
position = "{344, 496}";
}
);
layerId = "80A0AA5A-C5CE-4148-884B-17CEBCBED218";
paths = (
{
closed = 1;
nodes = (
"462 0 LINE",
"480 97 LINE",
"206 97 LINE",
"528 401 LINE",
"545 496 LINE",
"142 496 LINE",
"124 399 LINE",
"385 399 LINE",
"67 95 LINE",
"50 0 LINE"
);
}
);
width = 600;
}
);
unicode = 007A;
},
{
glyphname = a.ss02;
lastChange = "2020-03-04 08:54:38 +0000";
layers = (
{
anchors = (
{
name = bottom;
position = "{242, 0}";
},
{
name = ogonek;
position = "{521, 0}";
},
{
name = top;
position = "{333, 496}";
}
);
layerId = "7BD5169A-FC8C-41E9-B364-539909E84211";
paths = (
{
closed = 1;
nodes = (
"304 -12 OFFCURVE",
"348 26 OFFCURVE",
"382 75 CURVE",
"388 75 LINE",
"388 51 LINE SMOOTH",
"388 18 OFFCURVE",
"408 0 OFFCURVE",
"441 0 CURVE SMOOTH",
"521 0 LINE",
"532 60 LINE",
"480 60 LINE SMOOTH",
"465 60 OFFCURVE",
"456 67 OFFCURVE",
"459 82 CURVE SMOOTH",
"498 305 LINE SMOOTH",
"518 421 OFFCURVE",
"453 508 OFFCURVE",
"328 508 CURVE SMOOTH",
"214 508 OFFCURVE",
"130 453 OFFCURVE",
"106 353 CURVE",
"180 353 LINE",
"201 417 OFFCURVE",
"245 446 OFFCURVE",
"318 446 CURVE SMOOTH",
"408 446 OFFCURVE",
"443 390 OFFCURVE",
"428 304 CURVE SMOOTH",
"414 226 LINE SMOOTH",
"396 128 OFFCURVE",
"325 52 OFFCURVE",
"222 52 CURVE SMOOTH",
"162 52 OFFCURVE",
"125 88 OFFCURVE",
"125 139 CURVE SMOOTH",
"125 203 OFFCURVE",
"186 236 OFFCURVE",
"279 236 CURVE SMOOTH",
"431 236 LINE",
"441 296 LINE",
"274 296 LINE SMOOTH",
"136 296 OFFCURVE",
"51 238 OFFCURVE",
"51 131 CURVE SMOOTH",
"51 48 OFFCURVE",
"116 -12 OFFCURVE",
"209 -12 CURVE SMOOTH"
);
}
);
width = 600;
},
{
anchors = (
{
name = bottom;
position = "{251, 0}";
},
{
name = ogonek;
position = "{535, 0}";
},
{
name = top;
position = "{335, 496}";
}
);
layerId = "80A0AA5A-C5CE-4148-884B-17CEBCBED218";
paths = (
{
closed = 1;
nodes = (
"302 -12 OFFCURVE",
"343 24 OFFCURVE",
"375 71 CURVE",
"381 71 LINE",
"381 62 LINE",
"381 27 OFFCURVE",
"401 0 OFFCURVE",
"447 0 CURVE SMOOTH",
"535 0 LINE",
"552 92 LINE",
"517 92 LINE SMOOTH",
"493 92 OFFCURVE",
"485 105 OFFCURVE",
"488 125 CURVE SMOOTH",
"520 305 LINE SMOOTH",
"540 419 OFFCURVE",
"471 508 OFFCURVE",
"331 508 CURVE SMOOTH",
"200 508 OFFCURVE",
"122 443 OFFCURVE",
"99 339 CURVE",
"204 339 LINE",
"223 393 OFFCURVE",
"261 417 OFFCURVE",
"322 417 CURVE SMOOTH",
"394 417 OFFCURVE",
"426 373 OFFCURVE",
"413 303 CURVE SMOOTH",
"399 225 LINE SMOOTH",
"382 134 OFFCURVE",
"331 77 OFFCURVE",
"244 77 CURVE SMOOTH",
"197 77 OFFCURVE",
"163 103 OFFCURVE",
"163 144 CURVE SMOOTH",
"163 194 OFFCURVE",
"210 217 OFFCURVE",
"277 217 CURVE SMOOTH",
"413 217 LINE",
"427 294 LINE",
"269 294 LINE SMOOTH",
"136 294 OFFCURVE",
"49 244 OFFCURVE",
"49 132 CURVE SMOOTH",
"49 50 OFFCURVE",
"112 -12 OFFCURVE",
"208 -12 CURVE SMOOTH"
);
}
);
width = 600;
}
);
},
{
glyphname = ae.ss02;
lastChange = "2020-03-04 08:54:38 +0000";
layers = (
{
anchors = (
{
name = bottom;
position = "{256, 0}";
},
{
name = top;
position = "{344, 496}";
}
);
layerId = "7BD5169A-FC8C-41E9-B364-539909E84211";
paths = (
{
closed = 1;
nodes = (
"208 -12 OFFCURVE",
"245 28 OFFCURVE",
"272 87 CURVE",
"275 87 LINE",
"284 34 OFFCURVE",
"323 -12 OFFCURVE",
"394 -12 CURVE SMOOTH",
"488 -12 OFFCURVE",
"534 52 OFFCURVE",
"557 149 CURVE",
"489 149 LINE",
"468 83 OFFCURVE",
"439 54 OFFCURVE",
"395 54 CURVE SMOOTH",
"355 54 OFFCURVE",
"325 95 OFFCURVE",
"325 174 CURVE SMOOTH",
"325 193 OFFCURVE",
"328 214 OFFCURVE",
"331 233 CURVE",
"580 233 LINE",
"590 267 OFFCURVE",
"599 316 OFFCURVE",
"599 356 CURVE SMOOTH",
"599 448 OFFCURVE",
"556 508 OFFCURVE",
"475 508 CURVE SMOOTH",
"414 508 OFFCURVE",
"364 474 OFFCURVE",
"340 432 CURVE",
"328 476 OFFCURVE",
"288 508 OFFCURVE",
"219 508 CURVE SMOOTH",
"147 508 OFFCURVE",
"77 458 OFFCURVE",
"59 363 CURVE",
"130 363 LINE",
"143 417 OFFCURVE",
"174 446 OFFCURVE",
"216 446 CURVE SMOOTH",
"269 446 OFFCURVE",
"293 409 OFFCURVE",
"282 348 CURVE SMOOTH",
"273 297 LINE",
"208 297 LINE SMOOTH",
"85 297 OFFCURVE",
"-2 234 OFFCURVE",
"-2 125 CURVE SMOOTH",
"-2 44 OFFCURVE",
"52 -12 OFFCURVE",
"124 -12 CURVE SMOOTH"
);
},
{
closed = 1;
nodes = (
"101 52 OFFCURVE",
"72 81 OFFCURVE",
"72 127 CURVE SMOOTH",
"72 193 OFFCURVE",
"121 233 OFFCURVE",
"206 233 CURVE SMOOTH",
"261 233 LINE",
"251 176 LINE SMOOTH",
"237 95 OFFCURVE",
"198 52 OFFCURVE",
"141 52 CURVE SMOOTH"
);
},
{
closed = 1;
nodes = (
"366 392 OFFCURVE",
"406 444 OFFCURVE",
"464 444 CURVE SMOOTH",
"509 444 OFFCURVE",
"529 406 OFFCURVE",
"529 345 CURVE SMOOTH",
"529 329 OFFCURVE",
"528 316 OFFCURVE",
"525 297 CURVE",
"344 297 LINE"
);
}
);
width = 600;
},
{
anchors = (
{
name = bottom;
position = "{256, 0}";
},
{
name = top;
position = "{344, 496}";
}
);
layerId = "80A0AA5A-C5CE-4148-884B-17CEBCBED218";
paths = (
{
closed = 1;
nodes = (
"204 -12 OFFCURVE",
"243 28 OFFCURVE",
"266 76 CURVE",
"271 76 LINE",
"287 25 OFFCURVE",
"327 -12 OFFCURVE",
"392 -12 CURVE SMOOTH",
"492 -12 OFFCURVE",
"541 51 OFFCURVE",
"563 156 CURVE",
"465 156 LINE",
"451 108 OFFCURVE",
"429 83 OFFCURVE",
"394 83 CURVE SMOOTH",
"362 83 OFFCURVE",
"340 113 OFFCURVE",
"340 170 CURVE SMOOTH",
"340 186 OFFCURVE",
"342 205 OFFCURVE",
"345 224 CURVE",
"586 224 LINE",
"596 265 OFFCURVE",
"603 304 OFFCURVE",
"603 347 CURVE SMOOTH",
"603 443 OFFCURVE",
"560 508 OFFCURVE",
"468 508 CURVE SMOOTH",
"413 508 OFFCURVE",
"363 479 OFFCURVE",
"339 440 CURVE",
"322 480 OFFCURVE",
"279 508 OFFCURVE",
"220 508 CURVE SMOOTH",
"130 508 OFFCURVE",
"63 451 OFFCURVE",
"44 349 CURVE",
"142 349 LINE",
"154 395 OFFCURVE",
"180 417 OFFCURVE",
"214 417 CURVE SMOOTH",
"255 417 OFFCURVE",
"272 385 OFFCURVE",
"264 340 CURVE SMOOTH",
"257 302 LINE",
"199 302 LINE SMOOTH",
"73 302 OFFCURVE",
"-7 234 OFFCURVE",
"-7 126 CURVE SMOOTH",
"-7 45 OFFCURVE",
"46 -12 OFFCURVE",
"121 -12 CURVE SMOOTH"
);
},
{
closed = 1;
nodes = (
"122 77 OFFCURVE",
"99 100 OFFCURVE",
"99 136 CURVE SMOOTH",
"99 191 OFFCURVE",
"140 224 OFFCURVE",
"205 224 CURVE SMOOTH",
"244 224 LINE",
"234 173 LINE SMOOTH",
"222 107 OFFCURVE",
"196 77 OFFCURVE",
"152 77 CURVE SMOOTH"
);
},
{
closed = 1;
nodes = (
"377 375 OFFCURVE",
"407 416 OFFCURVE",
"451 416 CURVE SMOOTH",
"489 416 OFFCURVE",
"504 381 OFFCURVE",
"504 332 CURVE SMOOTH",
"504 322 OFFCURVE",
"503 313 OFFCURVE",
"501 302 CURVE",
"361 302 LINE"
);
}
);
width = 600;
}
);
},
{
glyphname = g.ss03;
lastChange = "2020-03-04 08:54:38 +0000";
layers = (
{
anchors = (
{
name = bottom;
position = "{262, 0}";
},
{
name = top;
position = "{349, 496}";
}
);
layerId = "7BD5169A-FC8C-41E9-B364-539909E84211";
paths = (
{
closed = 1;
nodes = (
"377 -232 OFFCURVE",
"453 -149 OFFCURVE",
"477 -10 CURVE SMOOTH",
"566 496 LINE",
"512 496 LINE",
"488 416 LINE",
"482 416 LINE",
"462 466 OFFCURVE",
"411 508 OFFCURVE",
"329 508 CURVE SMOOTH",
"163 508 OFFCURVE",
"69 363 OFFCURVE",
"69 206 CURVE SMOOTH",
"69 65 OFFCURVE",
"158 -12 OFFCURVE",
"260 -12 CURVE SMOOTH",
"343 -12 OFFCURVE",
"390 22 OFFCURVE",
"421 70 CURVE",
"408 -6 LINE SMOOTH",
"389 -118 OFFCURVE",
"328 -166 OFFCURVE",
"237 -166 CURVE SMOOTH",
"157 -166 OFFCURVE",
"103 -121 OFFCURVE",
"105 -55 CURVE",
"32 -55 LINE",
"29 -151 OFFCURVE",
"101 -232 OFFCURVE",
"231 -232 CURVE SMOOTH"
);
},
{
closed = 1;
nodes = (
"194 54 OFFCURVE",
"141 114 OFFCURVE",
"141 217 CURVE SMOOTH",
"141 333 OFFCURVE",
"207 442 OFFCURVE",
"330 442 CURVE SMOOTH",
"405 442 OFFCURVE",
"457 390 OFFCURVE",
"457 290 CURVE SMOOTH",
"457 165 OFFCURVE",
"397 54 OFFCURVE",
"271 54 CURVE SMOOTH"
);
}
);
width = 600;
},
{
anchors = (
{
name = bottom;
position = "{259, 0}";
},
{
name = top;
position = "{346, 496}";
}
);
layerId = "80A0AA5A-C5CE-4148-884B-17CEBCBED218";
paths = (
{
closed = 1;
nodes = (
"392 -232 OFFCURVE",
"470 -152 OFFCURVE",
"496 -2 CURVE SMOOTH",
"584 496 LINE",
"493 496 LINE",
"471 428 LINE",
"465 428 LINE",
"447 471 OFFCURVE",
"400 508 OFFCURVE",
"323 508 CURVE SMOOTH",
"158 508 OFFCURVE",
"55 372 OFFCURVE",
"55 213 CURVE SMOOTH",
"55 71 OFFCURVE",
"142 -12 OFFCURVE",
"251 -12 CURVE SMOOTH",
"327 -12 OFFCURVE",
"371 18 OFFCURVE",
"401 60 CURVE",
"390 -7 LINE SMOOTH",
"376 -89 OFFCURVE",
"323 -135 OFFCURVE",
"244 -135 CURVE SMOOTH",
"175 -135 OFFCURVE",
"134 -101 OFFCURVE",
"129 -52 CURVE",
"18 -52 LINE",
"18 -152 OFFCURVE",
"91 -232 OFFCURVE",
"229 -232 CURVE SMOOTH"
);
},
{
closed = 1;
nodes = (
"214 89 OFFCURVE",
"165 139 OFFCURVE",
"165 222 CURVE SMOOTH",
"165 321 OFFCURVE",
"221 407 OFFCURVE",
"327 407 CURVE SMOOTH",
"393 407 OFFCURVE",
"441 362 OFFCURVE",
"441 279 CURVE SMOOTH",
"441 176 OFFCURVE",
"385 89 OFFCURVE",
"282 89 CURVE SMOOTH"
);
}
);
width = 600;
}
);
},
{
glyphname = f.ss05;
lastChange = "2020-03-04 11:19:25 +0000";
layers = (
{
anchors = (
{
name = bottom;
position = "{219, 0}";
},
{
name = top;
position = "{383, 720}";
}
);
layerId = "7BD5169A-FC8C-41E9-B364-539909E84211";
paths = (
{
closed = 1;
nodes = (
"254 0 LINE",
"357 582 LINE SMOOTH",
"366 635 OFFCURVE",
"390 654 OFFCURVE",
"442 654 CURVE SMOOTH",
"560 654 LINE",
"572 720 LINE",
"453 720 LINE SMOOTH",
"350 720 OFFCURVE",
"304 679 OFFCURVE",
"287 582 CURVE SMOOTH",
"184 0 LINE"
);
},
{
closed = 1;
nodes = (
"522 436 LINE",
"532 496 LINE",
"150 496 LINE",
"140 436 LINE"
);
}
);
width = 600;
},
{
anchors = (
{
name = bottom;
position = "{225, 0}";
},
{
name = top;
position = "{383, 720}";
}
);
layerId = "80A0AA5A-C5CE-4148-884B-17CEBCBED218";
paths = (
{
closed = 1;
nodes = (
"278 0 LINE",
"377 564 LINE SMOOTH",
"385 610 OFFCURVE",
"406 627 OFFCURVE",
"453 627 CURVE SMOOTH",
"561 627 LINE",
"578 720 LINE",
"457 720 LINE SMOOTH",
"347 720 OFFCURVE",
"290 676 OFFCURVE",
"271 565 CURVE SMOOTH",
"172 0 LINE"
);
},
{
closed = 1;
nodes = (
"522 406 LINE",
"538 496 LINE",
"133 496 LINE",
"118 406 LINE"
);
}
);
width = 600;
}
);
},
{
glyphname = ordfeminine;
lastChange = "2020-03-04 08:54:38 +0000";
layers = (
{
layerId = "7BD5169A-FC8C-41E9-B364-539909E84211";
paths = (
{
closed = 1;
nodes = (
"350 290 OFFCURVE",
"392 318 OFFCURVE",
"418 362 CURVE",
"423 362 LINE",
"423 346 LINE SMOOTH",
"423 317 OFFCURVE",
"439 300 OFFCURVE",
"467 300 CURVE SMOOTH",
"534 300 LINE",
"544 357 LINE",
"505 357 LINE SMOOTH",
"491 357 OFFCURVE",
"483 364 OFFCURVE",
"486 380 CURVE SMOOTH",
"543 697 LINE",
"476 697 LINE",
"466 639 LINE",
"453 674 OFFCURVE",
"414 706 OFFCURVE",
"353 706 CURVE SMOOTH",
"213 706 OFFCURVE",
"137 595 OFFCURVE",
"137 472 CURVE SMOOTH",
"137 356 OFFCURVE",
"202 290 OFFCURVE",
"287 290 CURVE SMOOTH"
);
},
{
closed = 1;
nodes = (
"244 353 OFFCURVE",
"205 399 OFFCURVE",
"205 480 CURVE SMOOTH",
"205 564 OFFCURVE",
"258 644 OFFCURVE",
"351 644 CURVE SMOOTH",
"407 644 OFFCURVE",
"445 605 OFFCURVE",
"445 527 CURVE SMOOTH",
"445 439 OFFCURVE",
"396 353 OFFCURVE",
"304 353 CURVE SMOOTH"
);
}
);
width = 600;
},
{
layerId = "80A0AA5A-C5CE-4148-884B-17CEBCBED218";
paths = (
{
closed = 1;
nodes = (
"342 290 OFFCURVE",
"380 317 OFFCURVE",
"402 360 CURVE",
"406 360 LINE",
"406 355 LINE",
"406 325 OFFCURVE",
"426 300 OFFCURVE",
"464 300 CURVE SMOOTH",
"542 300 LINE",
"556 381 LINE",
"525 381 LINE SMOOTH",
"507 381 OFFCURVE",
"497 389 OFFCURVE",
"500 410 CURVE",
"552 697 LINE",
"459 697 LINE",
"450 648 LINE",
"437 680 OFFCURVE",
"399 706 OFFCURVE",
"341 706 CURVE SMOOTH",
"200 706 OFFCURVE",
"127 593 OFFCURVE",
"127 474 CURVE SMOOTH",
"127 353 OFFCURVE",
"195 290 OFFCURVE",
"280 290 CURVE SMOOTH"
);
},
{
closed = 1;
nodes = (
"261 378 OFFCURVE",
"223 416 OFFCURVE",
"223 482 CURVE SMOOTH",
"223 553 OFFCURVE",
"267 619 OFFCURVE",
"345 619 CURVE SMOOTH",
"395 619 OFFCURVE",
"430 584 OFFCURVE",
"430 521 CURVE SMOOTH",
"430 447 OFFCURVE",
"390 378 OFFCURVE",
"311 378 CURVE SMOOTH"
);
}
);
width = 600;
}
);
unicode = 00AA;
userData = {
RMXScaler = {
source = a;
};
};
},
{
glyphname = ordmasculine;
lastChange = "2020-03-04 08:54:38 +0000";
layers = (
{
layerId = "7BD5169A-FC8C-41E9-B364-539909E84211";
paths = (
{
closed = 1;
nodes = (
"451 290 OFFCURVE",
"540 395 OFFCURVE",
"540 523 CURVE SMOOTH",
"540 634 OFFCURVE",
"471 706 OFFCURVE",
"368 706 CURVE SMOOTH",
"238 706 OFFCURVE",
"149 602 OFFCURVE",
"149 474 CURVE SMOOTH",
"149 362 OFFCURVE",
"218 290 OFFCURVE",
"322 290 CURVE SMOOTH"
);
},
{
closed = 1;
nodes = (
"261 354 OFFCURVE",
"218 395 OFFCURVE",
"218 481 CURVE SMOOTH",
"218 570 OFFCURVE",
"273 643 OFFCURVE",
"365 643 CURVE SMOOTH",
"428 643 OFFCURVE",
"472 601 OFFCURVE",
"472 516 CURVE SMOOTH",
"472 427 OFFCURVE",
"417 354 OFFCURVE",
"324 354 CURVE SMOOTH"
);
}
);
width = 600;
},
{
layerId = "80A0AA5A-C5CE-4148-884B-17CEBCBED218";
paths = (
{
closed = 1;
nodes = (
"462 290 OFFCURVE",
"548 397 OFFCURVE",
"548 522 CURVE SMOOTH",
"548 630 OFFCURVE",
"478 706 OFFCURVE",
"369 706 CURVE SMOOTH",
"229 706 OFFCURVE",
"141 600 OFFCURVE",
"141 476 CURVE SMOOTH",
"141 366 OFFCURVE",
"209 290 OFFCURVE",
"322 290 CURVE SMOOTH"
);
},
{
closed = 1;
nodes = (
"273 377 OFFCURVE",
"234 413 OFFCURVE",
"234 483 CURVE SMOOTH",
"234 558 OFFCURVE",
"283 619 OFFCURVE",
"362 619 CURVE SMOOTH",
"416 619 OFFCURVE",
"456 582 OFFCURVE",
"456 514 CURVE SMOOTH",
"456 438 OFFCURVE",
"406 377 OFFCURVE",
"327 377 CURVE SMOOTH"
);
}
);
width = 600;
}
);
unicode = 00BA;
userData = {
RMXScaler = {
source = o;
};
};
},
{
glyphname = pi;
lastChange = "2020-03-04 08:54:38 +0000";
layers = (
{
layerId = "7BD5169A-FC8C-41E9-B364-539909E84211";
paths = (
{
closed = 1;
nodes = (
"158 0 LINE",
"235 436 LINE",
"431 436 LINE",
"379 145 LINE SMOOTH",
"362 51 OFFCURVE",
"414 0 OFFCURVE",
"500 0 CURVE SMOOTH",
"524 0 LINE",
"536 64 LINE",
"527 64 LINE SMOOTH",
"463 64 OFFCURVE",
"439 89 OFFCURVE",
"449 145 CURVE SMOOTH",
"501 436 LINE",
"601 436 LINE",
"612 496 LINE",
"76 496 LINE",
"65 436 LINE",
"165 436 LINE",
"88 0 LINE"
);
}
);
width = 600;
},
{
layerId = "80A0AA5A-C5CE-4148-884B-17CEBCBED218";
paths = (
{
closed = 1;
nodes = (
"175 0 LINE",
"247 406 LINE",
"409 406 LINE",
"366 162 LINE SMOOTH",
"347 57 OFFCURVE",
"403 0 OFFCURVE",
"500 0 CURVE SMOOTH",
"531 0 LINE",
"548 94 LINE",
"536 94 LINE SMOOTH",
"483 94 OFFCURVE",
"464 121 OFFCURVE",
"472 164 CURVE SMOOTH",
"515 406 LINE",
"603 406 LINE",
"619 496 LINE",
"69 496 LINE",
"53 406 LINE",
"141 406 LINE",
"69 0 LINE"
);
}
);
width = 600;
}
);
unicode = 03C0;
},
{
glyphname = zero;
lastChange = "2020-03-04 08:54:38 +0000";
layers = (
{
layerId = "7BD5169A-FC8C-41E9-B364-539909E84211";
paths = (
{
closed = 1;
nodes = (
"458 -12 OFFCURVE",
"590 208 OFFCURVE",
"590 414 CURVE SMOOTH",
"590 601 OFFCURVE",
"514 712 OFFCURVE",
"374 712 CURVE SMOOTH",
"178 712 OFFCURVE",
"46 492 OFFCURVE",
"46 286 CURVE SMOOTH",
"46 99 OFFCURVE",
"122 -12 OFFCURVE",
"262 -12 CURVE SMOOTH"
);
},
{
closed = 1;
nodes = (
"174 51 OFFCURVE",
"119 146 OFFCURVE",
"119 293 CURVE SMOOTH",
"119 449 OFFCURVE",
"217 648 OFFCURVE",
"371 648 CURVE SMOOTH",
"462 648 OFFCURVE",
"517 554 OFFCURVE",
"517 407 CURVE SMOOTH",
"517 251 OFFCURVE",
"420 51 OFFCURVE",
"265 51 CURVE SMOOTH"
);
},
{
closed = 1;
nodes = (
"519 629 LINE",
"462 657 LINE",
"117 71 LINE",
"174 43 LINE"
);
}
);
width = 600;
},
{
layerId = "80A0AA5A-C5CE-4148-884B-17CEBCBED218";
paths = (
{
closed = 1;
nodes = (
"475 -12 OFFCURVE",
"595 207 OFFCURVE",
"595 422 CURVE SMOOTH",
"595 603 OFFCURVE",
"515 712 OFFCURVE",
"375 712 CURVE SMOOTH",
"161 712 OFFCURVE",
"41 492 OFFCURVE",
"41 278 CURVE SMOOTH",
"41 97 OFFCURVE",
"121 -12 OFFCURVE",
"261 -12 CURVE SMOOTH"
);
},
{
closed = 1;
nodes = (
"196 86 OFFCURVE",
"151 163 OFFCURVE",
"151 289 CURVE SMOOTH",
"151 439 OFFCURVE",
"236 613 OFFCURVE",
"365 613 CURVE SMOOTH",
"440 613 OFFCURVE",
"485 537 OFFCURVE",
"485 411 CURVE SMOOTH",
"485 261 OFFCURVE",
"400 86 OFFCURVE",
"271 86 CURVE SMOOTH"
);
},
{
closed = 1;
nodes = (
"530 628 LINE",
"448 663 LINE",
"106 72 LINE",
"188 37 LINE"
);
}
);
width = 600;
}
);
unicode = 0030;
},
{
glyphname = one;
lastChange = "2020-03-04 08:54:38 +0000";
layers = (
{
background = {
paths = (
{
closed = 1;
nodes = (
"284 0 LINE",
"408 700 LINE",
"359 700 LINE",
"151 633 LINE",
"142 582 LINE",
"323 617 LINE",
"214 0 LINE"
);
},
{
closed = 1;
nodes = (
"479 0 LINE",
"491 64 LINE",
"41 64 LINE",
"29 0 LINE"
);
}
);
};
layerId = "7BD5169A-FC8C-41E9-B364-539909E84211";
paths = (
{
closed = 1;
nodes = (
"284 0 LINE",
"408 700 LINE",
"359 700 LINE",
"151 633 LINE",
"141 578 LINE",
"322 613 LINE",
"214 0 LINE"
);
},
{
closed = 1;
nodes = (
"479 0 LINE",
"491 64 LINE",
"41 64 LINE",
"29 0 LINE"
);
}
);
width = 600;
},
{
layerId = "80A0AA5A-C5CE-4148-884B-17CEBCBED218";
paths = (
{
closed = 1;
nodes = (
"301 0 LINE",
"425 700 LINE",
"360 700 LINE",
"142 631 LINE",
"126 541 LINE",
"295 571 LINE",
"195 0 LINE"
);
},
{
closed = 1;
nodes = (
"487 0 LINE",
"504 95 LINE",
"39 95 LINE",
"22 0 LINE"
);
}
);
width = 600;
}
);
unicode = 0031;
},
{
glyphname = two;
lastChange = "2020-03-04 08:54:38 +0000";
layers = (
{
layerId = "7BD5169A-FC8C-41E9-B364-539909E84211";
paths = (
{
closed = 1;
nodes = (
"488 0 LINE",
"500 64 LINE",
"167 64 LINE",
"353 181 OFFCURVE",
"562 322 OFFCURVE",
"562 514 CURVE SMOOTH",
"562 633 OFFCURVE",
"488 712 OFFCURVE",
"367 712 CURVE SMOOTH",
"223 712 OFFCURVE",
"144 629 OFFCURVE",
"122 495 CURVE",
"192 495 LINE",
"205 584 OFFCURVE",
"269 648 OFFCURVE",
"359 648 CURVE SMOOTH",
"440 648 OFFCURVE",
"489 598 OFFCURVE",
"489 509 CURVE SMOOTH",
"489 355 OFFCURVE",
"261 191 OFFCURVE",
"43 54 CURVE",
"33 0 LINE"
);
}
);
width = 600;
},
{
layerId = "80A0AA5A-C5CE-4148-884B-17CEBCBED218";
paths = (
{
closed = 1;
nodes = (
"499 0 LINE",
"515 91 LINE",
"210 91 LINE",
"383 204 OFFCURVE",
"572 334 OFFCURVE",
"572 516 CURVE SMOOTH",
"572 632 OFFCURVE",
"498 712 OFFCURVE",
"366 712 CURVE SMOOTH",
"217 712 OFFCURVE",
"135 630 OFFCURVE",
"113 486 CURVE",
"216 486 LINE",
"227 561 OFFCURVE",
"275 616 OFFCURVE",
"353 616 CURVE SMOOTH",
"421 616 OFFCURVE",
"462 574 OFFCURVE",
"462 505 CURVE SMOOTH",
"462 377 OFFCURVE",
"281 242 OFFCURVE",
"41 84 CURVE",
"26 0 LINE"
);
}
);
width = 600;
}
);
unicode = 0032;
},
{
glyphname = three;
lastChange = "2020-03-04 08:54:38 +0000";
layers = (
{
layerId = "7BD5169A-FC8C-41E9-B364-539909E84211";
paths = (
{
closed = 1;
nodes = (
"442 -12 OFFCURVE",
"538 88 OFFCURVE",
"538 222 CURVE SMOOTH",
"538 301 OFFCURVE",
"491 352 OFFCURVE",
"429 375 CURVE",
"431 381 LINE",
"509 407 OFFCURVE",
"564 466 OFFCURVE",
"564 548 CURVE SMOOTH",
"564 646 OFFCURVE",
"500 712 OFFCURVE",
"377 712 CURVE SMOOTH",
"248 712 OFFCURVE",
"163 632 OFFCURVE",
"145 523 CURVE",
"217 523 LINE",
"233 597 OFFCURVE",
"289 648 OFFCURVE",
"370 648 CURVE SMOOTH",
"450 648 OFFCURVE",
"490 603 OFFCURVE",
"490 549 CURVE SMOOTH",
"490 455 OFFCURVE",
"424 410 OFFCURVE",
"316 410 CURVE SMOOTH",
"263 410 LINE",
"251 346 LINE",
"305 346 LINE SMOOTH",
"399 346 OFFCURVE",
"465 301 OFFCURVE",
"465 211 CURVE SMOOTH",
"465 109 OFFCURVE",
"386 52 OFFCURVE",
"276 52 CURVE SMOOTH",
"182 52 OFFCURVE",
"119 107 OFFCURVE",
"131 205 CURVE",
"59 205 LINE",
"43 81 OFFCURVE",
"127 -12 OFFCURVE",
"273 -12 CURVE SMOOTH"
);
}
);
width = 600;
},
{
layerId = "80A0AA5A-C5CE-4148-884B-17CEBCBED218";
paths = (
{
closed = 1;
nodes = (
"446 -12 OFFCURVE",
"544 81 OFFCURVE",
"544 224 CURVE SMOOTH",
"544 302 OFFCURVE",
"498 350 OFFCURVE",
"442 373 CURVE",
"443 379 LINE",
"514 403 OFFCURVE",
"570 450 OFFCURVE",
"570 541 CURVE SMOOTH",
"570 635 OFFCURVE",
"504 712 OFFCURVE",
"370 712 CURVE SMOOTH",
"232 712 OFFCURVE",
"144 633 OFFCURVE",
"124 511 CURVE",
"229 511 LINE",
"241 573 OFFCURVE",
"290 614 OFFCURVE",
"361 614 CURVE SMOOTH",
"426 614 OFFCURVE",
"462 580 OFFCURVE",
"462 530 CURVE SMOOTH",
"462 458 OFFCURVE",
"401 420 OFFCURVE",
"312 420 CURVE SMOOTH",
"257 420 LINE",
"240 326 LINE",
"300 326 LINE SMOOTH",
"380 326 OFFCURVE",
"438 290 OFFCURVE",
"438 215 CURVE SMOOTH",
"438 134 OFFCURVE",
"377 86 OFFCURVE",
"278 86 CURVE SMOOTH",
"197 86 OFFCURVE",
"146 139 OFFCURVE",
"155 213 CURVE",
"49 213 LINE",
"34 80 OFFCURVE",
"128 -12 OFFCURVE",
"273 -12 CURVE SMOOTH"
);
}
);
width = 600;
}
);
unicode = 0033;
},
{
glyphname = four;
lastChange = "2020-03-04 08:54:38 +0000";
layers = (
{
background = {
paths = (
{
closed = 1;
nodes = (
"417 0 LINE",
"447 169 LINE",
"554 169 LINE",
"565 233 LINE",
"458 233 LINE",
"541 700 LINE",
"458 700 LINE",
"49 222 LINE",
"40 169 LINE",
"378 169 LINE",
"348 0 LINE"
);
},
{
closed = 1;
nodes = (
"460 616 LINE",
"392 233 LINE",
"130 233 LINE"
);
}
);
};
layerId = "7BD5169A-FC8C-41E9-B364-539909E84211";
paths = (
{
closed = 1;
nodes = (
"417 0 LINE",
"447 169 LINE",
"554 169 LINE",
"565 233 LINE",
"458 233 LINE",
"541 700 LINE",
"454 700 LINE",
"49 222 LINE",
"40 169 LINE",
"378 169 LINE",
"348 0 LINE"
);
},
{
closed = 1;
nodes = (
"460 616 LINE",
"392 233 LINE",
"135 233 LINE"
);
}
);
width = 600;
},
{
layerId = "80A0AA5A-C5CE-4148-884B-17CEBCBED218";
paths = (
{
closed = 1;
nodes = (
"440 0 LINE",
"467 151 LINE",
"558 151 LINE",
"575 247 LINE",
"483 247 LINE",
"564 700 LINE",
"432 700 LINE",
"44 234 LINE",
"29 151 LINE",
"361 151 LINE",
"334 0 LINE"
);
},
{
closed = 1;
nodes = (
"443 581 LINE",
"384 247 LINE",
"168 247 LINE"
);
}
);
width = 600;
}
);
unicode = 0034;
},
{
glyphname = five;
lastChange = "2020-03-04 08:54:38 +0000";
layers = (
{
layerId = "7BD5169A-FC8C-41E9-B364-539909E84211";
paths = (
{
closed = 1;
nodes = (
"468 -12 OFFCURVE",
"563 120 OFFCURVE",
"563 269 CURVE SMOOTH",
"563 400 OFFCURVE",
"477 477 OFFCURVE",
"364 477 CURVE SMOOTH",
"290 477 OFFCURVE",
"234 447 OFFCURVE",
"198 410 CURVE",
"194 410 LINE",
"271 636 LINE",
"585 636 LINE",
"597 700 LINE",
"222 700 LINE",
"100 317 LINE",
"166 317 LINE",
"210 373 OFFCURVE",
"274 413 OFFCURVE",
"354 413 CURVE SMOOTH",
"441 413 OFFCURVE",
"494 354 OFFCURVE",
"494 262 CURVE SMOOTH",
"494 145 OFFCURVE",
"421 52 OFFCURVE",
"292 52 CURVE SMOOTH",
"201 52 OFFCURVE",
"144 109 OFFCURVE",
"143 191 CURVE",
"71 191 LINE",
"73 87 OFFCURVE",
"137 -12 OFFCURVE",
"289 -12 CURVE SMOOTH"
);
}
);
width = 600;
},
{
layerId = "80A0AA5A-C5CE-4148-884B-17CEBCBED218";
paths = (
{
closed = 1;
nodes = (
"472 -12 OFFCURVE",
"569 111 OFFCURVE",
"569 270 CURVE SMOOTH",
"569 394 OFFCURVE",
"491 479 OFFCURVE",
"370 479 CURVE SMOOTH",
"303 479 OFFCURVE",
"258 456 OFFCURVE",
"227 423 CURVE",
"220 423 LINE",
"285 602 LINE",
"583 602 LINE",
"600 700 LINE",
"212 700 LINE",
"89 306 LINE",
"191 306 LINE",
"222 353 OFFCURVE",
"272 387 OFFCURVE",
"339 387 CURVE SMOOTH",
"414 387 OFFCURVE",
"465 337 OFFCURVE",
"465 260 CURVE SMOOTH",
"465 158 OFFCURVE",
"405 86 OFFCURVE",
"297 86 CURVE SMOOTH",
"223 86 OFFCURVE",
"172 134 OFFCURVE",
"169 195 CURVE",
"61 195 LINE",
"62 76 OFFCURVE",
"148 -12 OFFCURVE",
"293 -12 CURVE SMOOTH"
);
}
);
width = 600;
}
);
unicode = 0035;
},
{
glyphname = six;
lastChange = "2020-03-04 08:54:38 +0000";
layers = (
{
layerId = "7BD5169A-FC8C-41E9-B364-539909E84211";
paths = (
{
closed = 1;
nodes = (
"434 -12 OFFCURVE",
"544 100 OFFCURVE",
"544 246 CURVE SMOOTH",
"544 365 OFFCURVE",
"462 447 OFFCURVE",
"346 447 CURVE SMOOTH",
"250 447 OFFCURVE",
"177 401 OFFCURVE",
"138 338 CURVE",
"134 338 LINE",
"176 550 OFFCURVE",
"284 648 OFFCURVE",
"395 648 CURVE SMOOTH",
"474 648 OFFCURVE",
"522 599 OFFCURVE",
"524 523 CURVE",
"591 523 LINE",
"586 645 OFFCURVE",
"523 712 OFFCURVE",
"406 712 CURVE SMOOTH",
"198 712 OFFCURVE",
"60 501 OFFCURVE",
"60 251 CURVE SMOOTH",
"60 92 OFFCURVE",
"131 -12 OFFCURVE",
"286 -12 CURVE SMOOTH"
);
},
{
closed = 1;
nodes = (
"196 52 OFFCURVE",
"140 114 OFFCURVE",
"140 199 CURVE SMOOTH",
"140 298 OFFCURVE",
"221 383 OFFCURVE",
"333 383 CURVE SMOOTH",
"419 383 OFFCURVE",
"471 324 OFFCURVE",
"471 240 CURVE SMOOTH",
"471 134 OFFCURVE",
"387 52 OFFCURVE",
"277 52 CURVE SMOOTH"
);
}
);
width = 600;
},
{
layerId = "80A0AA5A-C5CE-4148-884B-17CEBCBED218";
paths = (
{
closed = 1;
nodes = (
"433 -12 OFFCURVE",
"548 96 OFFCURVE",
"548 247 CURVE SMOOTH",
"548 369 OFFCURVE",
"460 450 OFFCURVE",
"350 450 CURVE SMOOTH",
"261 450 OFFCURVE",
"199 409 OFFCURVE",
"166 358 CURVE",
"159 358 LINE",
"192 524 OFFCURVE",
"283 616 OFFCURVE",
"379 616 CURVE SMOOTH",
"446 616 OFFCURVE",
"492 578 OFFCURVE",
"496 515 CURVE",
"595 515 LINE",
"593 633 OFFCURVE",
"526 712 OFFCURVE",
"394 712 CURVE SMOOTH",
"180 712 OFFCURVE",
"51 489 OFFCURVE",
"51 268 CURVE SMOOTH",
"51 105 OFFCURVE",
"121 -12 OFFCURVE",
"290 -12 CURVE SMOOTH"
);
},
{
closed = 1;
nodes = (
"214 84 OFFCURVE",
"166 137 OFFCURVE",
"166 206 CURVE SMOOTH",
"166 290 OFFCURVE",
"227 355 OFFCURVE",
"321 355 CURVE SMOOTH",
"394 355 OFFCURVE",
"441 306 OFFCURVE",
"441 237 CURVE SMOOTH",
"441 150 OFFCURVE",
"375 84 OFFCURVE",
"284 84 CURVE SMOOTH"
);
}
);
width = 600;
}
);
unicode = 0036;
},
{
glyphname = seven;
lastChange = "2020-03-04 08:54:38 +0000";
layers = (
{
layerId = "7BD5169A-FC8C-41E9-B364-539909E84211";
paths = (
{
closed = 1;
nodes = (
"216 0 LINE",
"599 642 LINE",
"610 700 LINE",
"146 700 LINE",
"134 636 LINE",
"521 636 LINE",
"136 0 LINE"
);
}
);
width = 600;
},
{
layerId = "80A0AA5A-C5CE-4148-884B-17CEBCBED218";
paths = (
{
closed = 1;
nodes = (
"232 0 LINE",
"600 618 LINE",
"614 700 LINE",
"139 700 LINE",
"121 604 LINE",
"481 604 LINE",
"116 0 LINE"
);
}
);
width = 600;
}
);
unicode = 0037;
},
{
glyphname = eight;
lastChange = "2020-03-04 08:54:38 +0000";
layers = (
{
layerId = "7BD5169A-FC8C-41E9-B364-539909E84211";
paths = (
{
closed = 1;
nodes = (
"414 -12 OFFCURVE",
"514 87 OFFCURVE",
"514 215 CURVE SMOOTH",
"514 291 OFFCURVE",
"479 340 OFFCURVE",
"435 364 CURVE",
"436 368 LINE",
"508 392 OFFCURVE",
"562 459 OFFCURVE",
"562 542 CURVE SMOOTH",
"562 639 OFFCURVE",
"483 712 OFFCURVE",
"370 712 CURVE SMOOTH",
"238 712 OFFCURVE",
"136 631 OFFCURVE",
"136 512 CURVE SMOOTH",
"136 451 OFFCURVE",
"169 405 OFFCURVE",
"213 378 CURVE",
"212 374 LINE",
"120 347 OFFCURVE",
"58 275 OFFCURVE",
"58 180 CURVE SMOOTH",
"58 72 OFFCURVE",
"137 -12 OFFCURVE",
"260 -12 CURVE SMOOTH"
);
},
{
closed = 1;
nodes = (
"187 52 OFFCURVE",
"130 100 OFFCURVE",
"130 184 CURVE SMOOTH",
"130 275 OFFCURVE",
"202 338 OFFCURVE",
"310 338 CURVE SMOOTH",
"387 338 OFFCURVE",
"442 288 OFFCURVE",
"442 212 CURVE SMOOTH",
"442 113 OFFCURVE",
"373 52 OFFCURVE",
"268 52 CURVE SMOOTH"
);
},
{
closed = 1;
nodes = (
"252 400 OFFCURVE",
"206 446 OFFCURVE",
"206 512 CURVE SMOOTH",
"206 593 OFFCURVE",
"271 648 OFFCURVE",
"362 648 CURVE SMOOTH",
"445 648 OFFCURVE",
"492 603 OFFCURVE",
"492 535 CURVE SMOOTH",
"492 456 OFFCURVE",
"426 400 OFFCURVE",
"330 400 CURVE SMOOTH"
);
}
);
width = 600;
},
{
layerId = "80A0AA5A-C5CE-4148-884B-17CEBCBED218";
paths = (
{
closed = 1;
nodes = (
"427 -12 OFFCURVE",
"534 85 OFFCURVE",
"534 221 CURVE SMOOTH",
"534 296 OFFCURVE",
"496 344 OFFCURVE",
"453 366 CURVE",
"455 373 LINE",
"524 400 OFFCURVE",
"573 463 OFFCURVE",
"573 541 CURVE SMOOTH",
"573 635 OFFCURVE",
"499 712 OFFCURVE",
"369 712 CURVE SMOOTH",
"221 712 OFFCURVE",
"122 633 OFFCURVE",
"122 508 CURVE SMOOTH",
"122 451 OFFCURVE",
"157 404 OFFCURVE",
"196 379 CURVE",
"194 373 LINE",
"108 346 OFFCURVE",
"46 276 OFFCURVE",
"46 186 CURVE SMOOTH",
"46 73 OFFCURVE",
"127 -12 OFFCURVE",
"269 -12 CURVE SMOOTH"
);
},
{
closed = 1;
nodes = (
"203 84 OFFCURVE",
"152 127 OFFCURVE",
"152 192 CURVE SMOOTH",
"152 274 OFFCURVE",
"218 324 OFFCURVE",
"311 324 CURVE SMOOTH",
"383 324 OFFCURVE",
"429 283 OFFCURVE",
"429 218 CURVE SMOOTH",
"429 137 OFFCURVE",
"367 84 OFFCURVE",
"274 84 CURVE SMOOTH"
);
},
{
closed = 1;
nodes = (
"269 411 OFFCURVE",
"226 451 OFFCURVE",
"226 506 CURVE SMOOTH",
"226 574 OFFCURVE",
"280 619 OFFCURVE",
"360 619 CURVE SMOOTH",
"426 619 OFFCURVE",
"470 581 OFFCURVE",
"470 526 CURVE SMOOTH",
"470 458 OFFCURVE",
"414 411 OFFCURVE",
"334 411 CURVE SMOOTH"
);
}
);
width = 600;
}
);
unicode = 0038;
},
{
glyphname = nine;
lastChange = "2020-03-04 08:54:38 +0000";
layers = (
{
layerId = "7BD5169A-FC8C-41E9-B364-539909E84211";
paths = (
{
closed = 1;
nodes = (
"445 -12 OFFCURVE",
"583 199 OFFCURVE",
"583 449 CURVE SMOOTH",
"583 612 OFFCURVE",
"515 712 OFFCURVE",
"362 712 CURVE SMOOTH",
"214 712 OFFCURVE",
"99 600 OFFCURVE",
"99 454 CURVE SMOOTH",
"99 335 OFFCURVE",
"182 253 OFFCURVE",
"298 253 CURVE SMOOTH",
"394 253 OFFCURVE",
"467 299 OFFCURVE",
"506 362 CURVE",
"510 362 LINE",
"468 150 OFFCURVE",
"363 52 OFFCURVE",
"255 52 CURVE SMOOTH",
"171 52 OFFCURVE",
"123 103 OFFCURVE",
"119 177 CURVE",
"52 177 LINE",
"57 58 OFFCURVE",
"124 -12 OFFCURVE",
"246 -12 CURVE SMOOTH"
);
},
{
closed = 1;
nodes = (
"224 317 OFFCURVE",
"172 376 OFFCURVE",
"172 460 CURVE SMOOTH",
"172 566 OFFCURVE",
"245 648 OFFCURVE",
"362 648 CURVE SMOOTH",
"443 648 OFFCURVE",
"503 586 OFFCURVE",
"503 501 CURVE SMOOTH",
"503 402 OFFCURVE",
"422 317 OFFCURVE",
"310 317 CURVE SMOOTH"
);
}
);
width = 600;
},
{
layerId = "80A0AA5A-C5CE-4148-884B-17CEBCBED218";
paths = (
{
closed = 1;
nodes = (
"472 -12 OFFCURVE",
"589 211 OFFCURVE",
"589 432 CURVE SMOOTH",
"589 596 OFFCURVE",
"522 712 OFFCURVE",
"352 712 CURVE SMOOTH",
"209 712 OFFCURVE",
"92 607 OFFCURVE",
"92 455 CURVE SMOOTH",
"92 331 OFFCURVE",
"183 250 OFFCURVE",
"295 250 CURVE SMOOTH",
"389 250 OFFCURVE",
"442 291 OFFCURVE",
"474 342 CURVE",
"481 342 LINE",
"449 175 OFFCURVE",
"362 84 OFFCURVE",
"263 84 CURVE SMOOTH",
"193 84 OFFCURVE",
"153 126 OFFCURVE",
"147 185 CURVE",
"45 185 LINE",
"47 68 OFFCURVE",
"123 -12 OFFCURVE",
"255 -12 CURVE SMOOTH"
);
},
{
closed = 1;
nodes = (
"246 345 OFFCURVE",
"199 395 OFFCURVE",
"199 464 CURVE SMOOTH",
"199 552 OFFCURVE",
"261 616 OFFCURVE",
"354 616 CURVE SMOOTH",
"426 616 OFFCURVE",
"474 565 OFFCURVE",
"474 494 CURVE SMOOTH",
"474 410 OFFCURVE",
"413 345 OFFCURVE",
"319 345 CURVE SMOOTH"
);
}
);
width = 600;
}
);
unicode = 0039;
},
{
glyphname = three.ss04;
lastChange = "2020-03-04 11:21:49 +0000";
layers = (
{
layerId = "7BD5169A-FC8C-41E9-B364-539909E84211";
paths = (
{
closed = 1;
nodes = (
"432 -12 OFFCURVE",
"537 94 OFFCURVE",
"537 239 CURVE SMOOTH",
"537 353 OFFCURVE",
"448 427 OFFCURVE",
"341 427 CURVE SMOOTH",
"341 427 LINE",
"342 433 LINE",
"577 642 LINE",
"587 700 LINE",
"177 700 LINE",
"165 636 LINE",
"481 636 LINE",
"243 421 LINE",
"233 368 LINE",
"314 368 LINE SMOOTH",
"406 368 OFFCURVE",
"464 323 OFFCURVE",
"464 228 CURVE SMOOTH",
"464 126 OFFCURVE",
"393 52 OFFCURVE",
"268 52 CURVE SMOOTH",
"176 52 OFFCURVE",
"109 122 OFFCURVE",
"121 207 CURVE",
"51 207 LINE",
"40 78 OFFCURVE",
"128 -12 OFFCURVE",
"265 -12 CURVE SMOOTH"
);
}
);
width = 600;
},
{
layerId = "80A0AA5A-C5CE-4148-884B-17CEBCBED218";
paths = (
{
closed = 1;
nodes = (
"437 -12 OFFCURVE",
"546 100 OFFCURVE",
"546 240 CURVE SMOOTH",
"546 367 OFFCURVE",
"466 423 OFFCURVE",
"373 440 CURVE SMOOTH",
"373 440 LINE",
"374 446 LINE",
"576 609 LINE",
"592 700 LINE",
"171 700 LINE",
"155 609 LINE",
"428 609 LINE",
"236 440 LINE",
"220 352 LINE",
"299 352 LINE SMOOTH",
"385 352 OFFCURVE",
"440 310 OFFCURVE",
"440 234 CURVE SMOOTH",
"440 152 OFFCURVE",
"380 86 OFFCURVE",
"279 86 CURVE SMOOTH",
"203 86 OFFCURVE",
"144 142 OFFCURVE",
"154 213 CURVE",
"48 213 LINE",
"29 76 OFFCURVE",
"133 -12 OFFCURVE",
"273 -12 CURVE SMOOTH"
);
}
);
width = 600;
}
);
},
{
glyphname = six.ss04;
lastChange = "2020-03-04 11:24:09 +0000";
layers = (
{
layerId = "7BD5169A-FC8C-41E9-B364-539909E84211";
paths = (
{
closed = 1;
nodes = (
"435 -12 OFFCURVE",
"544 100 OFFCURVE",
"544 246 CURVE SMOOTH",
"544 357 OFFCURVE",
"464 447 OFFCURVE",
"357 447 CURVE SMOOTH",
"310 447 OFFCURVE",
"261 433 OFFCURVE",
"229 406 CURVE",
"226 410 LINE",
"482 700 LINE",
"392 700 LINE",
"200 476 LINE SMOOTH",
"121 383 OFFCURVE",
"71 318 OFFCURVE",
"71 204 CURVE SMOOTH",
"71 73 OFFCURVE",
"164 -12 OFFCURVE",
"283 -12 CURVE SMOOTH"
);
},
{
closed = 1;
nodes = (
"201 52 OFFCURVE",
"145 117 OFFCURVE",
"145 204 CURVE SMOOTH",
"145 299 OFFCURVE",
"219 383 OFFCURVE",
"328 383 CURVE SMOOTH",
"414 383 OFFCURVE",
"471 323 OFFCURVE",
"471 239 CURVE SMOOTH",
"471 133 OFFCURVE",
"398 52 OFFCURVE",
"284 52 CURVE SMOOTH"
);
}
);
width = 600;
},
{
layerId = "80A0AA5A-C5CE-4148-884B-17CEBCBED218";
paths = (
{
closed = 1;
nodes = (
"448 -12 OFFCURVE",
"553 101 OFFCURVE",
"553 243 CURVE SMOOTH",
"553 364 OFFCURVE",
"471 450 OFFCURVE",
"365 450 CURVE SMOOTH",
"335 450 OFFCURVE",
"300 443 OFFCURVE",
"275 426 CURVE",
"268 431 LINE",
"506 700 LINE",
"372 700 LINE",
"185 478 LINE SMOOTH",
"113 393 OFFCURVE",
"57 319 OFFCURVE",
"57 207 CURVE SMOOTH",
"57 68 OFFCURVE",
"152 -12 OFFCURVE",
"290 -12 CURVE SMOOTH"
);
},
{
closed = 1;
nodes = (
"217 84 OFFCURVE",
"166 139 OFFCURVE",
"166 203 CURVE SMOOTH",
"166 288 OFFCURVE",
"227 355 OFFCURVE",
"321 355 CURVE SMOOTH",
"392 355 OFFCURVE",
"445 302 OFFCURVE",
"445 231 CURVE SMOOTH",
"445 144 OFFCURVE",
"379 84 OFFCURVE",
"289 84 CURVE SMOOTH"
);
}
);
width = 600;
}
);
},
{
glyphname = nine.ss04;
lastChange = "2020-03-04 11:24:33 +0000";
layers = (
{
layerId = "7BD5169A-FC8C-41E9-B364-539909E84211";
paths = (
{
closed = 1;
nodes = (
"244 0 LINE",
"436 224 LINE SMOOTH",
"515 317 OFFCURVE",
"565 382 OFFCURVE",
"565 496 CURVE SMOOTH",
"565 627 OFFCURVE",
"472 712 OFFCURVE",
"353 712 CURVE SMOOTH",
"201 712 OFFCURVE",
"92 600 OFFCURVE",
"92 454 CURVE SMOOTH",
"92 343 OFFCURVE",
"172 253 OFFCURVE",
"279 253 CURVE SMOOTH",
"326 253 OFFCURVE",
"375 267 OFFCURVE",
"407 294 CURVE",
"410 290 LINE",
"154 0 LINE"
);
},
{
closed = 1;
nodes = (
"222 317 OFFCURVE",
"165 377 OFFCURVE",
"165 461 CURVE SMOOTH",
"165 567 OFFCURVE",
"238 648 OFFCURVE",
"352 648 CURVE SMOOTH",
"435 648 OFFCURVE",
"491 583 OFFCURVE",
"491 496 CURVE SMOOTH",
"491 401 OFFCURVE",
"417 317 OFFCURVE",
"308 317 CURVE SMOOTH"
);
}
);
width = 600;
},
{
layerId = "80A0AA5A-C5CE-4148-884B-17CEBCBED218";
paths = (
{
closed = 1;
nodes = (
"264 0 LINE",
"451 222 LINE SMOOTH",
"523 307 OFFCURVE",
"579 381 OFFCURVE",
"579 493 CURVE SMOOTH",
"579 632 OFFCURVE",
"484 712 OFFCURVE",
"346 712 CURVE SMOOTH",
"188 712 OFFCURVE",
"83 599 OFFCURVE",
"83 457 CURVE SMOOTH",
"83 336 OFFCURVE",
"165 250 OFFCURVE",
"271 250 CURVE SMOOTH",
"301 250 OFFCURVE",
"336 257 OFFCURVE",
"361 274 CURVE",
"368 269 LINE",
"130 0 LINE"
);
},
{
closed = 1;
nodes = (
"244 345 OFFCURVE",
"191 398 OFFCURVE",
"191 469 CURVE SMOOTH",
"191 556 OFFCURVE",
"257 616 OFFCURVE",
"347 616 CURVE SMOOTH",
"419 616 OFFCURVE",
"470 561 OFFCURVE",
"470 497 CURVE SMOOTH",
"470 412 OFFCURVE",
"409 345 OFFCURVE",
"315 345 CURVE SMOOTH"
);
}
);
width = 600;
}
);
},
{
glyphname = onesuperior;
lastChange = "2020-03-04 08:54:38 +0000";
layers = (
{
background = {
paths = (
{
closed = 1;
nodes = (
"330 280 LINE",
"404 700 LINE",
"367 700 LINE",
"238 659 LINE",
"230 613 LINE",
"334 632 LINE",
"272 280 LINE"
);
},
{
closed = 1;
nodes = (
"443 280 LINE",
"452 332 LINE",
"175 332 LINE",
"166 280 LINE"
);
}
);
};
layerId = "7BD5169A-FC8C-41E9-B364-539909E84211";
paths = (
{
closed = 1;
nodes = (
"330 280 LINE",
"404 700 LINE",
"367 700 LINE",
"238 659 LINE",
"229 609 LINE",
"333 628 LINE",
"272 280 LINE"
);
},
{
closed = 1;
nodes = (
"443 280 LINE",
"452 332 LINE",
"175 332 LINE",
"166 280 LINE"
);
}
);
width = 600;
},
{
layerId = "80A0AA5A-C5CE-4148-884B-17CEBCBED218";
paths = (
{
closed = 1;
nodes = (
"342 280 LINE",
"416 700 LINE",
"369 700 LINE",
"232 657 LINE",
"218 582 LINE",
"314 597 LINE",
"258 280 LINE"
);
},
{
closed = 1;
nodes = (
"449 280 LINE",
"462 354 LINE",
"174 354 LINE",
"161 280 LINE"
);
}
);
width = 600;
}
);
unicode = 00B9;
userData = {
RMXScaler = {
source = one;
};
};
},
{
glyphname = twosuperior;
lastChange = "2020-03-04 08:54:38 +0000";
layers = (
{
layerId = "7BD5169A-FC8C-41E9-B364-539909E84211";
paths = (
{
closed = 1;
nodes = (
"452 280 LINE",
"461 331 LINE",
"277 331 LINE",
"384 394 OFFCURVE",
"496 489 OFFCURVE",
"496 588 CURVE SMOOTH",
"496 660 OFFCURVE",
"453 707 OFFCURVE",
"374 707 CURVE SMOOTH",
"290 707 OFFCURVE",
"238 660 OFFCURVE",
"224 573 CURVE",
"280 573 LINE",
"288 615 OFFCURVE",
"312 655 OFFCURVE",
"367 655 CURVE SMOOTH",
"411 655 OFFCURVE",
"436 630 OFFCURVE",
"436 583 CURVE SMOOTH",
"436 504 OFFCURVE",
"340 427 OFFCURVE",
"179 326 CURVE",
"171 280 LINE"
);
}
);
width = 600;
},
{
layerId = "80A0AA5A-C5CE-4148-884B-17CEBCBED218";
paths = (
{
closed = 1;
nodes = (
"456 280 LINE",
"468 350 LINE",
"301 350 LINE",
"401 408 OFFCURVE",
"500 489 OFFCURVE",
"500 586 CURVE SMOOTH",
"500 656 OFFCURVE",
"456 707 OFFCURVE",
"370 707 CURVE SMOOTH",
"283 707 OFFCURVE",
"226 659 OFFCURVE",
"213 567 CURVE",
"294 567 LINE",
"300 599 OFFCURVE",
"320 632 OFFCURVE",
"361 632 CURVE SMOOTH",
"394 632 OFFCURVE",
"412 613 OFFCURVE",
"412 576 CURVE SMOOTH",
"412 506 OFFCURVE",
"320 440 OFFCURVE",
"173 347 CURVE",
"162 280 LINE"
);
}
);
width = 600;
}
);
unicode = 00B2;
userData = {
RMXScaler = {
source = two;
};
};
},
{
glyphname = threesuperior;
lastChange = "2020-03-04 08:54:38 +0000";
layers = (
{
layerId = "7BD5169A-FC8C-41E9-B364-539909E84211";
paths = (
{
closed = 1;
nodes = (
"417 273 OFFCURVE",
"478 326 OFFCURVE",
"478 410 CURVE SMOOTH",
"478 458 OFFCURVE",
"456 486 OFFCURVE",
"428 501 CURVE",
"429 505 LINE",
"462 519 OFFCURVE",
"495 551 OFFCURVE",
"495 601 CURVE SMOOTH",
"495 661 OFFCURVE",
"450 707 OFFCURVE",
"378 707 CURVE SMOOTH",
"298 707 OFFCURVE",
"243 661 OFFCURVE",
"229 588 CURVE",
"287 588 LINE",
"295 628 OFFCURVE",
"327 654 OFFCURVE",
"372 654 CURVE SMOOTH",
"410 654 OFFCURVE",
"435 630 OFFCURVE",
"435 593 CURVE SMOOTH",
"435 547 OFFCURVE",
"397 530 OFFCURVE",
"339 530 CURVE SMOOTH",
"307 530 LINE",
"298 478 LINE",
"335 478 LINE SMOOTH",
"386 478 OFFCURVE",
"420 456 OFFCURVE",
"420 412 CURVE SMOOTH",
"420 357 OFFCURVE",
"384 326 OFFCURVE",
"322 326 CURVE SMOOTH",
"271 326 OFFCURVE",
"238 368 OFFCURVE",
"241 407 CURVE",
"183 407 LINE",
"177 333 OFFCURVE",
"231 273 OFFCURVE",
"317 273 CURVE SMOOTH"
);
}
);
width = 600;
},
{
layerId = "80A0AA5A-C5CE-4148-884B-17CEBCBED218";
paths = (
{
closed = 1;
nodes = (
"425 273 OFFCURVE",
"481 330 OFFCURVE",
"481 414 CURVE SMOOTH",
"481 458 OFFCURVE",
"458 487 OFFCURVE",
"429 500 CURVE",
"430 503 LINE",
"466 516 OFFCURVE",
"498 548 OFFCURVE",
"498 599 CURVE SMOOTH",
"498 659 OFFCURVE",
"454 707 OFFCURVE",
"374 707 CURVE SMOOTH",
"285 707 OFFCURVE",
"227 657 OFFCURVE",
"214 579 CURVE",
"296 579 LINE",
"303 610 OFFCURVE",
"328 630 OFFCURVE",
"364 630 CURVE SMOOTH",
"394 630 OFFCURVE",
"414 612 OFFCURVE",
"414 583 CURVE SMOOTH",
"414 551 OFFCURVE",
"385 536 OFFCURVE",
"337 536 CURVE SMOOTH",
"303 536 LINE",
"290 464 LINE",
"331 464 LINE SMOOTH",
"372 464 OFFCURVE",
"399 449 OFFCURVE",
"399 413 CURVE SMOOTH",
"399 372 OFFCURVE",
"368 350 OFFCURVE",
"322 350 CURVE SMOOTH",
"283 350 OFFCURVE",
"257 379 OFFCURVE",
"258 413 CURVE",
"176 413 LINE",
"166 330 OFFCURVE",
"232 273 OFFCURVE",
"317 273 CURVE SMOOTH"
);
}
);
width = 600;
}
);
unicode = 00B3;
userData = {
RMXScaler = {
source = three;
};
};
},
{
glyphname = foursuperior;
lastChange = "2020-03-04 08:54:38 +0000";
layers = (
{
layerId = "7BD5169A-FC8C-41E9-B364-539909E84211";
paths = (
{
closed = 1;
nodes = (
"413 280 LINE",
"429 373 LINE",
"486 373 LINE",
"496 426 LINE",
"439 426 LINE",
"487 700 LINE",
"411 700 LINE",
"179 419 LINE",
"171 373 LINE",
"371 373 LINE",
"355 280 LINE"
);
},
{
closed = 1;
nodes = (
"420 634 LINE",
"384 426 LINE",
"251 426 LINE"
);
}
);
width = 600;
},
{
layerId = "80A0AA5A-C5CE-4148-884B-17CEBCBED218";
paths = (
{
closed = 1;
nodes = (
"428 280 LINE",
"442 360 LINE",
"499 360 LINE",
"513 436 LINE",
"456 436 LINE",
"502 700 LINE",
"394 700 LINE",
"174 428 LINE",
"162 360 LINE",
"358 360 LINE",
"344 280 LINE"
);
},
{
closed = 1;
nodes = (
"407 609 LINE",
"377 436 LINE",
"273 436 LINE"
);
}
);
width = 600;
}
);
unicode = 2074;
userData = {
RMXScaler = {
source = four;
};
};
},
{
glyphname = fraction;
lastChange = "2020-03-04 08:54:38 +0000";
layers = (
{
layerId = "7BD5169A-FC8C-41E9-B364-539909E84211";
paths = (
{
closed = 1;
nodes = (
"507 326 LINE",
"517 378 LINE",
"131 378 LINE",
"121 326 LINE"
);
}
);
width = 600;
},
{
layerId = "80A0AA5A-C5CE-4148-884B-17CEBCBED218";
paths = (
{
closed = 1;
nodes = (
"509 322 LINE",
"520 382 LINE",
"129 382 LINE",
"117 322 LINE"
);
}
);
width = 600;
}
);
unicode = 2044;
},
{
glyphname = onehalf;
lastChange = "2020-03-04 08:54:38 +0000";
layers = (
{
layerId = "7BD5169A-FC8C-41E9-B364-539909E84211";
paths = (
{
closed = 1;
nodes = (
"360 0 LINE",
"369 50 LINE",
"255 50 LINE",
"329 89 OFFCURVE",
"390 133 OFFCURVE",
"390 202 CURVE SMOOTH",
"390 257 OFFCURVE",
"356 286 OFFCURVE",
"295 286 CURVE SMOOTH",
"230 286 OFFCURVE",
"193 253 OFFCURVE",
"183 191 CURVE",
"241 191 LINE",
"246 213 OFFCURVE",
"260 232 OFFCURVE",
"289 232 CURVE SMOOTH",
"311 232 OFFCURVE",
"326 221 OFFCURVE",
"326 196 CURVE SMOOTH",
"326 149 OFFCURVE",
"262 109 OFFCURVE",
"157 48 CURVE",
"148 0 LINE"
);
},
{
closed = 1;
nodes = (
"503 326 LINE",
"512 378 LINE",
"126 378 LINE",
"117 326 LINE"
);
},
{
closed = 1;
nodes = (
"435 417 LINE",
"444 470 LINE",
"236 470 LINE",
"227 417 LINE"
);
},
{
closed = 1;
nodes = (
"358 417 LINE",
"408 699 LINE",
"374 699 LINE",
"275 670 LINE",
"266 619 LINE",
"335 631 LINE",
"297 417 LINE"
);
}
);
width = 600;
},
{
layerId = "80A0AA5A-C5CE-4148-884B-17CEBCBED218";
paths = (
{
closed = 1;
nodes = (
"364 0 LINE",
"375 61 LINE",
"267 61 LINE",
"332 95 OFFCURVE",
"394 134 OFFCURVE",
"394 200 CURVE SMOOTH",
"394 256 OFFCURVE",
"358 286 OFFCURVE",
"297 286 CURVE SMOOTH",
"232 286 OFFCURVE",
"189 254 OFFCURVE",
"180 187 CURVE",
"252 187 LINE",
"255 204 OFFCURVE",
"266 220 OFFCURVE",
"288 220 CURVE SMOOTH",
"305 220 OFFCURVE",
"315 210 OFFCURVE",
"315 193 CURVE SMOOTH",
"315 155 OFFCURVE",
"247 112 OFFCURVE",
"156 60 CURVE",
"146 0 LINE"
);
},
{
closed = 1;
nodes = (
"508 322 LINE",
"518 382 LINE",
"127 382 LINE",
"116 322 LINE"
);
},
{
closed = 1;
nodes = (
"441 417 LINE",
"453 482 LINE",
"238 482 LINE",
"227 417 LINE"
);
},
{
closed = 1;
nodes = (
"367 417 LINE",
"417 699 LINE",
"378 699 LINE",
"274 669 LINE",
"263 605 LINE",
"328 613 LINE",
"293 417 LINE"
);
}
);
width = 600;
}
);
unicode = 00BD;
},
{
glyphname = onequarter;
lastChange = "2020-03-04 08:54:38 +0000";
layers = (
{
background = {
paths = (
{
closed = 1;
nodes = (
"323 -1 LINE",
"332 51 LINE",
"365 51 LINE",
"375 105 LINE",
"342 105 LINE",
"373 281 LINE",
"301 281 LINE",
"140 100 LINE",
"131 51 LINE",
"271 51 LINE",
"262 -1 LINE"
);
},
{
closed = 1;
nodes = (
"305 216 LINE",
"285 105 LINE",
"207 105 LINE"
);
},
{
closed = 1;
nodes = (
"507 326 LINE",
"516 378 LINE",
"130 378 LINE",
"121 326 LINE"
);
},
{
closed = 1;
nodes = (
"439 417 LINE",
"448 470 LINE",
"240 470 LINE",
"231 417 LINE"
);
},
{
closed = 1;
nodes = (
"362 417 LINE",
"412 699 LINE",
"378 699 LINE",
"279 670 LINE",
"270 619 LINE",
"338 629 LINE",
"301 417 LINE"
);
}
);
};
layerId = "7BD5169A-FC8C-41E9-B364-539909E84211";
paths = (
{
closed = 1;
nodes = (
"323 -1 LINE",
"332 51 LINE",
"365 51 LINE",
"375 105 LINE",
"342 105 LINE",
"373 281 LINE",
"295 281 LINE",
"140 100 LINE",
"131 51 LINE",
"271 51 LINE",
"262 -1 LINE"
);
},
{
closed = 1;
nodes = (
"305 216 LINE",
"285 105 LINE",
"212 105 LINE"
);
},
{
closed = 1;
nodes = (
"507 326 LINE",
"516 378 LINE",
"130 378 LINE",
"121 326 LINE"
);
},
{
closed = 1;
nodes = (
"439 417 LINE",
"448 470 LINE",
"240 470 LINE",
"231 417 LINE"
);
},
{
closed = 1;
nodes = (
"362 417 LINE",
"412 699 LINE",
"378 699 LINE",
"279 670 LINE",
"270 619 LINE",
"338 629 LINE",
"301 417 LINE"
);
}
);
width = 600;
},
{
layerId = "80A0AA5A-C5CE-4148-884B-17CEBCBED218";
paths = (
{
closed = 1;
nodes = (
"335 0 LINE",
"344 49 LINE",
"371 49 LINE",
"381 109 LINE",
"354 109 LINE",
"385 281 LINE",
"289 281 LINE",
"140 104 LINE",
"130 49 LINE",
"269 49 LINE",
"260 0 LINE"
);
},
{
closed = 1;
nodes = (
"302 202 LINE",
"285 109 LINE",
"226 109 LINE"
);
},
{
closed = 1;
nodes = (
"509 322 LINE",
"520 382 LINE",
"128 382 LINE",
"118 322 LINE"
);
},
{
closed = 1;
nodes = (
"443 417 LINE",
"454 482 LINE",
"240 482 LINE",
"229 417 LINE"
);
},
{
closed = 1;
nodes = (
"369 417 LINE",
"419 699 LINE",
"379 699 LINE",
"276 669 LINE",
"264 605 LINE",
"329 612 LINE",
"294 417 LINE"
);
}
);
width = 600;
}
);
unicode = 00BC;
},
{
glyphname = threequarters;
lastChange = "2020-03-04 08:54:38 +0000";
layers = (
{
layerId = "7BD5169A-FC8C-41E9-B364-539909E84211";
paths = (
{
closed = 1;
nodes = (
"323 -1 LINE",
"332 51 LINE",
"365 51 LINE",
"375 105 LINE",
"342 105 LINE",
"373 281 LINE",
"295 281 LINE",
"140 100 LINE",
"131 51 LINE",
"271 51 LINE",
"262 -1 LINE"
);
},
{
closed = 1;
nodes = (
"305 216 LINE",
"285 105 LINE",
"212 105 LINE"
);
},
{
closed = 1;
nodes = (
"507 326 LINE",
"517 378 LINE",
"131 378 LINE",
"121 326 LINE"
);
},
{
closed = 1;
nodes = (
"413 413 OFFCURVE",
"455 450 OFFCURVE",
"455 511 CURVE SMOOTH",
"455 538 OFFCURVE",
"437 560 OFFCURVE",
"411 564 CURVE",
"412 566 LINE",
"439 575 OFFCURVE",
"463 596 OFFCURVE",
"463 630 CURVE SMOOTH",
"463 672 OFFCURVE",
"432 704 OFFCURVE",
"375 704 CURVE SMOOTH",
"309 704 OFFCURVE",
"273 672 OFFCURVE",
"262 617 CURVE",
"321 617 LINE",
"325 636 OFFCURVE",
"341 649 OFFCURVE",
"367 649 CURVE SMOOTH",
"390 649 OFFCURVE",
"403 639 OFFCURVE",
"403 621 CURVE SMOOTH",
"403 602 OFFCURVE",
"383 590 OFFCURVE",
"356 590 CURVE SMOOTH",
"326 590 LINE",
"317 539 LINE",
"345 539 LINE SMOOTH",
"374 539 OFFCURVE",
"396 527 OFFCURVE",
"396 506 CURVE SMOOTH",
"396 481 OFFCURVE",
"375 468 OFFCURVE",
"342 468 CURVE SMOOTH",
"314 468 OFFCURVE",
"294 484 OFFCURVE",
"294 507 CURVE",
"235 507 LINE",
"230 454 OFFCURVE",
"271 413 OFFCURVE",
"334 413 CURVE SMOOTH"
);
}
);
width = 600;
},
{
layerId = "80A0AA5A-C5CE-4148-884B-17CEBCBED218";
paths = (
{
closed = 1;
nodes = (
"335 0 LINE",
"344 49 LINE",
"371 49 LINE",
"381 109 LINE",
"354 109 LINE",
"385 281 LINE",
"289 281 LINE",
"140 104 LINE",
"130 49 LINE",
"269 49 LINE",
"260 0 LINE"
);
},
{
closed = 1;
nodes = (
"302 202 LINE",
"285 109 LINE",
"226 109 LINE"
);
},
{
closed = 1;
nodes = (
"509 322 LINE",
"520 382 LINE",
"129 382 LINE",
"117 322 LINE"
);
},
{
closed = 1;
nodes = (
"420 413 OFFCURVE",
"457 456 OFFCURVE",
"457 510 CURVE SMOOTH",
"457 540 OFFCURVE",
"440 559 OFFCURVE",
"417 566 CURVE",
"417 568 LINE",
"443 577 OFFCURVE",
"465 595 OFFCURVE",
"465 632 CURVE SMOOTH",
"465 672 OFFCURVE",
"433 704 OFFCURVE",
"371 704 CURVE SMOOTH",
"307 704 OFFCURVE",
"265 670 OFFCURVE",
"255 612 CURVE",
"326 612 LINE",
"329 627 OFFCURVE",
"343 639 OFFCURVE",
"365 639 CURVE SMOOTH",
"383 639 OFFCURVE",
"395 631 OFFCURVE",
"395 616 CURVE SMOOTH",
"395 601 OFFCURVE",
"381 591 OFFCURVE",
"354 591 CURVE SMOOTH",
"323 591 LINE",
"313 534 LINE",
"343 534 LINE SMOOTH",
"369 534 OFFCURVE",
"385 526 OFFCURVE",
"385 507 CURVE SMOOTH",
"385 488 OFFCURVE",
"369 477 OFFCURVE",
"343 477 CURVE SMOOTH",
"318 477 OFFCURVE",
"301 491 OFFCURVE",
"302 510 CURVE",
"231 510 LINE",
"224 453 OFFCURVE",
"274 413 OFFCURVE",
"337 413 CURVE SMOOTH"
);
}
);
width = 600;
}
);
unicode = 00BE;
},
{
glyphname = period;
lastChange = "2020-03-04 08:54:38 +0000";
layers = (
{
layerId = "7BD5169A-FC8C-41E9-B364-539909E84211";
paths = (
{
closed = 1;
nodes = (
"304 0 OFFCURVE",
"334 30 OFFCURVE",
"334 66 CURVE SMOOTH",
"334 102 OFFCURVE",
"304 132 OFFCURVE",
"268 132 CURVE SMOOTH",
"232 132 OFFCURVE",
"202 102 OFFCURVE",
"202 66 CURVE SMOOTH",
"202 30 OFFCURVE",
"232 0 OFFCURVE",
"268 0 CURVE SMOOTH"
);
}
);
width = 600;
},
{
layerId = "80A0AA5A-C5CE-4148-884B-17CEBCBED218";
paths = (
{
closed = 1;
nodes = (
"321 -6 OFFCURVE",
"359 31 OFFCURVE",
"359 78 CURVE SMOOTH",
"359 125 OFFCURVE",
"321 161 OFFCURVE",
"270 161 CURVE SMOOTH",
"220 161 OFFCURVE",
"181 125 OFFCURVE",
"181 78 CURVE SMOOTH",
"181 31 OFFCURVE",
"220 -6 OFFCURVE",
"270 -6 CURVE SMOOTH"
);
}
);
width = 600;
}
);
unicode = 002E;
},
{
glyphname = comma;
lastChange = "2020-03-04 08:54:38 +0000";
layers = (
{
layerId = "7BD5169A-FC8C-41E9-B364-539909E84211";
paths = (
{
closed = 1;
nodes = (
"181 -120 LINE",
"333 142 LINE",
"237 142 LINE",
"112 -120 LINE"
);
}
);
width = 600;
},
{
layerId = "80A0AA5A-C5CE-4148-884B-17CEBCBED218";
paths = (
{
closed = 1;
nodes = (
"192 -125 LINE",
"363 155 LINE",
"220 155 LINE",
"82 -125 LINE"
);
}
);
width = 600;
}
);
unicode = 002C;
},
{
glyphname = ellipsis;
lastChange = "2020-03-04 08:54:38 +0000";
layers = (
{
layerId = "7BD5169A-FC8C-41E9-B364-539909E84211";
paths = (
{
closed = 1;
nodes = (
"104 0 OFFCURVE",
"134 30 OFFCURVE",
"134 66 CURVE SMOOTH",
"134 102 OFFCURVE",
"104 132 OFFCURVE",
"68 132 CURVE SMOOTH",
"32 132 OFFCURVE",
"2 102 OFFCURVE",
"2 66 CURVE SMOOTH",
"2 30 OFFCURVE",
"32 0 OFFCURVE",
"68 0 CURVE SMOOTH"
);
},
{
closed = 1;
nodes = (
"304 0 OFFCURVE",
"334 30 OFFCURVE",
"334 66 CURVE SMOOTH",
"334 102 OFFCURVE",
"304 132 OFFCURVE",
"268 132 CURVE SMOOTH",
"232 132 OFFCURVE",
"202 102 OFFCURVE",
"202 66 CURVE SMOOTH",
"202 30 OFFCURVE",
"232 0 OFFCURVE",
"268 0 CURVE SMOOTH"
);
},
{
closed = 1;
nodes = (
"504 0 OFFCURVE",
"534 30 OFFCURVE",
"534 66 CURVE SMOOTH",
"534 102 OFFCURVE",
"504 132 OFFCURVE",
"468 132 CURVE SMOOTH",
"432 132 OFFCURVE",
"402 102 OFFCURVE",
"402 66 CURVE SMOOTH",
"402 30 OFFCURVE",
"432 0 OFFCURVE",
"468 0 CURVE SMOOTH"
);
}
);
width = 600;
},
{
layerId = "80A0AA5A-C5CE-4148-884B-17CEBCBED218";
paths = (
{
closed = 1;
nodes = (
"111 -6 OFFCURVE",
"146 31 OFFCURVE",
"146 78 CURVE SMOOTH",
"146 125 OFFCURVE",
"111 161 OFFCURVE",
"64 161 CURVE SMOOTH",
"17 161 OFFCURVE",
"-19 125 OFFCURVE",
"-19 78 CURVE SMOOTH",
"-19 31 OFFCURVE",
"17 -6 OFFCURVE",
"64 -6 CURVE SMOOTH"
);
},
{
closed = 1;
nodes = (
"317 -6 OFFCURVE",
"353 31 OFFCURVE",
"353 78 CURVE SMOOTH",
"353 125 OFFCURVE",
"317 161 OFFCURVE",
"270 161 CURVE SMOOTH",
"223 161 OFFCURVE",
"187 125 OFFCURVE",
"187 78 CURVE SMOOTH",
"187 31 OFFCURVE",
"223 -6 OFFCURVE",
"270 -6 CURVE SMOOTH"
);
},
{
closed = 1;
nodes = (
"523 -6 OFFCURVE",
"559 31 OFFCURVE",
"559 78 CURVE SMOOTH",
"559 125 OFFCURVE",
"523 161 OFFCURVE",
"476 161 CURVE SMOOTH",
"430 161 OFFCURVE",
"393 125 OFFCURVE",
"393 78 CURVE SMOOTH",
"393 31 OFFCURVE",
"430 -6 OFFCURVE",
"476 -6 CURVE SMOOTH"
);
}
);
width = 600;
}
);
unicode = 2026;
},
{
glyphname = exclam;
lastChange = "2020-03-04 08:54:38 +0000";
layers = (
{
components = (
{
alignment = -1;
name = period;
}
);
layerId = "7BD5169A-FC8C-41E9-B364-539909E84211";
paths = (
{
closed = 1;
nodes = (
"329 245 LINE",
"418 700 LINE",
"334 700 LINE",
"262 245 LINE"
);
}
);
width = 600;
},
{
components = (
{
alignment = -1;
name = period;
transform = "{1, 0, 0, 1, 1, 0}";
}
);
layerId = "80A0AA5A-C5CE-4148-884B-17CEBCBED218";
paths = (
{
closed = 1;
nodes = (
"343 255 LINE",
"438 700 LINE",
"307 700 LINE",
"244 255 LINE"
);
}
);
width = 600;
}
);
unicode = 0021;
},
{
glyphname = exclamdown;
lastChange = "2020-03-04 08:54:38 +0000";
layers = (
{
layerId = "7BD5169A-FC8C-41E9-B364-539909E84211";
paths = (
{
closed = 1;
nodes = (
"259 -220 LINE",
"336 263 LINE",
"269 263 LINE",
"175 -220 LINE"
);
},
{
closed = 1;
nodes = (
"370 376 OFFCURVE",
"400 406 OFFCURVE",
"400 442 CURVE SMOOTH",
"400 478 OFFCURVE",
"370 508 OFFCURVE",
"334 508 CURVE SMOOTH",
"298 508 OFFCURVE",
"268 478 OFFCURVE",
"268 442 CURVE SMOOTH",
"268 406 OFFCURVE",
"298 376 OFFCURVE",
"334 376 CURVE SMOOTH"
);
}
);
width = 600;
},
{
layerId = "80A0AA5A-C5CE-4148-884B-17CEBCBED218";
paths = (
{
closed = 1;
nodes = (
"283 -220 LINE",
"350 247 LINE",
"250 247 LINE",
"152 -220 LINE"
);
},
{
closed = 1;
nodes = (
"381 341 OFFCURVE",
"420 377 OFFCURVE",
"420 424 CURVE SMOOTH",
"420 471 OFFCURVE",
"381 508 OFFCURVE",
"331 508 CURVE SMOOTH",
"280 508 OFFCURVE",
"242 471 OFFCURVE",
"242 424 CURVE SMOOTH",
"242 377 OFFCURVE",
"280 341 OFFCURVE",
"331 341 CURVE SMOOTH"
);
}
);
width = 600;
}
);
unicode = 00A1;
},
{
glyphname = question;
lastChange = "2020-03-04 08:54:38 +0000";
layers = (
{
components = (
{
alignment = -1;
name = period;
transform = "{1, 0, 0, 1, -45, 0}";
}
);
layerId = "7BD5169A-FC8C-41E9-B364-539909E84211";
paths = (
{
closed = 1;
nodes = (
"267 206 LINE",
"287 299 LINE",
"445 306 OFFCURVE",
"542 391 OFFCURVE",
"542 525 CURVE SMOOTH",
"542 636 OFFCURVE",
"466 712 OFFCURVE",
"350 712 CURVE SMOOTH",
"216 712 OFFCURVE",
"131 631 OFFCURVE",
"110 514 CURVE",
"177 514 LINE",
"194 596 OFFCURVE",
"251 648 OFFCURVE",
"339 648 CURVE SMOOTH",
"421 648 OFFCURVE",
"473 599 OFFCURVE",
"473 523 CURVE SMOOTH",
"473 404 OFFCURVE",
"384 349 OFFCURVE",
"255 349 CURVE SMOOTH",
"229 349 LINE",
"207 206 LINE"
);
}
);
width = 600;
},
{
components = (
{
alignment = -1;
name = period;
transform = "{1, 0, 0, 1, -44, 0}";
}
);
layerId = "80A0AA5A-C5CE-4148-884B-17CEBCBED218";
paths = (
{
closed = 1;
nodes = (
"291 220 LINE",
"309 298 LINE",
"449 304 OFFCURVE",
"561 383 OFFCURVE",
"561 524 CURVE SMOOTH",
"561 634 OFFCURVE",
"483 712 OFFCURVE",
"357 712 CURVE SMOOTH",
"205 712 OFFCURVE",
"125 625 OFFCURVE",
"108 508 CURVE",
"208 508 LINE",
"222 577 OFFCURVE",
"271 617 OFFCURVE",
"345 617 CURVE SMOOTH",
"412 617 OFFCURVE",
"456 574 OFFCURVE",
"456 513 CURVE SMOOTH",
"456 417 OFFCURVE",
"377 374 OFFCURVE",
"261 374 CURVE SMOOTH",
"222 374 LINE",
"201 220 LINE"
);
}
);
width = 600;
}
);
unicode = 003F;
},
{
glyphname = questiondown;
lastChange = "2020-03-04 08:54:38 +0000";
layers = (
{
layerId = "7BD5169A-FC8C-41E9-B364-539909E84211";
paths = (
{
closed = 1;
nodes = (
"348 -232 OFFCURVE",
"429 -154 OFFCURVE",
"453 -34 CURVE",
"386 -34 LINE",
"368 -113 OFFCURVE",
"307 -168 OFFCURVE",
"224 -168 CURVE SMOOTH",
"144 -168 OFFCURVE",
"90 -119 OFFCURVE",
"90 -31 CURVE SMOOTH",
"90 72 OFFCURVE",
"173 131 OFFCURVE",
"308 131 CURVE SMOOTH",
"334 131 LINE",
"360 302 LINE",
"300 302 LINE",
"276 181 LINE",
"116 181 OFFCURVE",
"21 89 OFFCURVE",
"21 -41 CURVE SMOOTH",
"21 -158 OFFCURVE",
"107 -232 OFFCURVE",
"215 -232 CURVE SMOOTH"
);
},
{
closed = 1;
nodes = (
"392 376 OFFCURVE",
"422 406 OFFCURVE",
"422 442 CURVE SMOOTH",
"422 478 OFFCURVE",
"392 508 OFFCURVE",
"356 508 CURVE SMOOTH",
"320 508 OFFCURVE",
"290 478 OFFCURVE",
"290 442 CURVE SMOOTH",
"290 406 OFFCURVE",
"320 376 OFFCURVE",
"356 376 CURVE SMOOTH"
);
}
);
width = 600;
},
{
layerId = "80A0AA5A-C5CE-4148-884B-17CEBCBED218";
paths = (
{
closed = 1;
nodes = (
"372 -232 OFFCURVE",
"445 -144 OFFCURVE",
"467 -28 CURVE",
"367 -28 LINE",
"351 -93 OFFCURVE",
"306 -137 OFFCURVE",
"227 -137 CURVE SMOOTH",
"160 -137 OFFCURVE",
"119 -97 OFFCURVE",
"119 -32 CURVE SMOOTH",
"119 58 OFFCURVE",
"197 106 OFFCURVE",
"315 106 CURVE SMOOTH",
"353 106 LINE",
"377 282 LINE",
"287 282 LINE",
"267 182 LINE",
"112 176 OFFCURVE",
"14 87 OFFCURVE",
"14 -41 CURVE SMOOTH",
"14 -158 OFFCURVE",
"94 -232 OFFCURVE",
"219 -232 CURVE SMOOTH"
);
},
{
closed = 1;
nodes = (
"411 341 OFFCURVE",
"449 377 OFFCURVE",
"449 424 CURVE SMOOTH",
"449 471 OFFCURVE",
"411 508 OFFCURVE",
"360 508 CURVE SMOOTH",
"309 508 OFFCURVE",
"271 471 OFFCURVE",
"271 424 CURVE SMOOTH",
"271 377 OFFCURVE",
"309 341 OFFCURVE",
"360 341 CURVE SMOOTH"
);
}
);
width = 600;
}
);
unicode = 00BF;
},
{
glyphname = bullet;
lastChange = "2020-03-04 08:54:38 +0000";
layers = (
{
layerId = "7BD5169A-FC8C-41E9-B364-539909E84211";
paths = (
{
closed = 1;
nodes = (
"382 235 OFFCURVE",
"433 286 OFFCURVE",
"433 350 CURVE SMOOTH",
"433 414 OFFCURVE",
"382 465 OFFCURVE",
"318 465 CURVE SMOOTH",
"254 465 OFFCURVE",
"203 414 OFFCURVE",
"203 350 CURVE SMOOTH",
"203 286 OFFCURVE",
"254 235 OFFCURVE",
"318 235 CURVE SMOOTH"
);
}
);
width = 600;
},
{
layerId = "80A0AA5A-C5CE-4148-884B-17CEBCBED218";
paths = (
{
closed = 1;
nodes = (
"394 213 OFFCURVE",
"455 274 OFFCURVE",
"455 350 CURVE SMOOTH",
"455 426 OFFCURVE",
"394 487 OFFCURVE",
"318 487 CURVE SMOOTH",
"242 487 OFFCURVE",
"181 426 OFFCURVE",
"181 350 CURVE SMOOTH",
"181 274 OFFCURVE",
"242 213 OFFCURVE",
"318 213 CURVE SMOOTH"
);
}
);
width = 600;
}
);
unicode = 2022;
},
{
glyphname = asterisk;
lastChange = "2020-03-04 08:54:38 +0000";
layers = (
{
background = {
paths = (
{
closed = 1;
nodes = (
"312 101 LINE",
"333 315 LINE",
"489 198 LINE",
"536 262 LINE",
"361 350 LINE",
"568 438 LINE",
"543 502 LINE",
"345 385 LINE",
"400 599 LINE",
"324 599 LINE",
"303 385 LINE",
"147 502 LINE",
"100 438 LINE",
"275 350 LINE",
"68 262 LINE",
"93 198 LINE",
"291 315 LINE",
"236 101 LINE"
);
}
);
};
layerId = "7BD5169A-FC8C-41E9-B364-539909E84211";
paths = (
{
closed = 1;
nodes = (
"312 101 LINE",
"333 315 LINE",
"493 198 LINE",
"536 262 LINE",
"362 347 LINE",
"568 438 LINE",
"537 502 LINE",
"345 385 LINE",
"400 599 LINE",
"324 599 LINE",
"303 385 LINE",
"143 502 LINE",
"100 438 LINE",
"273 352 LINE",
"68 264 LINE",
"100 198 LINE",
"291 315 LINE",
"236 101 LINE"
);
}
);
width = 600;
},
{
layerId = "80A0AA5A-C5CE-4148-884B-17CEBCBED218";
paths = (
{
closed = 1;
nodes = (
"327 101 LINE",
"337 304 LINE",
"484 188 LINE",
"541 268 LINE",
"373 349 LINE",
"571 431 LINE",
"527 513 LINE",
"353 396 LINE",
"415 599 LINE",
"308 599 LINE",
"298 396 LINE",
"151 512 LINE",
"94 432 LINE",
"262 351 LINE",
"64 270 LINE",
"109 187 LINE",
"282 304 LINE",
"220 101 LINE"
);
}
);
width = 600;
}
);
unicode = 002A;
},
{
glyphname = numbersign;
lastChange = "2020-03-04 08:54:38 +0000";
layers = (
{
layerId = "7BD5169A-FC8C-41E9-B364-539909E84211";
paths = (
{
closed = 1;
nodes = (
"407 0 LINE",
"529 700 LINE",
"462 700 LINE",
"340 0 LINE"
);
},
{
closed = 1;
nodes = (
"178 0 LINE",
"300 700 LINE",
"233 700 LINE",
"111 0 LINE"
);
},
{
closed = 1;
nodes = (
"555 204 LINE",
"565 266 LINE",
"45 266 LINE",
"35 204 LINE"
);
},
{
closed = 1;
nodes = (
"595 434 LINE",
"605 496 LINE",
"85 496 LINE",
"75 434 LINE"
);
}
);
width = 600;
},
{
layerId = "80A0AA5A-C5CE-4148-884B-17CEBCBED218";
paths = (
{
closed = 1;
nodes = (
"427 0 LINE",
"551 700 LINE",
"452 700 LINE",
"329 0 LINE"
);
},
{
closed = 1;
nodes = (
"185 0 LINE",
"308 700 LINE",
"209 700 LINE",
"86 0 LINE"
);
},
{
closed = 1;
nodes = (
"558 186 LINE",
"574 278 LINE",
"38 278 LINE",
"21 186 LINE"
);
},
{
closed = 1;
nodes = (
"599 422 LINE",
"616 514 LINE",
"79 514 LINE",
"63 422 LINE"
);
}
);
width = 600;
}
);
unicode = 0023;
},
{
glyphname = slash;
lastChange = "2020-03-04 08:54:38 +0000";
layers = (
{
layerId = "7BD5169A-FC8C-41E9-B364-539909E84211";
paths = (
{
closed = 1;
nodes = (
"150 -90 LINE",
"555 760 LINE",
"479 760 LINE",
"75 -90 LINE"
);
}
);
width = 600;
},
{
layerId = "80A0AA5A-C5CE-4148-884B-17CEBCBED218";
paths = (
{
closed = 1;
nodes = (
"172 -90 LINE",
"569 760 LINE",
"457 760 LINE",
"61 -90 LINE"
);
}
);
width = 600;
}
);
unicode = 002F;
},
{
glyphname = backslash;
lastChange = "2020-03-04 08:54:38 +0000";
layers = (
{
layerId = "7BD5169A-FC8C-41E9-B364-539909E84211";
paths = (
{
closed = 1;
nodes = (
"515 -90 LINE",
"187 760 LINE",
"115 760 LINE",
"444 -90 LINE"
);
}
);
width = 600;
},
{
layerId = "80A0AA5A-C5CE-4148-884B-17CEBCBED218";
paths = (
{
closed = 1;
nodes = (
"534 -90 LINE",
"203 760 LINE",
"96 760 LINE",
"428 -90 LINE"
);
}
);
width = 600;
}
);
unicode = 005C;
},
{
glyphname = comma.ss01;
lastChange = "2020-03-04 11:30:00 +0000";
layers = (
{
layerId = "7BD5169A-FC8C-41E9-B364-539909E84211";
paths = (
{
closed = 1;
nodes = (
"281 -139 OFFCURVE",
"334 -38 OFFCURVE",
"334 60 CURVE SMOOTH",
"334 109 OFFCURVE",
"306 132 OFFCURVE",
"272 132 CURVE SMOOTH",
"228 132 OFFCURVE",
"199 104 OFFCURVE",
"199 61 CURVE SMOOTH",
"199 28 OFFCURVE",
"228 0 OFFCURVE",
"262 0 CURVE SMOOTH",
"266 0 LINE",
"256 -61 OFFCURVE",
"213 -93 OFFCURVE",
"164 -93 CURVE",
"156 -139 LINE"
);
}
);
width = 600;
},
{
layerId = "80A0AA5A-C5CE-4148-884B-17CEBCBED218";
paths = (
{
closed = 1;
nodes = (
"263 -162 OFFCURVE",
"356 -76 OFFCURVE",
"356 55 CURVE SMOOTH",
"356 125 OFFCURVE",
"316 161 OFFCURVE",
"272 161 CURVE SMOOTH",
"221 161 OFFCURVE",
"179 127 OFFCURVE",
"179 70 CURVE SMOOTH",
"179 32 OFFCURVE",
"213 -3 OFFCURVE",
"251 -3 CURVE SMOOTH",
"255 -3 LINE",
"242 -75 OFFCURVE",
"187 -97 OFFCURVE",
"134 -97 CURVE",
"123 -162 LINE"
);
}
);
width = 600;
}
);
},
{
glyphname = parenleft;
lastChange = "2020-03-04 08:54:38 +0000";
layers = (
{
layerId = "7BD5169A-FC8C-41E9-B364-539909E84211";
paths = (
{
closed = 1;
nodes = (
"361 -185 LINE",
"362 -178 LINE",
"291 -71 OFFCURVE",
"233 68 OFFCURVE",
"233 219 CURVE SMOOTH",
"233 446 OFFCURVE",
"348 648 OFFCURVE",
"536 804 CURVE",
"537 811 LINE",
"460 811 LINE",
"283 684 OFFCURVE",
"162 445 OFFCURVE",
"162 209 CURVE SMOOTH",
"162 40 OFFCURVE",
"229 -99 OFFCURVE",
"284 -185 CURVE"
);
}
);
width = 600;
},
{
layerId = "80A0AA5A-C5CE-4148-884B-17CEBCBED218";
paths = (
{
closed = 1;
nodes = (
"368 -185 LINE",
"370 -172 LINE",
"306 -62 OFFCURVE",
"252 67 OFFCURVE",
"252 217 CURVE SMOOTH",
"252 448 OFFCURVE",
"362 642 OFFCURVE",
"542 798 CURVE",
"544 811 LINE",
"430 811 LINE",
"256 679 OFFCURVE",
"143 451 OFFCURVE",
"143 207 CURVE SMOOTH",
"143 42 OFFCURVE",
"205 -94 OFFCURVE",
"261 -185 CURVE"
);
}
);
width = 600;
}
);
unicode = 0028;
},
{
glyphname = parenright;
lastChange = "2020-03-04 08:54:38 +0000";
layers = (
{
layerId = "7BD5169A-FC8C-41E9-B364-539909E84211";
paths = (
{
closed = 1;
nodes = (
"159 -185 LINE",
"336 -58 OFFCURVE",
"457 181 OFFCURVE",
"457 417 CURVE SMOOTH",
"457 586 OFFCURVE",
"390 725 OFFCURVE",
"335 811 CURVE",
"258 811 LINE",
"257 804 LINE",
"328 697 OFFCURVE",
"386 558 OFFCURVE",
"386 407 CURVE SMOOTH",
"386 180 OFFCURVE",
"271 -22 OFFCURVE",
"83 -178 CURVE",
"82 -185 LINE"
);
}
);
width = 600;
},
{
layerId = "80A0AA5A-C5CE-4148-884B-17CEBCBED218";
paths = (
{
closed = 1;
nodes = (
"189 -185 LINE",
"355 -54 OFFCURVE",
"473 175 OFFCURVE",
"473 419 CURVE SMOOTH",
"473 585 OFFCURVE",
"410 721 OFFCURVE",
"355 811 CURVE",
"248 811 LINE",
"246 798 LINE",
"311 690 OFFCURVE",
"364 561 OFFCURVE",
"364 409 CURVE SMOOTH",
"364 181 OFFCURVE",
"252 -15 OFFCURVE",
"74 -172 CURVE",
"72 -185 LINE"
);
}
);
width = 600;
}
);
unicode = 0029;
},
{
glyphname = braceleft;
lastChange = "2020-03-04 08:54:38 +0000";
layers = (
{
layerId = "7BD5169A-FC8C-41E9-B364-539909E84211";
paths = (
{
closed = 1;
nodes = (
"408 -185 LINE",
"419 -123 LINE",
"333 -123 LINE SMOOTH",
"289 -123 OFFCURVE",
"255 -96 OFFCURVE",
"255 -49 CURVE SMOOTH",
"255 43 OFFCURVE",
"320 138 OFFCURVE",
"320 221 CURVE SMOOTH",
"320 268 OFFCURVE",
"296 294 OFFCURVE",
"259 309 CURVE",
"259 313 LINE",
"328 332 OFFCURVE",
"373 379 OFFCURVE",
"373 470 CURVE SMOOTH",
"373 566 OFFCURVE",
"374 617 OFFCURVE",
"379 661 CURVE SMOOTH",
"386 725 OFFCURVE",
"424 749 OFFCURVE",
"485 749 CURVE SMOOTH",
"573 749 LINE",
"584 811 LINE",
"492 811 LINE SMOOTH",
"376 811 OFFCURVE",
"306 751 OFFCURVE",
"306 641 CURVE SMOOTH",
"306 598 OFFCURVE",
"307 559 OFFCURVE",
"307 495 CURVE SMOOTH",
"307 407 OFFCURVE",
"270 344 OFFCURVE",
"183 344 CURVE SMOOTH",
"135 344 LINE",
"125 282 LINE",
"173 282 LINE SMOOTH",
"229 282 OFFCURVE",
"253 256 OFFCURVE",
"253 212 CURVE SMOOTH",
"253 142 OFFCURVE",
"185 43 OFFCURVE",
"185 -61 CURVE SMOOTH",
"185 -140 OFFCURVE",
"241 -185 OFFCURVE",
"316 -185 CURVE SMOOTH"
);
}
);
width = 600;
},
{
layerId = "80A0AA5A-C5CE-4148-884B-17CEBCBED218";
paths = (
{
closed = 1;
nodes = (
"419 -185 LINE",
"436 -92 LINE",
"353 -92 LINE SMOOTH",
"311 -92 OFFCURVE",
"282 -69 OFFCURVE",
"282 -28 CURVE SMOOTH",
"282 45 OFFCURVE",
"341 132 OFFCURVE",
"341 216 CURVE SMOOTH",
"341 265 OFFCURVE",
"316 296 OFFCURVE",
"279 310 CURVE",
"281 315 LINE",
"347 332 OFFCURVE",
"395 375 OFFCURVE",
"395 464 CURVE SMOOTH",
"395 537 OFFCURVE",
"391 592 OFFCURVE",
"398 642 CURVE SMOOTH",
"406 697 OFFCURVE",
"439 718 OFFCURVE",
"489 718 CURVE SMOOTH",
"579 718 LINE",
"595 811 LINE",
"481 811 LINE SMOOTH",
"357 811 OFFCURVE",
"294 743 OFFCURVE",
"294 631 CURVE SMOOTH",
"294 595 OFFCURVE",
"296 536 OFFCURVE",
"296 495 CURVE SMOOTH",
"296 411 OFFCURVE",
"266 360 OFFCURVE",
"172 360 CURVE SMOOTH",
"128 360 LINE",
"111 266 LINE",
"156 266 LINE SMOOTH",
"216 266 OFFCURVE",
"239 238 OFFCURVE",
"239 198 CURVE SMOOTH",
"239 125 OFFCURVE",
"177 45 OFFCURVE",
"177 -54 CURVE SMOOTH",
"177 -139 OFFCURVE",
"234 -185 OFFCURVE",
"320 -185 CURVE SMOOTH"
);
}
);
width = 600;
}
);
unicode = 007B;
},
{
glyphname = braceright;
lastChange = "2020-03-04 08:54:38 +0000";
layers = (
{
layerId = "7BD5169A-FC8C-41E9-B364-539909E84211";
paths = (
{
closed = 1;
nodes = (
"131 -185 LINE SMOOTH",
"247 -185 OFFCURVE",
"317 -125 OFFCURVE",
"317 -15 CURVE SMOOTH",
"317 28 OFFCURVE",
"316 67 OFFCURVE",
"316 131 CURVE SMOOTH",
"316 219 OFFCURVE",
"353 282 OFFCURVE",
"440 282 CURVE SMOOTH",
"488 282 LINE",
"498 344 LINE",
"450 344 LINE SMOOTH",
"394 344 OFFCURVE",
"370 370 OFFCURVE",
"370 414 CURVE SMOOTH",
"370 484 OFFCURVE",
"438 583 OFFCURVE",
"438 687 CURVE SMOOTH",
"438 766 OFFCURVE",
"382 811 OFFCURVE",
"307 811 CURVE SMOOTH",
"215 811 LINE",
"204 749 LINE",
"290 749 LINE SMOOTH",
"334 749 OFFCURVE",
"368 722 OFFCURVE",
"368 675 CURVE SMOOTH",
"368 583 OFFCURVE",
"303 488 OFFCURVE",
"303 405 CURVE SMOOTH",
"303 358 OFFCURVE",
"327 333 OFFCURVE",
"364 318 CURVE",
"364 314 LINE",
"291 295 OFFCURVE",
"250 242 OFFCURVE",
"250 156 CURVE SMOOTH",
"250 60 OFFCURVE",
"249 9 OFFCURVE",
"244 -35 CURVE SMOOTH",
"237 -99 OFFCURVE",
"199 -123 OFFCURVE",
"138 -123 CURVE SMOOTH",
"50 -123 LINE",
"39 -185 LINE"
);
}
);
width = 600;
},
{
layerId = "80A0AA5A-C5CE-4148-884B-17CEBCBED218";
paths = (
{
closed = 1;
nodes = (
"142 -185 LINE SMOOTH",
"267 -185 OFFCURVE",
"330 -117 OFFCURVE",
"330 -5 CURVE SMOOTH",
"330 31 OFFCURVE",
"327 90 OFFCURVE",
"327 131 CURVE SMOOTH",
"327 215 OFFCURVE",
"357 266 OFFCURVE",
"452 266 CURVE SMOOTH",
"496 266 LINE",
"512 360 LINE",
"466 360 LINE SMOOTH",
"410 360 OFFCURVE",
"384 388 OFFCURVE",
"384 428 CURVE SMOOTH",
"384 499 OFFCURVE",
"447 580 OFFCURVE",
"447 680 CURVE SMOOTH",
"447 765 OFFCURVE",
"389 811 OFFCURVE",
"303 811 CURVE SMOOTH",
"204 811 LINE",
"188 718 LINE",
"271 718 LINE SMOOTH",
"313 718 OFFCURVE",
"341 695 OFFCURVE",
"341 654 CURVE SMOOTH",
"341 582 OFFCURVE",
"284 500 OFFCURVE",
"284 419 CURVE SMOOTH",
"284 370 OFFCURVE",
"308 334 OFFCURVE",
"345 319 CURVE",
"344 314 LINE",
"273 297 OFFCURVE",
"228 249 OFFCURVE",
"228 162 CURVE SMOOTH",
"228 89 OFFCURVE",
"233 34 OFFCURVE",
"225 -16 CURVE SMOOTH",
"218 -71 OFFCURVE",
"185 -92 OFFCURVE",
"135 -92 CURVE SMOOTH",
"45 -92 LINE",
"28 -185 LINE"
);
}
);
width = 600;
}
);
unicode = 007D;
},
{
glyphname = bracketleft;
lastChange = "2020-03-04 08:54:38 +0000";
layers = (
{
layerId = "7BD5169A-FC8C-41E9-B364-539909E84211";
paths = (
{
closed = 1;
nodes = (
"343 -185 LINE",
"354 -122 LINE",
"196 -122 LINE SMOOTH",
"183 -122 OFFCURVE",
"178 -115 OFFCURVE",
"180 -102 CURVE SMOOTH",
"326 729 LINE SMOOTH",
"328 742 OFFCURVE",
"337 749 OFFCURVE",
"350 749 CURVE SMOOTH",
"508 749 LINE",
"519 811 LINE",
"359 811 LINE SMOOTH",
"298 811 OFFCURVE",
"270 781 OFFCURVE",
"260 727 CURVE SMOOTH",
"114 -98 LINE SMOOTH",
"104 -157 OFFCURVE",
"139 -185 OFFCURVE",
"183 -185 CURVE SMOOTH"
);
}
);
width = 600;
},
{
layerId = "80A0AA5A-C5CE-4148-884B-17CEBCBED218";
paths = (
{
closed = 1;
nodes = (
"357 -185 LINE",
"374 -90 LINE",
"234 -90 LINE SMOOTH",
"213 -90 OFFCURVE",
"204 -79 OFFCURVE",
"208 -58 CURVE SMOOTH",
"339 686 LINE SMOOTH",
"343 707 OFFCURVE",
"356 718 OFFCURVE",
"377 718 CURVE SMOOTH",
"517 718 LINE",
"533 811 LINE",
"376 811 LINE SMOOTH",
"294 811 OFFCURVE",
"256 778 OFFCURVE",
"242 697 CURVE SMOOTH",
"107 -63 LINE SMOOTH",
"93 -139 OFFCURVE",
"135 -185 OFFCURVE",
"204 -185 CURVE SMOOTH"
);
}
);
width = 600;
}
);
unicode = 005B;
},
{
glyphname = bracketright;
lastChange = "2020-03-04 08:54:38 +0000";
layers = (
{
layerId = "7BD5169A-FC8C-41E9-B364-539909E84211";
paths = (
{
closed = 1;
nodes = (
"264 -185 LINE SMOOTH",
"325 -185 OFFCURVE",
"353 -155 OFFCURVE",
"363 -101 CURVE SMOOTH",
"509 724 LINE SMOOTH",
"519 783 OFFCURVE",
"484 811 OFFCURVE",
"440 811 CURVE SMOOTH",
"280 811 LINE",
"269 748 LINE",
"427 748 LINE SMOOTH",
"440 748 OFFCURVE",
"445 741 OFFCURVE",
"443 728 CURVE SMOOTH",
"297 -103 LINE SMOOTH",
"295 -116 OFFCURVE",
"286 -123 OFFCURVE",
"273 -123 CURVE SMOOTH",
"115 -123 LINE",
"104 -185 LINE"
);
}
);
width = 600;
},
{
layerId = "80A0AA5A-C5CE-4148-884B-17CEBCBED218";
paths = (
{
closed = 1;
nodes = (
"247 -185 LINE SMOOTH",
"329 -185 OFFCURVE",
"367 -152 OFFCURVE",
"381 -71 CURVE SMOOTH",
"516 689 LINE SMOOTH",
"529 765 OFFCURVE",
"488 811 OFFCURVE",
"419 811 CURVE SMOOTH",
"266 811 LINE",
"249 716 LINE",
"389 716 LINE SMOOTH",
"410 716 OFFCURVE",
"419 705 OFFCURVE",
"415 684 CURVE SMOOTH",
"284 -60 LINE SMOOTH",
"280 -81 OFFCURVE",
"267 -92 OFFCURVE",
"246 -92 CURVE SMOOTH",
"106 -92 LINE",
"90 -185 LINE"
);
}
);
width = 600;
}
);
unicode = 005D;
},
{
glyphname = hyphen;
lastChange = "2020-03-04 08:54:38 +0000";
layers = (
{
layerId = "7BD5169A-FC8C-41E9-B364-539909E84211";
paths = (
{
closed = 1;
nodes = (
"473 320 LINE",
"483 380 LINE",
"163 380 LINE",
"153 320 LINE"
);
}
);
width = 600;
},
{
layerId = "80A0AA5A-C5CE-4148-884B-17CEBCBED218";
paths = (
{
closed = 1;
nodes = (
"482 305 LINE",
"499 395 LINE",
"154 395 LINE",
"137 305 LINE"
);
}
);
width = 600;
}
);
unicode = 002D;
},
{
glyphname = endash;
lastChange = "2020-03-04 08:54:38 +0000";
layers = (
{
layerId = "7BD5169A-FC8C-41E9-B364-539909E84211";
paths = (
{
closed = 1;
nodes = (
"513 320 LINE",
"523 380 LINE",
"123 380 LINE",
"113 320 LINE"
);
}
);
width = 600;
},
{
layerId = "80A0AA5A-C5CE-4148-884B-17CEBCBED218";
paths = (
{
closed = 1;
nodes = (
"522 305 LINE",
"539 395 LINE",
"114 395 LINE",
"97 305 LINE"
);
}
);
width = 600;
}
);
unicode = 2013;
},
{
glyphname = emdash;
lastChange = "2020-03-04 08:54:38 +0000";
layers = (
{
layerId = "7BD5169A-FC8C-41E9-B364-539909E84211";
paths = (
{
closed = 1;
nodes = (
"613 320 LINE",
"623 380 LINE",
"23 380 LINE",
"13 320 LINE"
);
}
);
width = 600;
},
{
layerId = "80A0AA5A-C5CE-4148-884B-17CEBCBED218";
paths = (
{
closed = 1;
nodes = (
"610 305 LINE",
"626 395 LINE",
"26 395 LINE",
"10 305 LINE"
);
}
);
width = 600;
}
);
unicode = 2014;
},
{
glyphname = underscore;
lastChange = "2020-03-04 08:54:38 +0000";
layers = (
{
layerId = "7BD5169A-FC8C-41E9-B364-539909E84211";
paths = (
{
closed = 1;
nodes = (
"465 -65 LINE",
"477 0 LINE",
"37 0 LINE",
"25 -65 LINE"
);
}
);
width = 600;
},
{
layerId = "80A0AA5A-C5CE-4148-884B-17CEBCBED218";
paths = (
{
closed = 1;
nodes = (
"471 -95 LINE",
"489 0 LINE",
"24 0 LINE",
"7 -95 LINE"
);
}
);
width = 600;
}
);
unicode = 005F;
},
{
glyphname = quoteleft;
lastChange = "2020-03-04 08:54:38 +0000";
layers = (
{
layerId = "7BD5169A-FC8C-41E9-B364-539909E84211";
paths = (
{
closed = 1;
nodes = (
"337 430 LINE",
"452 700 LINE",
"385 700 LINE",
"247 430 LINE"
);
}
);
width = 600;
},
{
layerId = "80A0AA5A-C5CE-4148-884B-17CEBCBED218";
paths = (
{
closed = 1;
nodes = (
"355 405 LINE",
"466 700 LINE",
"366 700 LINE",
"210 405 LINE"
);
}
);
width = 600;
}
);
unicode = 2018;
},
{
glyphname = quoteright;
lastChange = "2020-03-04 08:54:38 +0000";
layers = (
{
layerId = "7BD5169A-FC8C-41E9-B364-539909E84211";
paths = (
{
closed = 1;
nodes = (
"327 430 LINE",
"465 700 LINE",
"375 700 LINE",
"260 430 LINE"
);
}
);
width = 600;
},
{
layerId = "80A0AA5A-C5CE-4148-884B-17CEBCBED218";
paths = (
{
closed = 1;
nodes = (
"333 405 LINE",
"490 700 LINE",
"345 700 LINE",
"234 405 LINE"
);
}
);
width = 600;
}
);
unicode = 2019;
},
{
glyphname = guilsinglleft;
lastChange = "2020-03-04 08:54:38 +0000";
layers = (
{
background = {
paths = (
{
closed = 1;
nodes = (
"354 100 LINE",
"278 293 LINE",
"278 297 LINE",
"422 490 LINE",
"353 490 LINE",
"204 295 LINE",
"285 100 LINE"
);
}
);
};
layerId = "7BD5169A-FC8C-41E9-B364-539909E84211";
paths = (
{
closed = 1;
nodes = (
"369 100 LINE",
"293 289 LINE",
"293 293 LINE",
"437 490 LINE",
"356 490 LINE",
"213 297 LINE",
"296 100 LINE"
);
}
);
width = 600;
},
{
layerId = "80A0AA5A-C5CE-4148-884B-17CEBCBED218";
paths = (
{
closed = 1;
nodes = (
"393 94 LINE",
"313 289 LINE",
"314 295 LINE",
"464 496 LINE",
"349 496 LINE",
"199 298 LINE",
"289 94 LINE"
);
}
);
width = 600;
}
);
unicode = 2039;
},
{
glyphname = guilsinglright;
lastChange = "2020-03-04 08:54:38 +0000";
layers = (
{
layerId = "7BD5169A-FC8C-41E9-B364-539909E84211";
paths = (
{
closed = 1;
nodes = (
"261 100 LINE",
"404 293 LINE",
"321 490 LINE",
"248 490 LINE",
"324 301 LINE",
"324 297 LINE",
"180 100 LINE"
);
}
);
width = 600;
},
{
layerId = "80A0AA5A-C5CE-4148-884B-17CEBCBED218";
paths = (
{
closed = 1;
nodes = (
"270 94 LINE",
"417 292 LINE",
"328 496 LINE",
"223 496 LINE",
"304 301 LINE",
"302 295 LINE",
"153 94 LINE"
);
}
);
width = 600;
}
);
unicode = 203A;
},
{
glyphname = quotesingle;
lastChange = "2020-03-04 08:54:38 +0000";
layers = (
{
layerId = "7BD5169A-FC8C-41E9-B364-539909E84211";
paths = (
{
closed = 1;
nodes = (
"364 398 LINE",
"418 700 LINE",
"342 700 LINE",
"288 398 LINE"
);
}
);
width = 600;
},
{
layerId = "80A0AA5A-C5CE-4148-884B-17CEBCBED218";
paths = (
{
closed = 1;
nodes = (
"382 379 LINE",
"438 700 LINE",
"320 700 LINE",
"264 379 LINE"
);
}
);
width = 600;
}
);
unicode = 0027;
},
{
glyphname = quoteleft.ss01;
lastChange = "2020-03-04 11:32:36 +0000";
layers = (
{
layerId = "7BD5169A-FC8C-41E9-B364-539909E84211";
paths = (
{
closed = 1;
nodes = (
"381 435 OFFCURVE",
"408 467 OFFCURVE",
"408 508 CURVE SMOOTH",
"408 538 OFFCURVE",
"381 567 OFFCURVE",
"348 567 CURVE SMOOTH",
"342 567 LINE",
"353 629 OFFCURVE",
"391 666 OFFCURVE",
"462 666 CURVE",
"470 712 LINE",
"346 712 OFFCURVE",
"274 635 OFFCURVE",
"274 513 CURVE SMOOTH",
"274 462 OFFCURVE",
"300 435 OFFCURVE",
"336 435 CURVE SMOOTH"
);
}
);
width = 600;
},
{
layerId = "80A0AA5A-C5CE-4148-884B-17CEBCBED218";
paths = (
{
closed = 1;
nodes = (
"386 381 OFFCURVE",
"424 418 OFFCURVE",
"424 472 CURVE SMOOTH",
"424 511 OFFCURVE",
"394 545 OFFCURVE",
"354 545 CURVE SMOOTH",
"349 545 LINE",
"362 618 OFFCURVE",
"415 647 OFFCURVE",
"491 647 CURVE",
"502 712 LINE",
"349 712 OFFCURVE",
"249 628 OFFCURVE",
"249 481 CURVE SMOOTH",
"249 416 OFFCURVE",
"284 381 OFFCURVE",
"328 381 CURVE SMOOTH"
);
}
);
width = 600;
}
);
},
{
glyphname = quoteright.ss01;
lastChange = "2020-03-04 11:32:05 +0000";
layers = (
{
background = {
paths = (
{
closed = 1;
nodes = (
"315 441 OFFCURVE",
"369 497 OFFCURVE",
"369 627 CURVE SMOOTH",
"369 687 OFFCURVE",
"336 712 OFFCURVE",
"300 712 CURVE SMOOTH",
"264 712 OFFCURVE",
"234 682 OFFCURVE",
"234 646 CURVE SMOOTH",
"234 614 OFFCURVE",
"257 580 OFFCURVE",
"300 580 CURVE SMOOTH",
"311 580 LINE",
"311 522 OFFCURVE",
"278 487 OFFCURVE",
"226 487 CURVE",
"226 441 LINE"
);
}
);
};
layerId = "7BD5169A-FC8C-41E9-B364-539909E84211";
paths = (
{
closed = 1;
nodes = (
"369 435 OFFCURVE",
"441 512 OFFCURVE",
"441 634 CURVE SMOOTH",
"441 685 OFFCURVE",
"415 712 OFFCURVE",
"379 712 CURVE SMOOTH",
"334 712 OFFCURVE",
"307 680 OFFCURVE",
"307 639 CURVE SMOOTH",
"307 609 OFFCURVE",
"334 580 OFFCURVE",
"367 580 CURVE SMOOTH",
"373 580 LINE",
"362 518 OFFCURVE",
"324 481 OFFCURVE",
"253 481 CURVE",
"245 435 LINE"
);
}
);
width = 600;
},
{
layerId = "80A0AA5A-C5CE-4148-884B-17CEBCBED218";
paths = (
{
closed = 1;
nodes = (
"356 381 OFFCURVE",
"456 465 OFFCURVE",
"456 612 CURVE SMOOTH",
"456 677 OFFCURVE",
"421 712 OFFCURVE",
"377 712 CURVE SMOOTH",
"319 712 OFFCURVE",
"281 675 OFFCURVE",
"281 621 CURVE SMOOTH",
"281 582 OFFCURVE",
"311 548 OFFCURVE",
"351 548 CURVE SMOOTH",
"356 548 LINE",
"343 475 OFFCURVE",
"290 446 OFFCURVE",
"214 446 CURVE",
"203 381 LINE"
);
}
);
width = 600;
}
);
},
{
glyphname = .notdef;
lastChange = "2020-03-04 08:54:38 +0000";
layers = (
{
layerId = "7BD5169A-FC8C-41E9-B364-539909E84211";
paths = (
{
closed = 1;
nodes = (
"530 0 LINE",
"530 700 LINE",
"106 700 LINE",
"106 0 LINE"
);
},
{
closed = 1;
nodes = (
"176 636 LINE",
"460 636 LINE",
"460 64 LINE",
"176 64 LINE"
);
}
);
width = 600;
},
{
layerId = "80A0AA5A-C5CE-4148-884B-17CEBCBED218";
paths = (
{
closed = 1;
nodes = (
"530 0 LINE",
"530 700 LINE",
"106 700 LINE",
"106 0 LINE"
);
},
{
closed = 1;
nodes = (
"176 636 LINE",
"460 636 LINE",
"460 64 LINE",
"176 64 LINE"
);
}
);
width = 600;
}
);
},
{
glyphname = cent;
lastChange = "2020-03-04 08:54:38 +0000";
layers = (
{
layerId = "7BD5169A-FC8C-41E9-B364-539909E84211";
paths = (
{
closed = 1;
nodes = (
"412 90 OFFCURVE",
"484 133 OFFCURVE",
"526 254 CURVE",
"453 254 LINE",
"429 191 OFFCURVE",
"384 155 OFFCURVE",
"306 155 CURVE SMOOTH",
"229 155 OFFCURVE",
"169 213 OFFCURVE",
"169 326 CURVE SMOOTH",
"169 433 OFFCURVE",
"243 544 OFFCURVE",
"362 544 CURVE SMOOTH",
"435 544 OFFCURVE",
"483 506 OFFCURVE",
"490 446 CURVE",
"560 446 LINE",
"553 541 OFFCURVE",
"484 610 OFFCURVE",
"372 610 CURVE SMOOTH",
"200 610 OFFCURVE",
"96 471 OFFCURVE",
"96 318 CURVE SMOOTH",
"96 178 OFFCURVE",
"182 90 OFFCURVE",
"299 90 CURVE SMOOTH"
);
},
{
closed = 1;
nodes = (
"300 0 LINE",
"424 700 LINE",
"356 700 LINE",
"232 0 LINE"
);
}
);
width = 600;
},
{
layerId = "80A0AA5A-C5CE-4148-884B-17CEBCBED218";
paths = (
{
closed = 1;
nodes = (
"424 90 OFFCURVE",
"503 149 OFFCURVE",
"538 268 CURVE",
"426 268 LINE",
"404 220 OFFCURVE",
"365 189 OFFCURVE",
"302 189 CURVE SMOOTH",
"240 189 OFFCURVE",
"188 237 OFFCURVE",
"188 327 CURVE SMOOTH",
"188 426 OFFCURVE",
"254 510 OFFCURVE",
"349 510 CURVE SMOOTH",
"411 510 OFFCURVE",
"450 480 OFFCURVE",
"456 432 CURVE",
"567 432 LINE",
"560 540 OFFCURVE",
"486 610 OFFCURVE",
"360 610 CURVE SMOOTH",
"194 610 OFFCURVE",
"80 487 OFFCURVE",
"80 320 CURVE SMOOTH",
"80 180 OFFCURVE",
"166 90 OFFCURVE",
"299 90 CURVE SMOOTH"
);
},
{
closed = 1;
nodes = (
"296 0 LINE",
"420 700 LINE",
"351 700 LINE",
"227 0 LINE"
);
}
);
width = 600;
}
);
unicode = 00A2;
},
{
glyphname = currency;
lastChange = "2020-03-04 08:54:38 +0000";
layers = (
{
layerId = "7BD5169A-FC8C-41E9-B364-539909E84211";
paths = (
{
closed = 1;
nodes = (
"402 122 OFFCURVE",
"479 194 OFFCURVE",
"479 297 CURVE SMOOTH",
"479 400 OFFCURVE",
"403 472 OFFCURVE",
"308 472 CURVE SMOOTH",
"211 472 OFFCURVE",
"137 400 OFFCURVE",
"137 297 CURVE SMOOTH",
"137 194 OFFCURVE",
"208 122 OFFCURVE",
"308 122 CURVE SMOOTH"
);
},
{
closed = 1;
nodes = (
"222 172 LINE",
"183 211 LINE",
"106 134 LINE",
"145 95 LINE"
);
},
{
closed = 1;
nodes = (
"227 418 LINE",
"145 500 LINE",
"105 460 LINE",
"187 378 LINE"
);
},
{
closed = 1;
nodes = (
"251 180 OFFCURVE",
"197 219 OFFCURVE",
"197 297 CURVE SMOOTH",
"197 375 OFFCURVE",
"251 414 OFFCURVE",
"308 414 CURVE SMOOTH",
"361 414 OFFCURVE",
"419 375 OFFCURVE",
"419 297 CURVE SMOOTH",
"419 219 OFFCURVE",
"360 180 OFFCURVE",
"308 180 CURVE SMOOTH"
);
},
{
closed = 1;
nodes = (
"511 134 LINE",
"430 215 LINE",
"390 175 LINE",
"471 94 LINE"
);
},
{
closed = 1;
nodes = (
"510 460 LINE",
"471 499 LINE",
"392 421 LINE",
"432 381 LINE"
);
}
);
width = 600;
},
{
layerId = "80A0AA5A-C5CE-4148-884B-17CEBCBED218";
paths = (
{
closed = 1;
nodes = (
"403 122 OFFCURVE",
"480 194 OFFCURVE",
"480 297 CURVE SMOOTH",
"480 400 OFFCURVE",
"404 472 OFFCURVE",
"309 472 CURVE SMOOTH",
"212 472 OFFCURVE",
"138 400 OFFCURVE",
"138 297 CURVE SMOOTH",
"138 194 OFFCURVE",
"209 122 OFFCURVE",
"309 122 CURVE SMOOTH"
);
},
{
closed = 1;
nodes = (
"232 168 LINE",
"180 220 LINE",
"100 140 LINE",
"152 88 LINE"
);
},
{
closed = 1;
nodes = (
"232 426 LINE",
"152 506 LINE",
"100 454 LINE",
"180 374 LINE"
);
},
{
closed = 1;
nodes = (
"260 196 OFFCURVE",
"213 230 OFFCURVE",
"213 297 CURVE SMOOTH",
"213 364 OFFCURVE",
"260 398 OFFCURVE",
"309 398 CURVE SMOOTH",
"354 398 OFFCURVE",
"404 364 OFFCURVE",
"404 297 CURVE SMOOTH",
"404 230 OFFCURVE",
"353 196 OFFCURVE",
"309 196 CURVE SMOOTH"
);
},
{
closed = 1;
nodes = (
"517 140 LINE",
"439 219 LINE",
"387 167 LINE",
"465 88 LINE"
);
},
{
closed = 1;
nodes = (
"517 454 LINE",
"465 506 LINE",
"385 426 LINE",
"438 374 LINE"
);
}
);
width = 600;
}
);
unicode = 00A4;
},
{
glyphname = dollar;
lastChange = "2020-03-04 08:54:38 +0000";
layers = (
{
background = {
paths = (
{
closed = 1;
nodes = (
"274 -87 LINE",
"428 791 LINE",
"358 791 LINE",
"204 -87 LINE"
);
},
{
closed = 1;
nodes = (
"399 -12 OFFCURVE",
"511 71 OFFCURVE",
"532 188 CURVE SMOOTH",
"552 299 OFFCURVE",
"490 356 OFFCURVE",
"361 390 CURVE SMOOTH",
"216 428 OFFCURVE",
"184 470 OFFCURVE",
"195 536 CURVE SMOOTH",
"207 607 OFFCURVE",
"281 648 OFFCURVE",
"368 648 CURVE SMOOTH",
"475 648 OFFCURVE",
"513 581 OFFCURVE",
"503 522 CURVE",
"575 522 LINE",
"594 631 OFFCURVE",
"519 712 OFFCURVE",
"383 712 CURVE SMOOTH",
"236 712 OFFCURVE",
"141 634 OFFCURVE",
"124 537 CURVE SMOOTH",
"107 439 OFFCURVE",
"149 371 OFFCURVE",
"294 336 CURVE SMOOTH",
"433 302 OFFCURVE",
"474 265 OFFCURVE",
"459 184 CURVE SMOOTH",
"446 114 OFFCURVE",
"378 52 OFFCURVE",
"272 52 CURVE SMOOTH",
"152 52 OFFCURVE",
"102 125 OFFCURVE",
"117 211 CURVE",
"44 211 LINE",
"21 79 OFFCURVE",
"104 -12 OFFCURVE",
"261 -12 CURVE SMOOTH"
);
}
);
};
layerId = "7BD5169A-FC8C-41E9-B364-539909E84211";
paths = (
{
closed = 1;
nodes = (
"274 -87 LINE",
"428 791 LINE",
"358 791 LINE",
"204 -87 LINE"
);
},
{
closed = 1;
nodes = (
"429 -12 OFFCURVE",
"534 64 OFFCURVE",
"534 197 CURVE SMOOTH",
"534 296 OFFCURVE",
"471 350 OFFCURVE",
"358 388 CURVE SMOOTH",
"232 427 OFFCURVE",
"197 467 OFFCURVE",
"197 529 CURVE SMOOTH",
"197 601 OFFCURVE",
"265 648 OFFCURVE",
"362 648 CURVE SMOOTH",
"453 648 OFFCURVE",
"511 600 OFFCURVE",
"505 520 CURVE",
"577 520 LINE",
"584 637 OFFCURVE",
"505 712 OFFCURVE",
"371 712 CURVE SMOOTH",
"219 712 OFFCURVE",
"125 636 OFFCURVE",
"125 524 CURVE SMOOTH",
"125 432 OFFCURVE",
"180 371 OFFCURVE",
"303 335 CURVE SMOOTH",
"426 297 OFFCURVE",
"460 253 OFFCURVE",
"460 188 CURVE SMOOTH",
"460 104 OFFCURVE",
"388 52 OFFCURVE",
"281 52 CURVE SMOOTH",
"165 52 OFFCURVE",
"105 118 OFFCURVE",
"120 211 CURVE",
"47 211 LINE",
"34 92 OFFCURVE",
"112 -12 OFFCURVE",
"274 -12 CURVE SMOOTH"
);
}
);
width = 600;
},
{
layerId = "80A0AA5A-C5CE-4148-884B-17CEBCBED218";
paths = (
{
closed = 1;
nodes = (
"275 -87 LINE",
"429 791 LINE",
"359 791 LINE",
"205 -87 LINE"
);
},
{
closed = 1;
nodes = (
"434 -12 OFFCURVE",
"545 68 OFFCURVE",
"545 206 CURVE SMOOTH",
"545 309 OFFCURVE",
"472 364 OFFCURVE",
"375 397 CURVE SMOOTH",
"262 434 OFFCURVE",
"223 465 OFFCURVE",
"223 522 CURVE SMOOTH",
"223 579 OFFCURVE",
"276 617 OFFCURVE",
"356 617 CURVE SMOOTH",
"429 617 OFFCURVE",
"479 574 OFFCURVE",
"475 513 CURVE",
"587 513 LINE",
"592 637 OFFCURVE",
"511 712 OFFCURVE",
"369 712 CURVE SMOOTH",
"220 712 OFFCURVE",
"111 637 OFFCURVE",
"111 516 CURVE SMOOTH",
"111 420 OFFCURVE",
"164 362 OFFCURVE",
"278 324 CURVE SMOOTH",
"404 283 OFFCURVE",
"431 247 OFFCURVE",
"431 195 CURVE SMOOTH",
"431 125 OFFCURVE",
"374 83 OFFCURVE",
"282 83 CURVE SMOOTH",
"187 83 OFFCURVE",
"138 140 OFFCURVE",
"145 215 CURVE",
"34 215 LINE",
"29 87 OFFCURVE",
"101 -12 OFFCURVE",
"281 -12 CURVE SMOOTH"
);
}
);
width = 600;
}
);
unicode = 0024;
},
{
glyphname = euro;
lastChange = "2020-03-04 08:54:38 +0000";
layers = (
{
layerId = "7BD5169A-FC8C-41E9-B364-539909E84211";
paths = (
{
closed = 1;
nodes = (
"420 -12 OFFCURVE",
"508 60 OFFCURVE",
"540 178 CURVE",
"469 178 LINE",
"441 101 OFFCURVE",
"389 54 OFFCURVE",
"303 54 CURVE SMOOTH",
"210 54 OFFCURVE",
"154 136 OFFCURVE",
"154 278 CURVE SMOOTH",
"154 452 OFFCURVE",
"238 646 OFFCURVE",
"397 646 CURVE SMOOTH",
"475 646 OFFCURVE",
"524 597 OFFCURVE",
"528 520 CURVE",
"600 520 LINE",
"600 634 OFFCURVE",
"525 712 OFFCURVE",
"409 712 CURVE SMOOTH",
"198 712 OFFCURVE",
"81 494 OFFCURVE",
"81 266 CURVE SMOOTH",
"81 93 OFFCURVE",
"171 -12 OFFCURVE",
"298 -12 CURVE SMOOTH"
);
},
{
closed = 1;
nodes = (
"353 239 LINE",
"364 301 LINE",
"11 301 LINE",
"0 239 LINE"
);
},
{
closed = 1;
nodes = (
"382 399 LINE",
"393 461 LINE",
"40 461 LINE",
"29 399 LINE"
);
}
);
width = 600;
},
{
layerId = "80A0AA5A-C5CE-4148-884B-17CEBCBED218";
paths = (
{
closed = 1;
nodes = (
"437 -12 OFFCURVE",
"524 62 OFFCURVE",
"557 184 CURVE",
"446 184 LINE",
"423 125 OFFCURVE",
"383 88 OFFCURVE",
"307 88 CURVE SMOOTH",
"228 88 OFFCURVE",
"181 160 OFFCURVE",
"181 284 CURVE SMOOTH",
"181 451 OFFCURVE",
"258 612 OFFCURVE",
"390 612 CURVE SMOOTH",
"458 612 OFFCURVE",
"499 570 OFFCURVE",
"503 510 CURVE",
"615 510 LINE",
"614 628 OFFCURVE",
"539 712 OFFCURVE",
"405 712 CURVE SMOOTH",
"190 712 OFFCURVE",
"72 506 OFFCURVE",
"72 270 CURVE SMOOTH",
"72 97 OFFCURVE",
"155 -12 OFFCURVE",
"302 -12 CURVE SMOOTH"
);
},
{
closed = 1;
nodes = (
"366 238 LINE",
"378 308 LINE",
"13 308 LINE",
"1 238 LINE"
);
},
{
closed = 1;
nodes = (
"393 391 LINE",
"406 462 LINE",
"41 462 LINE",
"28 391 LINE"
);
}
);
width = 600;
}
);
unicode = 20AC;
},
{
glyphname = florin;
lastChange = "2020-03-04 08:54:38 +0000";
layers = (
{
layerId = "7BD5169A-FC8C-41E9-B364-539909E84211";
paths = (
{
closed = 1;
nodes = (
"73 -220 LINE SMOOTH",
"183 -220 OFFCURVE",
"222 -179 OFFCURVE",
"239 -82 CURVE SMOOTH",
"357 582 LINE SMOOTH",
"366 635 OFFCURVE",
"390 654 OFFCURVE",
"442 654 CURVE SMOOTH",
"560 654 LINE",
"572 720 LINE",
"453 720 LINE SMOOTH",
"349 720 OFFCURVE",
"304 679 OFFCURVE",
"287 582 CURVE SMOOTH",
"169 -82 LINE SMOOTH",
"160 -135 OFFCURVE",
"136 -154 OFFCURVE",
"84 -154 CURVE SMOOTH",
"36 -154 LINE",
"24 -220 LINE"
);
},
{
closed = 1;
nodes = (
"522 436 LINE",
"532 496 LINE",
"150 496 LINE",
"140 436 LINE"
);
}
);
width = 600;
},
{
layerId = "80A0AA5A-C5CE-4148-884B-17CEBCBED218";
paths = (
{
closed = 1;
nodes = (
"80 -220 LINE SMOOTH",
"202 -220 OFFCURVE",
"246 -176 OFFCURVE",
"266 -65 CURVE SMOOTH",
"377 564 LINE SMOOTH",
"385 610 OFFCURVE",
"406 627 OFFCURVE",
"453 627 CURVE SMOOTH",
"561 627 LINE",
"578 720 LINE",
"457 720 LINE SMOOTH",
"347 720 OFFCURVE",
"291 676 OFFCURVE",
"271 565 CURVE SMOOTH",
"160 -64 LINE SMOOTH",
"152 -110 OFFCURVE",
"131 -127 OFFCURVE",
"84 -127 CURVE SMOOTH",
"3 -127 LINE",
"-14 -220 LINE"
);
},
{
closed = 1;
nodes = (
"522 406 LINE",
"538 496 LINE",
"133 496 LINE",
"118 406 LINE"
);
}
);
width = 600;
}
);
unicode = 0192;
},
{
glyphname = ruble;
lastChange = "2020-03-04 08:54:38 +0000";
layers = (
{
background = {
paths = (
{
closed = 1;
nodes = (
"157 0 LINE",
"206 278 LINE",
"341 278 LINE SMOOTH",
"502 278 OFFCURVE",
"586 378 OFFCURVE",
"606 489 CURVE SMOOTH",
"626 600 OFFCURVE",
"577 700 OFFCURVE",
"416 700 CURVE SMOOTH",
"211 700 LINE",
"87 0 LINE"
);
},
{
closed = 1;
nodes = (
"383 128 LINE",
"393 188 LINE",
"26 188 LINE",
"16 128 LINE"
);
},
{
closed = 1;
nodes = (
"269 636 LINE",
"404 636 LINE SMOOTH",
"507 636 OFFCURVE",
"549 575 OFFCURVE",
"534 489 CURVE SMOOTH",
"519 403 OFFCURVE",
"456 342 OFFCURVE",
"353 342 CURVE SMOOTH",
"218 342 LINE"
);
}
);
};
layerId = "7BD5169A-FC8C-41E9-B364-539909E84211";
paths = (
{
closed = 1;
nodes = (
"157 0 LINE",
"206 278 LINE",
"339 278 LINE SMOOTH",
"509 278 OFFCURVE",
"608 374 OFFCURVE",
"608 514 CURVE SMOOTH",
"608 616 OFFCURVE",
"548 700 OFFCURVE",
"409 700 CURVE SMOOTH",
"211 700 LINE",
"87 0 LINE"
);
},
{
closed = 1;
nodes = (
"383 128 LINE",
"393 188 LINE",
"26 188 LINE",
"16 128 LINE"
);
},
{
closed = 1;
nodes = (
"269 636 LINE",
"402 636 LINE SMOOTH",
"492 636 OFFCURVE",
"535 584 OFFCURVE",
"535 509 CURVE SMOOTH",
"535 409 OFFCURVE",
"463 342 OFFCURVE",
"351 342 CURVE SMOOTH",
"218 342 LINE"
);
}
);
width = 600;
},
{
layerId = "80A0AA5A-C5CE-4148-884B-17CEBCBED218";
paths = (
{
closed = 1;
nodes = (
"181 0 LINE",
"229 274 LINE",
"338 274 LINE SMOOTH",
"510 274 OFFCURVE",
"614 357 OFFCURVE",
"614 505 CURVE SMOOTH",
"614 618 OFFCURVE",
"541 700 OFFCURVE",
"403 700 CURVE SMOOTH",
"199 700 LINE",
"75 0 LINE"
);
},
{
closed = 1;
nodes = (
"390 117 LINE",
"403 194 LINE",
"21 194 LINE",
"8 117 LINE"
);
},
{
closed = 1;
nodes = (
"288 605 LINE",
"390 605 LINE SMOOTH",
"468 605 OFFCURVE",
"504 565 OFFCURVE",
"504 501 CURVE SMOOTH",
"504 416 OFFCURVE",
"446 369 OFFCURVE",
"349 369 CURVE SMOOTH",
"246 369 LINE"
);
}
);
width = 600;
}
);
unicode = 20BD;
},
{
glyphname = sterling;
lastChange = "2020-03-04 08:54:38 +0000";
layers = (
{
layerId = "7BD5169A-FC8C-41E9-B364-539909E84211";
paths = (
{
closed = 1;
nodes = (
"489 0 LINE",
"501 64 LINE",
"156 64 LINE",
"156 68 LINE",
"214 119 OFFCURVE",
"238 172 OFFCURVE",
"238 248 CURVE SMOOTH",
"238 321 OFFCURVE",
"216 396 OFFCURVE",
"216 477 CURVE SMOOTH",
"216 573 OFFCURVE",
"272 648 OFFCURVE",
"375 648 CURVE SMOOTH",
"462 648 OFFCURVE",
"513 587 OFFCURVE",
"508 510 CURVE",
"578 510 LINE",
"586 625 OFFCURVE",
"518 712 OFFCURVE",
"387 712 CURVE SMOOTH",
"236 712 OFFCURVE",
"145 613 OFFCURVE",
"145 469 CURVE SMOOTH",
"145 382 OFFCURVE",
"169 323 OFFCURVE",
"169 242 CURVE SMOOTH",
"169 158 OFFCURVE",
"126 109 OFFCURVE",
"55 47 CURVE",
"46 0 LINE"
);
},
{
closed = 1;
nodes = (
"414 304 LINE",
"424 364 LINE",
"66 364 LINE",
"56 304 LINE"
);
}
);
width = 600;
},
{
layerId = "80A0AA5A-C5CE-4148-884B-17CEBCBED218";
paths = (
{
closed = 1;
nodes = (
"499 0 LINE",
"515 91 LINE",
"176 91 LINE",
"176 97 LINE",
"230 147 OFFCURVE",
"257 201 OFFCURVE",
"257 278 CURVE SMOOTH",
"257 346 OFFCURVE",
"237 405 OFFCURVE",
"237 479 CURVE SMOOTH",
"237 564 OFFCURVE",
"291 622 OFFCURVE",
"373 622 CURVE SMOOTH",
"446 622 OFFCURVE",
"491 571 OFFCURVE",
"487 501 CURVE",
"587 501 LINE",
"597 625 OFFCURVE",
"520 712 OFFCURVE",
"382 712 CURVE SMOOTH",
"226 712 OFFCURVE",
"134 617 OFFCURVE",
"134 470 CURVE SMOOTH",
"134 402 OFFCURVE",
"155 339 OFFCURVE",
"155 276 CURVE SMOOTH",
"155 193 OFFCURVE",
"112 126 OFFCURVE",
"39 64 CURVE",
"27 0 LINE"
);
},
{
closed = 1;
nodes = (
"423 289 LINE",
"436 366 LINE",
"61 366 LINE",
"48 289 LINE"
);
}
);
width = 600;
}
);
unicode = 00A3;
},
{
glyphname = yen;
lastChange = "2020-03-04 08:54:38 +0000";
layers = (
{
layerId = "7BD5169A-FC8C-41E9-B364-539909E84211";
paths = (
{
closed = 1;
nodes = (
"291 0 LINE",
"341 280 LINE",
"640 700 LINE",
"558 700 LINE",
"293 318 LINE",
"325 318 LINE",
"194 700 LINE",
"120 700 LINE",
"271 280 LINE",
"221 0 LINE"
);
},
{
closed = 1;
nodes = (
"500 165 LINE",
"511 225 LINE",
"81 225 LINE",
"70 165 LINE"
);
},
{
closed = 1;
nodes = (
"266 314 LINE",
"276 374 LINE",
"107 374 LINE",
"97 314 LINE"
);
},
{
closed = 1;
nodes = (
"527 314 LINE",
"537 374 LINE",
"368 374 LINE",
"358 314 LINE"
);
}
);
width = 600;
},
{
layerId = "80A0AA5A-C5CE-4148-884B-17CEBCBED218";
paths = (
{
closed = 1;
nodes = (
"309 0 LINE",
"357 266 LINE",
"664 700 LINE",
"539 700 LINE",
"296 344 LINE",
"332 344 LINE",
"211 700 LINE",
"96 700 LINE",
"251 266 LINE",
"203 0 LINE"
);
},
{
closed = 1;
nodes = (
"519 152 LINE",
"533 233 LINE",
"62 233 LINE",
"48 152 LINE"
);
},
{
closed = 1;
nodes = (
"268 310 LINE",
"282 391 LINE",
"90 391 LINE",
"76 310 LINE"
);
},
{
closed = 1;
nodes = (
"547 310 LINE",
"561 391 LINE",
"369 391 LINE",
"355 310 LINE"
);
}
);
width = 600;
}
);
unicode = 00A5;
},
{
glyphname = plus;
lastChange = "2020-03-04 08:54:38 +0000";
layers = (
{
layerId = "7BD5169A-FC8C-41E9-B364-539909E84211";
paths = (
{
closed = 1;
nodes = (
"532 318 LINE",
"544 382 LINE",
"104 382 LINE",
"92 318 LINE"
);
},
{
closed = 1;
nodes = (
"311 130 LINE",
"389 570 LINE",
"325 570 LINE",
"247 130 LINE"
);
}
);
width = 600;
},
{
layerId = "80A0AA5A-C5CE-4148-884B-17CEBCBED218";
paths = (
{
closed = 1;
nodes = (
"542 302 LINE",
"559 398 LINE",
"94 398 LINE",
"77 302 LINE"
);
},
{
closed = 1;
nodes = (
"325 118 LINE",
"406 582 LINE",
"311 582 LINE",
"230 118 LINE"
);
}
);
width = 600;
}
);
unicode = 002B;
},
